solid SL_Bolzen
facet normal 0.7040625922196365 5.026604972219242e-17 0.7101379205738599
outer loop
vertex 0.9956855197099237 -1.762479051592436e-16 3.9999999999999996
vertex 1.4488887394336025 0.38822856765378044 3.5
vertex 0.9617583583498679 0.25770237543373026 3.9999999999999996
endloop
endfacet
facet normal 0.6800722411489757 0.18222480781069153 0.7101379205738602
outer loop
vertex 1.4488887394336025 0.38822856765378044 3.5
vertex 0.9956855197099237 -1.762479051592436e-16 3.9999999999999996
vertex 1.5 -3.524958103184872e-16 3.5
endloop
endfacet
facet normal 0.6800722411489757 0.18222480781069172 0.7101379205738602
outer loop
vertex 0.9617583583498679 0.25770237543373026 3.9999999999999996
vertex 1.2990381056766587 0.7499999999999988 3.5
vertex 0.8622889542491058 0.4978427598549606 3.9999999999999996
endloop
endfacet
facet normal 0.6097360907165296 0.35203129610981776 0.7101379205738602
outer loop
vertex 1.2990381056766587 0.7499999999999988 3.5
vertex 0.9617583583498679 0.25770237543373026 3.9999999999999996
vertex 1.4488887394336025 0.38822856765378044 3.5
endloop
endfacet
facet normal 0.6097360907165297 0.35203129610981765 0.71013792057386
outer loop
vertex 0.8622889542491058 0.4978427598549606 3.9999999999999996
vertex 1.0606601717798219 1.060660171779821 3.5
vertex 0.7040559829161399 0.704055982916138 3.9999999999999996
endloop
endfacet
facet normal 0.49784743333828435 0.4978474333382835 0.7101379205738602
outer loop
vertex 1.0606601717798219 1.060660171779821 3.5
vertex 0.8622889542491058 0.4978427598549606 3.9999999999999996
vertex 1.2990381056766587 0.7499999999999988 3.5
endloop
endfacet
facet normal 0.609736090716529 -0.35203129610981837 0.7101379205738603
outer loop
vertex 1.2990381056766578 -0.7500000000000007 3.5
vertex 0.9617583583498686 -0.2577023754337285 3.9999999999999996
vertex 0.8622889542491055 -0.497842759854962 3.9999999999999996
endloop
endfacet
facet normal 0.6800722411489758 -0.18222480781069156 0.7101379205738602
outer loop
vertex 0.9617583583498686 -0.2577023754337285 3.9999999999999996
vertex 1.2990381056766578 -0.7500000000000007 3.5
vertex 1.4488887394336025 -0.3882285676537822 3.5
endloop
endfacet
facet normal 0.6800722411489757 -0.18222480781069192 0.7101379205738602
outer loop
vertex 1.4488887394336025 -0.3882285676537822 3.5
vertex 0.9956855197099237 -1.762479051592436e-16 3.9999999999999996
vertex 0.9617583583498686 -0.2577023754337285 3.9999999999999996
endloop
endfacet
facet normal 0.7040625922196365 5.026604972219242e-17 0.7101379205738599
outer loop
vertex 0.9956855197099237 -1.762479051592436e-16 3.9999999999999996
vertex 1.4488887394336025 -0.3882285676537822 3.5
vertex 1.5 -3.524958103184872e-16 3.5
endloop
endfacet
facet normal 0.4978474333382835 -0.49784743333828446 0.71013792057386
outer loop
vertex 1.0606601717798207 -1.0606601717798219 3.5
vertex 0.8622889542491055 -0.497842759854962 3.9999999999999996
vertex 0.7040559829161381 -0.7040559829161398 3.9999999999999996
endloop
endfacet
facet normal 0.6097360907165291 -0.3520312961098183 0.7101379205738602
outer loop
vertex 0.8622889542491055 -0.497842759854962 3.9999999999999996
vertex 1.0606601717798207 -1.0606601717798219 3.5
vertex 1.2990381056766578 -0.7500000000000007 3.5
endloop
endfacet
facet normal 0.0 0.0 1.0
outer loop
vertex -0.9617583583498684 -0.25770237543372954 3.9999999999999996
vertex -0.9617583583498686 0.25770237543372915 3.9999999999999996
vertex -0.9956855197099237 -1.233735336114705e-15 3.9999999999999996
endloop
endfacet
facet normal 0.0 0.0 1.0
outer loop
vertex -0.9617583583498686 0.25770237543372915 3.9999999999999996
vertex -0.9617583583498684 -0.25770237543372954 3.9999999999999996
vertex -0.8622889542491047 0.49784275985496274 3.9999999999999996
endloop
endfacet
facet normal 0.0 0.0 1.0
outer loop
vertex -0.8622889542491047 0.49784275985496274 3.9999999999999996
vertex -0.9617583583498684 -0.25770237543372954 3.9999999999999996
vertex -0.8622889542491052 -0.4978427598549617 3.9999999999999996
endloop
endfacet
facet normal 0.0 0.0 1.0
outer loop
vertex -0.8622889542491047 0.49784275985496274 3.9999999999999996
vertex -0.8622889542491052 -0.4978427598549617 3.9999999999999996
vertex -0.7040559829161385 -0.704055982916139 3.9999999999999996
endloop
endfacet
facet normal 0.0 0.0 1.0
outer loop
vertex -0.8622889542491047 0.49784275985496274 3.9999999999999996
vertex -0.7040559829161385 -0.704055982916139 3.9999999999999996
vertex -0.7040559829161384 0.7040559829161394 3.9999999999999996
endloop
endfacet
facet normal 0.0 0.0 1.0
outer loop
vertex -0.7040559829161384 0.7040559829161394 3.9999999999999996
vertex -0.7040559829161385 -0.704055982916139 3.9999999999999996
vertex -0.49784275985496323 -0.8622889542491047 3.9999999999999996
endloop
endfacet
facet normal 0.0 0.0 1.0
outer loop
vertex -0.7040559829161384 0.7040559829161394 3.9999999999999996
vertex -0.49784275985496323 -0.8622889542491047 3.9999999999999996
vertex -0.4978427598549622 0.8622889542491049 3.9999999999999996
endloop
endfacet
facet normal 0.0 0.0 1.0
outer loop
vertex -0.4978427598549622 0.8622889542491049 3.9999999999999996
vertex -0.49784275985496323 -0.8622889542491047 3.9999999999999996
vertex -0.25770237543373004 -0.9617583583498682 3.9999999999999996
endloop
endfacet
facet normal 0.0 0.0 1.0
outer loop
vertex -0.4978427598549622 0.8622889542491049 3.9999999999999996
vertex -0.25770237543373004 -0.9617583583498682 3.9999999999999996
vertex -0.2577023754337315 0.9617583583498677 3.9999999999999996
endloop
endfacet
facet normal 0.0 0.0 1.0
outer loop
vertex -0.2577023754337315 0.9617583583498677 3.9999999999999996
vertex -0.25770237543373004 -0.9617583583498682 3.9999999999999996
vertex -3.524958103184872e-16 0.9956855197099235 3.9999999999999996
endloop
endfacet
facet normal 0.0 0.0 1.0
outer loop
vertex -3.524958103184872e-16 0.9956855197099235 3.9999999999999996
vertex -0.25770237543373004 -0.9617583583498682 3.9999999999999996
vertex -1.5862311464331924e-15 -0.9956855197099237 3.9999999999999996
endloop
endfacet
facet normal 0.0 0.0 1.0
outer loop
vertex -3.524958103184872e-16 0.9956855197099235 3.9999999999999996
vertex -1.5862311464331924e-15 -0.9956855197099237 3.9999999999999996
vertex 0.2577023754337283 -0.9617583583498688 3.9999999999999996
endloop
endfacet
facet normal 0.0 0.0 1.0
outer loop
vertex -3.524958103184872e-16 0.9956855197099235 3.9999999999999996
vertex 0.2577023754337283 -0.9617583583498688 3.9999999999999996
vertex 0.25770237543373004 0.961758358349868 3.9999999999999996
endloop
endfacet
facet normal 0.0 0.0 1.0
outer loop
vertex 0.25770237543373004 0.961758358349868 3.9999999999999996
vertex 0.2577023754337283 -0.9617583583498688 3.9999999999999996
vertex 0.4978427598549611 -0.8622889542491056 3.9999999999999996
endloop
endfacet
facet normal 0.0 0.0 1.0
outer loop
vertex 0.25770237543373004 0.961758358349868 3.9999999999999996
vertex 0.4978427598549611 -0.8622889542491056 3.9999999999999996
vertex 0.49784275985496323 0.8622889542491046 3.9999999999999996
endloop
endfacet
facet normal 0.0 0.0 1.0
outer loop
vertex 0.49784275985496323 0.8622889542491046 3.9999999999999996
vertex 0.4978427598549611 -0.8622889542491056 3.9999999999999996
vertex 0.7040559829161381 -0.7040559829161398 3.9999999999999996
endloop
endfacet
facet normal 0.0 0.0 1.0
outer loop
vertex 0.49784275985496323 0.8622889542491046 3.9999999999999996
vertex 0.7040559829161381 -0.7040559829161398 3.9999999999999996
vertex 0.7040559829161399 0.704055982916138 3.9999999999999996
endloop
endfacet
facet normal 0.0 0.0 1.0
outer loop
vertex 0.7040559829161399 0.704055982916138 3.9999999999999996
vertex 0.7040559829161381 -0.7040559829161398 3.9999999999999996
vertex 0.8622889542491055 -0.497842759854962 3.9999999999999996
endloop
endfacet
facet normal 0.0 0.0 1.0
outer loop
vertex 0.7040559829161399 0.704055982916138 3.9999999999999996
vertex 0.8622889542491055 -0.497842759854962 3.9999999999999996
vertex 0.8622889542491058 0.4978427598549606 3.9999999999999996
endloop
endfacet
facet normal 0.0 0.0 1.0
outer loop
vertex 0.8622889542491058 0.4978427598549606 3.9999999999999996
vertex 0.8622889542491055 -0.497842759854962 3.9999999999999996
vertex 0.9617583583498686 -0.2577023754337285 3.9999999999999996
endloop
endfacet
facet normal 0.0 0.0 1.0
outer loop
vertex 0.8622889542491058 0.4978427598549606 3.9999999999999996
vertex 0.9617583583498686 -0.2577023754337285 3.9999999999999996
vertex 0.9617583583498679 0.25770237543373026 3.9999999999999996
endloop
endfacet
facet normal 0.0 0.0 1.0
outer loop
vertex 0.9617583583498679 0.25770237543373026 3.9999999999999996
vertex 0.9617583583498686 -0.2577023754337285 3.9999999999999996
vertex 0.9956855197099237 -1.762479051592436e-16 3.9999999999999996
endloop
endfacet
facet normal -0.7040625922196365 -2.6808559851835976e-16 0.71013792057386
outer loop
vertex -0.9956855197099237 -1.233735336114705e-15 3.9999999999999996
vertex -1.4488887394336025 0.3882285676537815 3.5
vertex -1.5 1.762479051592436e-16 3.5
endloop
endfacet
facet normal -0.6800722411489756 0.18222480781069186 0.7101379205738602
outer loop
vertex -1.4488887394336025 0.3882285676537815 3.5
vertex -0.9956855197099237 -1.233735336114705e-15 3.9999999999999996
vertex -0.9617583583498686 0.25770237543372915 3.9999999999999996
endloop
endfacet
facet normal -0.6800722411489757 0.18222480781069175 0.7101379205738602
outer loop
vertex -0.9617583583498686 0.25770237543372915 3.9999999999999996
vertex -1.2990381056766578 0.7500000000000002 3.5
vertex -1.4488887394336025 0.3882285676537815 3.5
endloop
endfacet
facet normal -0.6097360907165291 0.3520312961098184 0.71013792057386
outer loop
vertex -1.2990381056766578 0.7500000000000002 3.5
vertex -0.9617583583498686 0.25770237543372915 3.9999999999999996
vertex -0.8622889542491047 0.49784275985496274 3.9999999999999996
endloop
endfacet
facet normal -0.609736090716529 0.35203129610981865 0.71013792057386
outer loop
vertex -0.8622889542491047 0.49784275985496274 3.9999999999999996
vertex -1.0606601717798212 1.0606601717798212 3.5
vertex -1.2990381056766578 0.7500000000000002 3.5
endloop
endfacet
facet normal -0.4978474333382839 0.4978474333382841 0.7101379205738599
outer loop
vertex -1.0606601717798212 1.0606601717798212 3.5
vertex -0.8622889542491047 0.49784275985496274 3.9999999999999996
vertex -0.7040559829161384 0.7040559829161394 3.9999999999999996
endloop
endfacet
facet normal -0.4978474333382839 0.4978474333382843 0.7101379205738599
outer loop
vertex -0.7040559829161384 0.7040559829161394 3.9999999999999996
vertex -0.75 1.2990381056766578 3.5
vertex -1.0606601717798212 1.0606601717798212 3.5
endloop
endfacet
facet normal -0.35203129610981837 0.6097360907165293 0.7101379205738599
outer loop
vertex -0.75 1.2990381056766578 3.5
vertex -0.7040559829161384 0.7040559829161394 3.9999999999999996
vertex -0.4978427598549622 0.8622889542491049 3.9999999999999996
endloop
endfacet
facet normal -0.6800722411489757 -0.18222480781069195 0.71013792057386
outer loop
vertex -1.4488887394336025 -0.388228567653781 3.5
vertex -0.9956855197099237 -1.233735336114705e-15 3.9999999999999996
vertex -1.5 1.762479051592436e-16 3.5
endloop
endfacet
facet normal -0.7040625922196365 -2.6808559851835976e-16 0.71013792057386
outer loop
vertex -0.9956855197099237 -1.233735336114705e-15 3.9999999999999996
vertex -1.4488887394336025 -0.388228567653781 3.5
vertex -0.9617583583498684 -0.25770237543372954 3.9999999999999996
endloop
endfacet
facet normal -0.6097360907165292 -0.3520312961098181 0.71013792057386
outer loop
vertex -1.299038105676658 -0.7499999999999996 3.5
vertex -0.9617583583498684 -0.25770237543372954 3.9999999999999996
vertex -1.4488887394336025 -0.388228567653781 3.5
endloop
endfacet
facet normal -0.6800722411489757 -0.182224807810692 0.71013792057386
outer loop
vertex -0.9617583583498684 -0.25770237543372954 3.9999999999999996
vertex -1.299038105676658 -0.7499999999999996 3.5
vertex -0.8622889542491052 -0.4978427598549617 3.9999999999999996
endloop
endfacet
facet normal -0.49784743333828424 -0.49784743333828363 0.71013792057386
outer loop
vertex -1.0606601717798214 -1.0606601717798212 3.5
vertex -0.8622889542491052 -0.4978427598549617 3.9999999999999996
vertex -1.299038105676658 -0.7499999999999996 3.5
endloop
endfacet
facet normal -0.6097360907165293 -0.3520312961098183 0.71013792057386
outer loop
vertex -0.8622889542491052 -0.4978427598549617 3.9999999999999996
vertex -1.0606601717798214 -1.0606601717798212 3.5
vertex -0.7040559829161385 -0.704055982916139 3.9999999999999996
endloop
endfacet
facet normal -0.3520312961098184 -0.6097360907165291 0.71013792057386
outer loop
vertex -0.7500000000000006 -1.2990381056766578 3.5
vertex -0.7040559829161385 -0.704055982916139 3.9999999999999996
vertex -1.0606601717798214 -1.0606601717798212 3.5
endloop
endfacet
facet normal -0.4978474333382842 -0.49784743333828363 0.7101379205738602
outer loop
vertex -0.7040559829161385 -0.704055982916139 3.9999999999999996
vertex -0.7500000000000006 -1.2990381056766578 3.5
vertex -0.49784275985496323 -0.8622889542491047 3.9999999999999996
endloop
endfacet
facet normal -0.18222480781069195 -0.6800722411489757 0.71013792057386
outer loop
vertex -0.3882285676537815 -1.4488887394336023 3.5
vertex -0.49784275985496323 -0.8622889542491047 3.9999999999999996
vertex -0.7500000000000006 -1.2990381056766578 3.5
endloop
endfacet
facet normal -0.35203129610981854 -0.609736090716529 0.71013792057386
outer loop
vertex -0.49784275985496323 -0.8622889542491047 3.9999999999999996
vertex -0.3882285676537815 -1.4488887394336023 3.5
vertex -0.25770237543373004 -0.9617583583498682 3.9999999999999996
endloop
endfacet
facet normal -2.357501073431595e-16 -0.7040625922196365 0.71013792057386
outer loop
vertex -1.762479051592436e-16 -1.5 3.5
vertex -0.25770237543373004 -0.9617583583498682 3.9999999999999996
vertex -0.3882285676537815 -1.4488887394336023 3.5
endloop
endfacet
facet normal -0.18222480781069203 -0.6800722411489758 0.7101379205738599
outer loop
vertex -0.25770237543373004 -0.9617583583498682 3.9999999999999996
vertex -1.762479051592436e-16 -1.5 3.5
vertex -1.5862311464331924e-15 -0.9956855197099237 3.9999999999999996
endloop
endfacet
facet normal -2.357501073431595e-16 -0.7040625922196365 0.71013792057386
outer loop
vertex -1.762479051592436e-16 -1.5 3.5
vertex 0.2577023754337283 -0.9617583583498688 3.9999999999999996
vertex -1.5862311464331924e-15 -0.9956855197099237 3.9999999999999996
endloop
endfacet
facet normal 0.18222480781069128 -0.6800722411489759 0.7101379205738599
outer loop
vertex 0.2577023754337283 -0.9617583583498688 3.9999999999999996
vertex -1.762479051592436e-16 -1.5 3.5
vertex 0.3882285676537806 -1.4488887394336025 3.5
endloop
endfacet
facet normal 0.1822248078106915 -0.6800722411489759 0.7101379205738599
outer loop
vertex 0.3882285676537806 -1.4488887394336025 3.5
vertex 0.4978427598549611 -0.8622889542491056 3.9999999999999996
vertex 0.2577023754337283 -0.9617583583498688 3.9999999999999996
endloop
endfacet
facet normal 0.35203129610981776 -0.6097360907165298 0.7101379205738599
outer loop
vertex 0.4978427598549611 -0.8622889542491056 3.9999999999999996
vertex 0.3882285676537806 -1.4488887394336025 3.5
vertex 0.7499999999999993 -1.299038105676658 3.5
endloop
endfacet
facet normal 0.35203129610981776 -0.6097360907165297 0.7101379205738598
outer loop
vertex 0.7499999999999993 -1.299038105676658 3.5
vertex 0.7040559829161381 -0.7040559829161398 3.9999999999999996
vertex 0.4978427598549611 -0.8622889542491056 3.9999999999999996
endloop
endfacet
facet normal 0.49784743333828335 -0.4978474333382846 0.71013792057386
outer loop
vertex 0.7040559829161381 -0.7040559829161398 3.9999999999999996
vertex 0.7499999999999993 -1.299038105676658 3.5
vertex 1.0606601717798207 -1.0606601717798219 3.5
endloop
endfacet
facet normal 0.4978474333382845 0.4978474333382833 0.71013792057386
outer loop
vertex 0.7040559829161399 0.704055982916138 3.9999999999999996
vertex 0.7500000000000008 1.2990381056766576 3.5
vertex 0.49784275985496323 0.8622889542491046 3.9999999999999996
endloop
endfacet
facet normal 0.35203129610981865 0.609736090716529 0.71013792057386
outer loop
vertex 0.7500000000000008 1.2990381056766576 3.5
vertex 0.7040559829161399 0.704055982916138 3.9999999999999996
vertex 1.0606601717798219 1.060660171779821 3.5
endloop
endfacet
facet normal 0.0 0.0 -1.0
outer loop
vertex -1.4488887394336025 0.3882285676537815 0.0
vertex -1.4488887394336025 -0.388228567653781 0.0
vertex -1.5 1.762479051592436e-16 0.0
endloop
endfacet
facet normal 0.0 0.0 -1.0
outer loop
vertex -1.4488887394336025 -0.388228567653781 0.0
vertex -1.4488887394336025 0.3882285676537815 0.0
vertex -1.299038105676658 -0.7499999999999996 0.0
endloop
endfacet
facet normal 0.0 0.0 -1.0
outer loop
vertex -1.299038105676658 -0.7499999999999996 0.0
vertex -1.4488887394336025 0.3882285676537815 0.0
vertex -1.2990381056766578 0.7500000000000002 0.0
endloop
endfacet
facet normal 0.0 0.0 -1.0
outer loop
vertex -1.299038105676658 -0.7499999999999996 0.0
vertex -1.2990381056766578 0.7500000000000002 0.0
vertex -1.0606601717798214 -1.0606601717798212 0.0
endloop
endfacet
facet normal 0.0 0.0 -1.0
outer loop
vertex -1.0606601717798214 -1.0606601717798212 0.0
vertex -1.2990381056766578 0.7500000000000002 0.0
vertex -1.0606601717798212 1.0606601717798212 0.0
endloop
endfacet
facet normal 0.0 0.0 -1.0
outer loop
vertex -1.0606601717798214 -1.0606601717798212 0.0
vertex -1.0606601717798212 1.0606601717798212 0.0
vertex -0.7500000000000006 -1.2990381056766578 0.0
endloop
endfacet
facet normal 0.0 0.0 -1.0
outer loop
vertex -0.7500000000000006 -1.2990381056766578 0.0
vertex -1.0606601717798212 1.0606601717798212 0.0
vertex -0.75 1.2990381056766578 0.0
endloop
endfacet
facet normal 0.0 0.0 -1.0
outer loop
vertex -0.7500000000000006 -1.2990381056766578 0.0
vertex -0.75 1.2990381056766578 0.0
vertex -0.3882285676537815 -1.4488887394336023 0.0
endloop
endfacet
facet normal 0.0 0.0 -1.0
outer loop
vertex -0.3882285676537815 -1.4488887394336023 0.0
vertex -0.75 1.2990381056766578 0.0
vertex -0.38822856765378116 1.4488887394336025 0.0
endloop
endfacet
facet normal 0.0 0.0 -1.0
outer loop
vertex -0.3882285676537815 -1.4488887394336023 0.0
vertex -0.38822856765378116 1.4488887394336025 0.0
vertex -1.762479051592436e-16 -1.5 0.0
endloop
endfacet
facet normal 0.0 0.0 -1.0
outer loop
vertex -1.762479051592436e-16 -1.5 0.0
vertex -0.38822856765378116 1.4488887394336025 0.0
vertex 0.0 1.5 0.0
endloop
endfacet
facet normal 0.0 0.0 -1.0
outer loop
vertex -1.762479051592436e-16 -1.5 0.0
vertex 0.0 1.5 0.0
vertex 0.3882285676537806 -1.4488887394336025 0.0
endloop
endfacet
facet normal 0.0 0.0 -1.0
outer loop
vertex 0.3882285676537806 -1.4488887394336025 0.0
vertex 0.0 1.5 0.0
vertex 0.3882285676537824 1.4488887394336019 0.0
endloop
endfacet
facet normal 0.0 0.0 -1.0
outer loop
vertex 0.3882285676537806 -1.4488887394336025 0.0
vertex 0.3882285676537824 1.4488887394336019 0.0
vertex 0.7499999999999997 -1.299038105676658 0.0
endloop
endfacet
facet normal 0.0 0.0 -1.0
outer loop
vertex 0.7499999999999997 -1.299038105676658 0.0
vertex 0.3882285676537824 1.4488887394336019 0.0
vertex 0.7500000000000008 1.2990381056766576 0.0
endloop
endfacet
facet normal 0.0 0.0 -1.0
outer loop
vertex 0.7499999999999997 -1.299038105676658 0.0
vertex 0.7500000000000008 1.2990381056766576 0.0
vertex 1.0606601717798207 -1.0606601717798219 0.0
endloop
endfacet
facet normal 0.0 0.0 -1.0
outer loop
vertex 1.0606601717798207 -1.0606601717798219 0.0
vertex 0.7500000000000008 1.2990381056766576 0.0
vertex 1.0606601717798219 1.060660171779821 0.0
endloop
endfacet
facet normal 0.0 0.0 -1.0
outer loop
vertex 1.0606601717798207 -1.0606601717798219 0.0
vertex 1.0606601717798219 1.060660171779821 0.0
vertex 1.2990381056766578 -0.7500000000000007 0.0
endloop
endfacet
facet normal 0.0 0.0 -1.0
outer loop
vertex 1.2990381056766578 -0.7500000000000007 0.0
vertex 1.0606601717798219 1.060660171779821 0.0
vertex 1.2990381056766587 0.7499999999999988 0.0
endloop
endfacet
facet normal 0.0 0.0 -1.0
outer loop
vertex 1.2990381056766578 -0.7500000000000007 0.0
vertex 1.2990381056766587 0.7499999999999988 0.0
vertex 1.4488887394336025 -0.3882285676537822 0.0
endloop
endfacet
facet normal 0.0 0.0 -1.0
outer loop
vertex 1.4488887394336025 -0.3882285676537822 0.0
vertex 1.2990381056766587 0.7499999999999988 0.0
vertex 1.4488887394336025 0.38822856765378044 0.0
endloop
endfacet
facet normal 0.0 0.0 -1.0
outer loop
vertex 1.4488887394336025 -0.3882285676537822 0.0
vertex 1.4488887394336025 0.38822856765378044 0.0
vertex 1.5 -3.524958103184872e-16 0.0
endloop
endfacet
facet normal 0.8660254037844392 0.4999999999999994 0.0
outer loop
vertex 1.2990381056766587 0.7499999999999988 0.0
vertex 1.4488887394336025 0.38822856765378044 3.5
vertex 1.4488887394336025 0.38822856765378044 0.0
endloop
endfacet
facet normal 0.9659258262890684 0.25881904510252024 1.2490783457156213e-17
outer loop
vertex 1.4488887394336025 0.38822856765378044 3.5
vertex 1.2990381056766587 0.7499999999999988 0.0
vertex 1.2990381056766587 0.7499999999999988 3.5
endloop
endfacet
facet normal 1.0 -2.1386663749552573e-16 2.4981566914312433e-17
outer loop
vertex 1.5 -3.524958103184872e-16 0.0
vertex 1.4488887394336025 -0.3882285676537822 3.5
vertex 1.4488887394336025 -0.3882285676537822 0.0
endloop
endfacet
facet normal 0.9659258262890682 -0.2588190451025211 1.2490783457156216e-17
outer loop
vertex 1.4488887394336025 -0.3882285676537822 3.5
vertex 1.5 -3.524958103184872e-16 0.0
vertex 1.5 -3.524958103184872e-16 3.5
endloop
endfacet
facet normal 0.9659258262890684 0.25881904510252024 1.2490783457156213e-17
outer loop
vertex 1.4488887394336025 0.38822856765378044 0.0
vertex 1.5 -3.524958103184872e-16 3.5
vertex 1.5 -3.524958103184872e-16 0.0
endloop
endfacet
facet normal 1.0 -2.1386663749552573e-16 2.4981566914312433e-17
outer loop
vertex 1.5 -3.524958103184872e-16 3.5
vertex 1.4488887394336025 0.38822856765378044 0.0
vertex 1.4488887394336025 0.38822856765378044 3.5
endloop
endfacet
facet normal 0.707106781186547 -0.707106781186548 4.382583429821189e-18
outer loop
vertex 1.0606601717798207 -1.0606601717798219 3.5
vertex 0.7499999999999997 -1.299038105676658 0.0
vertex 1.0606601717798207 -1.0606601717798219 0.0
endloop
endfacet
facet normal 0.49999999999999956 -0.8660254037844389 6.58658912352136e-18
outer loop
vertex 0.7499999999999997 -1.299038105676658 0.0
vertex 1.0606601717798207 -1.0606601717798219 3.5
vertex 0.7499999999999993 -1.299038105676658 3.5
endloop
endfacet
facet normal 0.8660254037844384 -0.5000000000000006 0.0
outer loop
vertex 1.2990381056766578 -0.7500000000000007 0.0
vertex 1.0606601717798207 -1.0606601717798219 3.5
vertex 1.0606601717798207 -1.0606601717798219 0.0
endloop
endfacet
facet normal 0.707106781186547 -0.707106781186548 4.382583429821189e-18
outer loop
vertex 1.0606601717798207 -1.0606601717798219 3.5
vertex 1.2990381056766578 -0.7500000000000007 0.0
vertex 1.2990381056766578 -0.7500000000000007 3.5
endloop
endfacet
facet normal 0.49999999999999956 -0.8660254037844389 6.586589123521358e-18
outer loop
vertex 0.7499999999999993 -1.299038105676658 3.5
vertex 0.3882285676537806 -1.4488887394336025 0.0
vertex 0.7499999999999997 -1.299038105676658 0.0
endloop
endfacet
facet normal 0.2588190451025206 -0.9659258262890684 2.204005693700171e-18
outer loop
vertex 0.3882285676537806 -1.4488887394336025 0.0
vertex 0.7499999999999993 -1.299038105676658 3.5
vertex 0.3882285676537806 -1.4488887394336025 3.5
endloop
endfacet
facet normal 0.2588190451025206 -0.9659258262890684 2.204005693700171e-18
outer loop
vertex 0.3882285676537806 -1.4488887394336025 3.5
vertex -1.762479051592436e-16 -1.5 0.0
vertex 0.3882285676537806 -1.4488887394336025 0.0
endloop
endfacet
facet normal -9.802220885211596e-17 -1.0 0.0
outer loop
vertex -1.762479051592436e-16 -1.5 0.0
vertex 0.3882285676537806 -1.4488887394336025 3.5
vertex -1.762479051592436e-16 -1.5 3.5
endloop
endfacet
facet normal -9.802220885211596e-17 -1.0 0.0
outer loop
vertex -1.762479051592436e-16 -1.5 3.5
vertex -0.3882285676537815 -1.4488887394336023 0.0
vertex -1.762479051592436e-16 -1.5 0.0
endloop
endfacet
facet normal -0.25881904510252085 -0.9659258262890684 0.0
outer loop
vertex -0.3882285676537815 -1.4488887394336023 0.0
vertex -1.762479051592436e-16 -1.5 3.5
vertex -0.3882285676537815 -1.4488887394336023 3.5
endloop
endfacet
facet normal -0.25881904510252085 -0.9659258262890684 0.0
outer loop
vertex -0.3882285676537815 -1.4488887394336023 3.5
vertex -0.7500000000000006 -1.2990381056766578 0.0
vertex -0.3882285676537815 -1.4488887394336023 0.0
endloop
endfacet
facet normal -0.5000000000000003 -0.8660254037844387 0.0
outer loop
vertex -0.7500000000000006 -1.2990381056766578 0.0
vertex -0.3882285676537815 -1.4488887394336023 3.5
vertex -0.7500000000000006 -1.2990381056766578 3.5
endloop
endfacet
facet normal 0.35203129610981887 0.609736090716529 0.71013792057386
outer loop
vertex 0.49784275985496323 0.8622889542491046 3.9999999999999996
vertex 0.3882285676537824 1.4488887394336019 3.5
vertex 0.25770237543373004 0.961758358349868 3.9999999999999996
endloop
endfacet
facet normal 0.18222480781069206 0.6800722411489757 0.71013792057386
outer loop
vertex 0.3882285676537824 1.4488887394336019 3.5
vertex 0.49784275985496323 0.8622889542491046 3.9999999999999996
vertex 0.7500000000000008 1.2990381056766576 3.5
endloop
endfacet
facet normal 0.18222480781069195 0.6800722411489757 0.7101379205738602
outer loop
vertex 0.25770237543373004 0.961758358349868 3.9999999999999996
vertex 0.0 1.5 3.5
vertex -3.524958103184872e-16 0.9956855197099235 3.9999999999999996
endloop
endfacet
facet normal -6.601003005608465e-17 0.7040625922196364 0.7101379205738602
outer loop
vertex 0.0 1.5 3.5
vertex 0.25770237543373004 0.961758358349868 3.9999999999999996
vertex 0.3882285676537824 1.4488887394336019 3.5
endloop
endfacet
facet normal -0.1822248078106922 0.6800722411489756 0.7101379205738602
outer loop
vertex -0.2577023754337315 0.9617583583498677 3.9999999999999996
vertex 0.0 1.5 3.5
vertex -0.38822856765378116 1.4488887394336025 3.5
endloop
endfacet
facet normal -6.601003005608465e-17 0.7040625922196364 0.7101379205738602
outer loop
vertex 0.0 1.5 3.5
vertex -0.2577023754337315 0.9617583583498677 3.9999999999999996
vertex -3.524958103184872e-16 0.9956855197099235 3.9999999999999996
endloop
endfacet
facet normal -0.35203129610981837 0.6097360907165292 0.71013792057386
outer loop
vertex -0.4978427598549622 0.8622889542491049 3.9999999999999996
vertex -0.38822856765378116 1.4488887394336025 3.5
vertex -0.75 1.2990381056766578 3.5
endloop
endfacet
facet normal -0.18222480781069178 0.6800722411489757 0.7101379205738602
outer loop
vertex -0.38822856765378116 1.4488887394336025 3.5
vertex -0.4978427598549622 0.8622889542491049 3.9999999999999996
vertex -0.2577023754337315 0.9617583583498677 3.9999999999999996
endloop
endfacet
facet normal -0.7071067811865475 0.7071067811865477 0.0
outer loop
vertex -1.0606601717798212 1.0606601717798212 3.5
vertex -0.75 1.2990381056766578 0.0
vertex -1.0606601717798212 1.0606601717798212 0.0
endloop
endfacet
facet normal -0.5 0.8660254037844387 0.0
outer loop
vertex -0.75 1.2990381056766578 0.0
vertex -1.0606601717798212 1.0606601717798212 3.5
vertex -0.75 1.2990381056766578 3.5
endloop
endfacet
facet normal -0.5 0.8660254037844387 0.0
outer loop
vertex -0.75 1.2990381056766578 3.5
vertex -0.38822856765378116 1.4488887394336025 0.0
vertex -0.75 1.2990381056766578 0.0
endloop
endfacet
facet normal -0.2588190451025208 0.9659258262890684 0.0
outer loop
vertex -0.38822856765378116 1.4488887394336025 0.0
vertex -0.75 1.2990381056766578 3.5
vertex -0.38822856765378116 1.4488887394336025 3.5
endloop
endfacet
facet normal -0.2588190451025208 0.9659258262890684 0.0
outer loop
vertex -0.38822856765378116 1.4488887394336025 3.5
vertex 0.0 1.5 0.0
vertex -0.38822856765378116 1.4488887394336025 0.0
endloop
endfacet
facet normal 2.2277774739117265e-16 1.0 0.0
outer loop
vertex 0.0 1.5 0.0
vertex -0.38822856765378116 1.4488887394336025 3.5
vertex 0.0 1.5 3.5
endloop
endfacet
facet normal 2.2277774739117265e-16 1.0 0.0
outer loop
vertex 0.0 1.5 3.5
vertex 0.3882285676537824 1.4488887394336019 0.0
vertex 0.0 1.5 0.0
endloop
endfacet
facet normal 0.2588190451025212 0.9659258262890682 0.0
outer loop
vertex 0.3882285676537824 1.4488887394336019 0.0
vertex 0.0 1.5 3.5
vertex 0.3882285676537824 1.4488887394336019 3.5
endloop
endfacet
facet normal 0.5000000000000006 0.8660254037844384 0.0
outer loop
vertex 0.7500000000000008 1.2990381056766576 3.5
vertex 1.0606601717798219 1.060660171779821 0.0
vertex 0.7500000000000008 1.2990381056766576 0.0
endloop
endfacet
facet normal 0.707106781186548 0.7071067811865471 0.0
outer loop
vertex 1.0606601717798219 1.060660171779821 0.0
vertex 0.7500000000000008 1.2990381056766576 3.5
vertex 1.0606601717798219 1.060660171779821 3.5
endloop
endfacet
facet normal 0.2588190451025212 0.9659258262890682 0.0
outer loop
vertex 0.3882285676537824 1.4488887394336019 3.5
vertex 0.7500000000000008 1.2990381056766576 0.0
vertex 0.3882285676537824 1.4488887394336019 0.0
endloop
endfacet
facet normal 0.5000000000000006 0.8660254037844384 0.0
outer loop
vertex 0.7500000000000008 1.2990381056766576 0.0
vertex 0.3882285676537824 1.4488887394336019 3.5
vertex 0.7500000000000008 1.2990381056766576 3.5
endloop
endfacet
facet normal 0.9659258262890682 -0.2588190451025211 1.2490783457156216e-17
outer loop
vertex 1.4488887394336025 -0.3882285676537822 0.0
vertex 1.2990381056766578 -0.7500000000000007 3.5
vertex 1.2990381056766578 -0.7500000000000007 0.0
endloop
endfacet
facet normal 0.8660254037844384 -0.5000000000000006 0.0
outer loop
vertex 1.2990381056766578 -0.7500000000000007 3.5
vertex 1.4488887394336025 -0.3882285676537822 0.0
vertex 1.4488887394336025 -0.3882285676537822 3.5
endloop
endfacet
facet normal 0.707106781186548 0.7071067811865471 0.0
outer loop
vertex 1.0606601717798219 1.060660171779821 0.0
vertex 1.2990381056766587 0.7499999999999988 3.5
vertex 1.2990381056766587 0.7499999999999988 0.0
endloop
endfacet
facet normal 0.8660254037844392 0.4999999999999994 0.0
outer loop
vertex 1.2990381056766587 0.7499999999999988 3.5
vertex 1.0606601717798219 1.060660171779821 0.0
vertex 1.0606601717798219 1.060660171779821 3.5
endloop
endfacet
facet normal -0.5000000000000003 -0.8660254037844387 0.0
outer loop
vertex -0.7500000000000006 -1.2990381056766578 3.5
vertex -1.0606601717798214 -1.0606601717798212 0.0
vertex -0.7500000000000006 -1.2990381056766578 0.0
endloop
endfacet
facet normal -0.707106781186548 -0.7071067811865471 0.0
outer loop
vertex -1.0606601717798214 -1.0606601717798212 0.0
vertex -0.7500000000000006 -1.2990381056766578 3.5
vertex -1.0606601717798214 -1.0606601717798212 3.5
endloop
endfacet
facet normal -0.8660254037844387 -0.4999999999999999 0.0
outer loop
vertex -1.299038105676658 -0.7499999999999996 3.5
vertex -1.0606601717798214 -1.0606601717798212 0.0
vertex -1.0606601717798214 -1.0606601717798212 3.5
endloop
endfacet
facet normal -0.707106781186548 -0.7071067811865471 0.0
outer loop
vertex -1.0606601717798214 -1.0606601717798212 0.0
vertex -1.299038105676658 -0.7499999999999996 3.5
vertex -1.299038105676658 -0.7499999999999996 0.0
endloop
endfacet
facet normal -0.9659258262890684 -0.25881904510252085 0.0
outer loop
vertex -1.4488887394336025 -0.388228567653781 3.5
vertex -1.299038105676658 -0.7499999999999996 0.0
vertex -1.299038105676658 -0.7499999999999996 3.5
endloop
endfacet
facet normal -0.8660254037844387 -0.4999999999999999 0.0
outer loop
vertex -1.299038105676658 -0.7499999999999996 0.0
vertex -1.4488887394336025 -0.388228567653781 3.5
vertex -1.4488887394336025 -0.388228567653781 0.0
endloop
endfacet
facet normal -1.0 1.8713330780858502e-16 0.0
outer loop
vertex -1.5 1.762479051592436e-16 3.5
vertex -1.4488887394336025 -0.388228567653781 0.0
vertex -1.4488887394336025 -0.388228567653781 3.5
endloop
endfacet
facet normal -0.9659258262890684 -0.25881904510252085 0.0
outer loop
vertex -1.4488887394336025 -0.388228567653781 0.0
vertex -1.5 1.762479051592436e-16 3.5
vertex -1.5 1.762479051592436e-16 0.0
endloop
endfacet
facet normal -0.9659258262890682 0.258819045102521 0.0
outer loop
vertex -1.4488887394336025 0.3882285676537815 3.5
vertex -1.5 1.762479051592436e-16 0.0
vertex -1.5 1.762479051592436e-16 3.5
endloop
endfacet
facet normal -1.0 1.8713330780858502e-16 0.0
outer loop
vertex -1.5 1.762479051592436e-16 0.0
vertex -1.4488887394336025 0.3882285676537815 3.5
vertex -1.4488887394336025 0.3882285676537815 0.0
endloop
endfacet
facet normal -0.8660254037844386 0.5000000000000001 0.0
outer loop
vertex -1.2990381056766578 0.7500000000000002 3.5
vertex -1.4488887394336025 0.3882285676537815 0.0
vertex -1.4488887394336025 0.3882285676537815 3.5
endloop
endfacet
facet normal -0.9659258262890682 0.258819045102521 0.0
outer loop
vertex -1.4488887394336025 0.3882285676537815 0.0
vertex -1.2990381056766578 0.7500000000000002 3.5
vertex -1.2990381056766578 0.7500000000000002 0.0
endloop
endfacet
facet normal -0.7071067811865475 0.7071067811865477 0.0
outer loop
vertex -1.0606601717798212 1.0606601717798212 3.5
vertex -1.2990381056766578 0.7500000000000002 0.0
vertex -1.2990381056766578 0.7500000000000002 3.5
endloop
endfacet
facet normal -0.8660254037844386 0.5000000000000001 0.0
outer loop
vertex -1.2990381056766578 0.7500000000000002 0.0
vertex -1.0606601717798212 1.0606601717798212 3.5
vertex -1.0606601717798212 1.0606601717798212 0.0
endloop
endfacet
endsolid SL_Bolzen
