solid SL_Bolzenkreuz
facet normal -0.0 -0.0 1.0
outer loop
vertex -0.8066331913185929 -0.8000000000000002 12.0
vertex -3.7999999999999994 0.8000000000000006 12.0
vertex -3.7999999999999994 -0.7999999999999999 12.0
endloop
endfacet
facet normal -0.0 -0.0 1.0
outer loop
vertex -3.7999999999999994 0.8000000000000006 12.0
vertex -0.8066331913185929 -0.8000000000000002 12.0
vertex -0.8066331913185927 0.8000000000000005 12.0
endloop
endfacet
facet normal -0.0 -0.0 1.0
outer loop
vertex 0.7933668086814106 -3.7612473832370967 12.0
vertex -0.8066331913185929 -0.8000000000000002 12.0
vertex -0.8066331913185941 -3.761247383237099 12.0
endloop
endfacet
facet normal -0.0 -0.0 1.0
outer loop
vertex -0.8066331913185929 -0.8000000000000002 12.0
vertex 0.7933668086814106 -3.7612473832370967 12.0
vertex -0.8066331913185927 0.8000000000000005 12.0
endloop
endfacet
facet normal -0.0 -0.0 1.0
outer loop
vertex -0.8066331913185927 0.8000000000000005 12.0
vertex 0.7933668086814106 -3.7612473832370967 12.0
vertex -0.8066331913185913 3.8387526167629025 12.0
endloop
endfacet
facet normal -0.0 -0.0 1.0
outer loop
vertex -0.8066331913185913 3.8387526167629025 12.0
vertex 0.7933668086814106 -3.7612473832370967 12.0
vertex 0.7933668086814089 0.8000000000000012 12.0
endloop
endfacet
facet normal -0.0 -0.0 1.0
outer loop
vertex -0.8066331913185913 3.8387526167629025 12.0
vertex 0.7933668086814089 0.8000000000000012 12.0
vertex 0.7933668086814079 3.8387526167629056 12.0
endloop
endfacet
facet normal -0.0 -0.0 1.0
outer loop
vertex 0.7933668086814089 0.8000000000000012 12.0
vertex 0.7933668086814106 -3.7612473832370967 12.0
vertex 0.7933668086814099 -0.7999999999999998 12.0
endloop
endfacet
facet normal -0.0 -0.0 1.0
outer loop
vertex 0.7933668086814099 -0.7999999999999998 12.0
vertex 3.7999999999999994 0.8000000000000006 12.0
vertex 0.7933668086814089 0.8000000000000012 12.0
endloop
endfacet
facet normal -0.0 -0.0 1.0
outer loop
vertex 3.7999999999999994 0.8000000000000006 12.0
vertex 0.7933668086814099 -0.7999999999999998 12.0
vertex 3.7999999999999994 -0.7999999999999999 12.0
endloop
endfacet
facet normal 0.9998611400395998 2.7995330189792735e-16 0.016664352333993323
outer loop
vertex 0.9933668086814079 4.038752616762905 0.0
vertex 0.7933668086814089 0.8000000000000012 12.0
vertex 0.9933668086814088 1.000000000000001 0.0
endloop
endfacet
facet normal 1.8197877854297788e-16 0.9998611400395998 0.016664352333993333
outer loop
vertex 3.7999999999999994 0.8000000000000006 12.0
vertex 3.9999999999999996 1.0000000000000007 0.0
vertex 0.7933668086814089 0.8000000000000012 12.0
endloop
endfacet
facet normal 1.8847802063379843e-16 0.9998611400395998 0.016664352333993333
outer loop
vertex 0.7933668086814089 0.8000000000000012 12.0
vertex 3.9999999999999996 1.0000000000000007 0.0
vertex 0.9933668086814088 1.000000000000001 0.0
endloop
endfacet
facet normal 0.9998611400395998 2.6799964621961547e-16 0.01666435233399333
outer loop
vertex 0.7933668086814099 -0.7999999999999998 12.0
vertex 0.7933668086814106 -3.7612473832370967 12.0
vertex 0.9933668086814107 -3.9612473832370965 0.0
endloop
endfacet
facet normal 0.9998611400395998 3.081995931525578e-16 0.01666435233399332
outer loop
vertex 0.7933668086814099 -0.7999999999999998 12.0
vertex 0.9933668086814107 -3.9612473832370965 0.0
vertex 0.9933668086814098 -0.9999999999999998 0.0
endloop
endfacet
facet normal -7.79909050898477e-17 -0.9998611400395998 0.016664352333993323
outer loop
vertex 0.7933668086814099 -0.7999999999999998 12.0
vertex 0.9933668086814098 -0.9999999999999998 0.0
vertex 3.9999999999999996 -0.9999999999999999 0.0
endloop
endfacet
facet normal 5.901280271476798e-17 0.9998611400395998 0.016664352333993326
outer loop
vertex -0.8066331913185927 0.8000000000000005 12.0
vertex -1.0066331913185924 1.0000000000000004 0.0
vertex -3.9999999999999996 1.0000000000000007 0.0
endloop
endfacet
facet normal 5.901280271476801e-17 0.9998611400395998 0.01666435233399333
outer loop
vertex -0.8066331913185927 0.8000000000000005 12.0
vertex -3.9999999999999996 1.0000000000000007 0.0
vertex -3.7999999999999994 0.8000000000000006 12.0
endloop
endfacet
facet normal -0.9980987705790307 -0.061634764286295655 1.3977898906398769e-18
outer loop
vertex -1.0066331913185913 4.038752616762903 0.0
vertex -0.8066331913185927 0.8000000000000005 12.0
vertex -1.0066331913185913 4.038752616762903 12.0
endloop
endfacet
facet normal -0.9998611400395998 4.0084222771748754e-16 0.01666435233399332
outer loop
vertex -1.0066331913185913 4.038752616762903 0.0
vertex -1.0066331913185924 1.0000000000000004 0.0
vertex -0.8066331913185927 0.8000000000000005 12.0
endloop
endfacet
facet normal -5.245582463534933e-17 -0.9998611400395998 0.01666435233399333
outer loop
vertex -0.8066331913185929 -0.8000000000000002 12.0
vertex -3.9999999999999996 -0.9999999999999999 0.0
vertex -1.0066331913185929 -1.0 0.0
endloop
endfacet
facet normal -0.9998611400395998 4.28799433951384e-16 0.01666435233399332
outer loop
vertex -0.8066331913185929 -0.8000000000000002 12.0
vertex -1.0066331913185929 -1.0 0.0
vertex -1.0066331913185942 -3.961247383237099 0.0
endloop
endfacet
facet normal -5.901280271476802e-17 -0.9998611400395998 0.01666435233399333
outer loop
vertex -3.7999999999999994 -0.7999999999999999 12.0
vertex -3.9999999999999996 -0.9999999999999999 0.0
vertex -0.8066331913185929 -0.8000000000000002 12.0
endloop
endfacet
facet normal -0.9998611400395998 0.0 0.016664352333993354
outer loop
vertex -3.9999999999999996 1.0000000000000007 0.0
vertex -3.7999999999999994 -0.7999999999999999 12.0
vertex -3.7999999999999994 0.8000000000000006 12.0
endloop
endfacet
facet normal -0.9998611400395998 7.344016134537468e-18 0.01666435233399336
outer loop
vertex -3.9999999999999996 1.0000000000000007 0.0
vertex -3.9999999999999996 -0.9999999999999999 0.0
vertex -3.7999999999999994 -0.7999999999999999 12.0
endloop
endfacet
facet normal -0.9998611400395998 4.287994339513841e-16 0.01666435233399332
outer loop
vertex -0.8066331913185929 -0.8000000000000002 12.0
vertex -1.0066331913185942 -3.961247383237099 0.0
vertex -0.8066331913185941 -3.761247383237099 12.0
endloop
endfacet
facet normal 1.3953630655621126e-15 -0.9998611400395998 0.016664352333993326
outer loop
vertex -0.8066331913185941 -3.761247383237099 12.0
vertex -1.0066331913185942 -3.961247383237099 0.0
vertex 0.9933668086814107 -3.9612473832370965 0.0
endloop
endfacet
facet normal 1.3311029243849087e-15 -0.9998611400395998 0.01666435233399332
outer loop
vertex -0.8066331913185941 -3.761247383237099 12.0
vertex 0.9933668086814107 -3.9612473832370965 0.0
vertex 0.7933668086814106 -3.7612473832370967 12.0
endloop
endfacet
facet normal 0.9998611400395998 -7.344016134537467e-18 0.016664352333993358
outer loop
vertex 3.9999999999999996 1.0000000000000007 0.0
vertex 3.7999999999999994 -0.7999999999999999 12.0
vertex 3.9999999999999996 -0.9999999999999999 0.0
endloop
endfacet
facet normal 0.9998611400395998 -0.0 0.016664352333993354
outer loop
vertex 3.9999999999999996 1.0000000000000007 0.0
vertex 3.7999999999999994 0.8000000000000006 12.0
vertex 3.7999999999999994 -0.7999999999999999 12.0
endloop
endfacet
facet normal -5.84931788173858e-17 -0.9998611400395998 0.01666435233399333
outer loop
vertex 0.7933668086814099 -0.7999999999999998 12.0
vertex 3.9999999999999996 -0.9999999999999999 0.0
vertex 3.7999999999999994 -0.7999999999999999 12.0
endloop
endfacet
facet normal -1.3880190494275832e-15 0.9998611400395998 0.01666435233399333
outer loop
vertex 0.7933668086814079 3.8387526167629056 12.0
vertex 0.9933668086814079 4.038752616762905 0.0
vertex -1.0066331913185913 4.038752616762903 0.0
endloop
endfacet
facet normal 0.11043152607484527 0.9938837346736191 -4.506241899100937e-18
outer loop
vertex 0.7933668086814079 3.8387526167629056 12.0
vertex -1.0066331913185913 4.038752616762903 0.0
vertex -1.0066331913185913 4.038752616762903 12.0
endloop
endfacet
facet normal 0.9998611400395998 3.2449132719987045e-16 0.016664352333993333
outer loop
vertex 0.9933668086814079 4.038752616762905 0.0
vertex 0.7933668086814079 3.8387526167629056 12.0
vertex 0.7933668086814089 0.8000000000000012 12.0
endloop
endfacet
facet normal 0.0 0.0 -1.0
outer loop
vertex -1.0066331913185924 1.0000000000000004 0.0
vertex -3.9999999999999996 -0.9999999999999999 0.0
vertex -3.9999999999999996 1.0000000000000007 0.0
endloop
endfacet
facet normal 0.0 0.0 -1.0
outer loop
vertex -3.9999999999999996 -0.9999999999999999 0.0
vertex -1.0066331913185924 1.0000000000000004 0.0
vertex -1.0066331913185929 -1.0 0.0
endloop
endfacet
facet normal 0.0 0.0 -1.0
outer loop
vertex 3.9999999999999996 1.0000000000000007 0.0
vertex 0.9933668086814098 -0.9999999999999998 0.0
vertex 0.9933668086814088 1.000000000000001 0.0
endloop
endfacet
facet normal 0.0 0.0 -1.0
outer loop
vertex 0.9933668086814098 -0.9999999999999998 0.0
vertex 3.9999999999999996 1.0000000000000007 0.0
vertex 3.9999999999999996 -0.9999999999999999 0.0
endloop
endfacet
facet normal 0.0 0.0 -1.0
outer loop
vertex -1.0066331913185929 -1.0 0.0
vertex 0.9933668086814107 -3.9612473832370965 0.0
vertex -1.0066331913185942 -3.961247383237099 0.0
endloop
endfacet
facet normal 0.0 0.0 -1.0
outer loop
vertex 0.9933668086814107 -3.9612473832370965 0.0
vertex -1.0066331913185929 -1.0 0.0
vertex -1.0066331913185924 1.0000000000000004 0.0
endloop
endfacet
facet normal 0.0 0.0 -1.0
outer loop
vertex 0.9933668086814107 -3.9612473832370965 0.0
vertex -1.0066331913185924 1.0000000000000004 0.0
vertex -1.0066331913185913 4.038752616762903 0.0
endloop
endfacet
facet normal 0.0 0.0 -1.0
outer loop
vertex 0.9933668086814107 -3.9612473832370965 0.0
vertex -1.0066331913185913 4.038752616762903 0.0
vertex 0.9933668086814088 1.000000000000001 0.0
endloop
endfacet
facet normal 0.0 0.0 -1.0
outer loop
vertex 0.9933668086814088 1.000000000000001 0.0
vertex -1.0066331913185913 4.038752616762903 0.0
vertex 0.9933668086814079 4.038752616762905 0.0
endloop
endfacet
facet normal 0.0 0.0 -1.0
outer loop
vertex 0.9933668086814107 -3.9612473832370965 0.0
vertex 0.9933668086814088 1.000000000000001 0.0
vertex 0.9933668086814098 -0.9999999999999998 0.0
endloop
endfacet
facet normal -0.0 -0.0 1.0
outer loop
vertex -1.0066331913185913 4.038752616762903 12.0
vertex -0.8066331913185913 3.8387526167629025 12.0
vertex 0.7933668086814079 3.8387526167629056 12.0
endloop
endfacet
facet normal -0.0 -0.0 1.0
outer loop
vertex -0.8066331913185913 3.8387526167629025 12.0
vertex -1.0066331913185913 4.038752616762903 12.0
vertex -0.8066331913185927 0.8000000000000005 12.0
endloop
endfacet
endsolid SL_Bolzenkreuz
