solid SL_Gelenk
facet normal -0.965925826289068 0.258819045102521 1.58040774696373e-016
outer loop
vertex 8.99437006149612 15.3882699609465 21.8093909992357
vertex 9.10000000000001 16.1906090007643 1.80939099923566
vertex 8.99437006149612 15.3882699609465 1.80939099923566
endloop
endfacet
facet normal -1.0 1.78222197912938e-016 1.08826513192235e-031
outer loop
vertex 9.10000000000001 16.1906090007643 1.80939099923566
vertex 8.99437006149612 15.3882699609465 21.8093909992357
vertex 9.10000000000001 16.1906090007643 21.8093909992357
endloop
endfacet
facet normal -1.0 1.78222197912938e-016 1.08826513192235e-031
outer loop
vertex 9.10000000000001 16.1906090007643 21.8093909992357
vertex 8.99437006149612 16.9929480405822 1.80939099923566
vertex 9.10000000000001 16.1906090007643 1.80939099923566
endloop
endfacet
facet normal -0.965925826289068 -0.258819045102521 -1.58040774696374e-016
outer loop
vertex 8.99437006149612 16.9929480405822 1.80939099923566
vertex 9.10000000000001 16.1906090007643 21.8093909992357
vertex 8.99437006149612 16.9929480405821 21.8093909992357
endloop
endfacet
facet normal -0.965925826289068 -0.258819045102521 -1.58040774696374e-016
outer loop
vertex 8.99437006149612 16.9929480405821 21.8093909992357
vertex 8.68467875173177 17.7406090007643 1.80939099923566
vertex 8.99437006149612 16.9929480405822 1.80939099923566
endloop
endfacet
facet normal -0.866025403784438 -0.500000000000001 -3.05311331771918e-016
outer loop
vertex 8.68467875173177 17.7406090007643 1.80939099923566
vertex 8.99437006149612 16.9929480405821 21.8093909992357
vertex 8.68467875173177 17.7406090007643 21.8093909992357
endloop
endfacet
facet normal -0.258819045102521 -0.965925826289069 -5.89816200834412e-016
outer loop
vertex 6.80233903981782 19.1849790622605 1.80939099923566
vertex 6.00000000000001 19.2906090007643 21.8093909992357
vertex 6.00000000000001 19.2906090007643 1.80939099923566
endloop
endfacet
facet normal 4.63377714573639e-016 -1.0 -6.10622663543836e-016
outer loop
vertex 6.00000000000001 19.2906090007643 21.8093909992357
vertex 6.80233903981782 19.1849790622605 1.80939099923566
vertex 6.80233903981782 19.1849790622604 21.8093909992357
endloop
endfacet
facet normal 0.258819045102521 -0.965925826289068 -5.89816200834412e-016
outer loop
vertex 5.1976609601822 19.1849790622605 1.80939099923566
vertex 4.45000000000001 18.8752877524961 21.8093909992357
vertex 4.45000000000001 18.8752877524961 1.80939099923566
endloop
endfacet
facet normal 0.5 -0.866025403784439 -5.2881473875548e-016
outer loop
vertex 4.45000000000001 18.8752877524961 21.8093909992357
vertex 5.1976609601822 19.1849790622605 1.80939099923566
vertex 5.1976609601822 19.1849790622604 21.8093909992357
endloop
endfacet
facet normal 1.28695265800614e-016 -6.35642618246219e-016 1.0
outer loop
vertex 0.803847547491057 19.1906089491452 21.8093909992357
vertex 6.00000000000001 19.2906090007643 21.8093909992357
vertex 1.75735926546552 20.4332496404684 21.8093909992357
endloop
endfacet
facet normal 1.28695265800614e-016 -6.35642618246219e-016 1.0
outer loop
vertex 6.00000000000001 19.2906090007643 21.8093909992357
vertex 0.803847547491057 19.1906089491452 21.8093909992357
vertex 5.1976609601822 19.1849790622604 21.8093909992357
endloop
endfacet
facet normal 1.28695265800614e-016 -6.35642618246219e-016 1.0
outer loop
vertex 5.1976609601822 19.1849790622604 21.8093909992357
vertex 0.803847547491057 19.1906089491452 21.8093909992357
vertex 0.204445028767136 17.7435232210025 21.8093909992357
endloop
endfacet
facet normal 1.28695265800614e-016 -6.35642618246219e-016 1.0
outer loop
vertex 5.1976609601822 19.1849790622604 21.8093909992357
vertex 0.204445028767136 17.7435232210025 21.8093909992357
vertex 4.45000000000001 18.8752877524961 21.8093909992357
endloop
endfacet
facet normal 1.28695265800614e-016 -6.35642618246219e-016 1.0
outer loop
vertex 4.45000000000001 18.8752877524961 21.8093909992357
vertex 0.204445028767136 17.7435232210025 21.8093909992357
vertex 3.80796897832171 18.3826400224426 21.8093909992357
endloop
endfacet
facet normal 1.28695265800614e-016 -6.35642618246219e-016 1.0
outer loop
vertex 3.80796897832171 18.3826400224426 21.8093909992357
vertex 0.204445028767136 17.7435232210025 21.8093909992357
vertex 3.31532124826825 17.7406090007643 21.8093909992357
endloop
endfacet
facet normal 1.28695265800614e-016 -6.35642618246219e-016 1.0
outer loop
vertex 3.31532124826825 17.7406090007643 21.8093909992357
vertex 0.204445028767136 17.7435232210025 21.8093909992357
vertex 1.11138534595605e-014 16.1906089560608 21.8093909992357
endloop
endfacet
facet normal 1.28695265800614e-016 -6.35642618246219e-016 1.0
outer loop
vertex 3.31532124826825 17.7406090007643 21.8093909992357
vertex 1.11138534595605e-014 16.1906089560608 21.8093909992357
vertex 3.0056299385039 16.9929480405821 21.8093909992357
endloop
endfacet
facet normal 1.28695265800614e-016 -6.35642618246219e-016 1.0
outer loop
vertex 3.0056299385039 16.9929480405821 21.8093909992357
vertex 1.11138534595605e-014 16.1906089560608 21.8093909992357
vertex 2.90000000000001 16.1906090007643 21.8093909992357
endloop
endfacet
facet normal 1.28695265800614e-016 -6.35642618246219e-016 1.0
outer loop
vertex 2.90000000000001 16.1906090007643 21.8093909992357
vertex 1.11138534595605e-014 16.1906089560608 21.8093909992357
vertex 3.0056299385039 15.3882699609465 21.8093909992357
endloop
endfacet
facet normal 1.28695265800614e-016 -6.35642618246219e-016 1.0
outer loop
vertex 3.0056299385039 15.3882699609465 21.8093909992357
vertex 1.11138534595605e-014 16.1906089560608 21.8093909992357
vertex 0.204445051907362 14.6376946941657 21.8093909992357
endloop
endfacet
facet normal 1.28695265800614e-016 -6.35642618246219e-016 1.0
outer loop
vertex 3.0056299385039 15.3882699609465 21.8093909992357
vertex 0.204445051907362 14.6376946941657 21.8093909992357
vertex 3.31532124826825 14.6406090007643 21.8093909992357
endloop
endfacet
facet normal 1.28695265800614e-016 -6.35642618246219e-016 1.0
outer loop
vertex 3.31532124826825 14.6406090007643 21.8093909992357
vertex 0.204445051907362 14.6376946941657 21.8093909992357
vertex 3.80796897832172 13.998577979086 21.8093909992357
endloop
endfacet
facet normal 1.28695265800614e-016 -6.35642618246219e-016 1.0
outer loop
vertex 3.80796897832172 13.998577979086 21.8093909992357
vertex 0.204445051907362 14.6376946941657 21.8093909992357
vertex 0.80384759219454 13.1906089749548 21.8093909992357
endloop
endfacet
facet normal 1.28695265800614e-016 -6.35642618246219e-016 1.0
outer loop
vertex 3.80796897832172 13.998577979086 21.8093909992357
vertex 0.80384759219454 13.1906089749548 21.8093909992357
vertex 4.45000000000001 13.5059302490326 21.8093909992357
endloop
endfacet
facet normal 1.28695265800614e-016 -6.35642618246219e-016 1.0
outer loop
vertex 4.45000000000001 13.5059302490326 21.8093909992357
vertex 0.80384759219454 13.1906089749548 21.8093909992357
vertex 5.1976609601822 13.1962389392682 21.8093909992357
endloop
endfacet
facet normal 1.28695265800614e-016 -6.35642618246219e-016 1.0
outer loop
vertex 5.1976609601822 13.1962389392682 21.8093909992357
vertex 0.80384759219454 13.1906089749548 21.8093909992357
vertex 6.00000000000001 13.0906090007643 21.8093909992357
endloop
endfacet
facet normal 1.28695265800614e-016 -6.35642618246219e-016 1.0
outer loop
vertex 6.00000000000001 13.0906090007643 21.8093909992357
vertex 0.80384759219454 13.1906089749548 21.8093909992357
vertex 1.75735932868579 11.94796829784 21.8093909992357
endloop
endfacet
facet normal 1.28695265800614e-016 -6.35642618246219e-016 1.0
outer loop
vertex 8.99437006149612 15.3882699609465 21.8093909992357
vertex 11.5017302292033 16.1906090007643 21.8093909992357
vertex 9.10000000000001 16.1906090007643 21.8093909992357
endloop
endfacet
facet normal 1.28695265800614e-016 -6.35642618246219e-016 1.0
outer loop
vertex 11.5017302292033 16.1906090007643 21.8093909992357
vertex 8.99437006149612 15.3882699609465 21.8093909992357
vertex 11.5017302292033 10.1906090007643 21.8093909992357
endloop
endfacet
facet normal 1.28695265800614e-016 -6.35642618246219e-016 1.0
outer loop
vertex 11.5017302292033 10.1906090007643 21.8093909992357
vertex 8.99437006149612 15.3882699609465 21.8093909992357
vertex 8.68467875173177 14.6406090007643 21.8093909992357
endloop
endfacet
facet normal 1.28695265800614e-016 -6.35642618246219e-016 1.0
outer loop
vertex 11.5017302292033 10.1906090007643 21.8093909992357
vertex 8.68467875173177 14.6406090007643 21.8093909992357
vertex 8.19203102167831 13.998577979086 21.8093909992357
endloop
endfacet
facet normal 1.28695265800614e-016 -6.35642618246219e-016 1.0
outer loop
vertex 11.5017302292033 10.1906090007643 21.8093909992357
vertex 8.19203102167831 13.998577979086 21.8093909992357
vertex 7.55000000000001 13.5059302490326 21.8093909992357
endloop
endfacet
facet normal 1.28695265800614e-016 -6.35642618246219e-016 1.0
outer loop
vertex 11.5017302292033 10.1906090007643 21.8093909992357
vertex 7.55000000000001 13.5059302490326 21.8093909992357
vertex 6.80233903981783 13.1962389392682 21.8093909992357
endloop
endfacet
facet normal 1.28695265800614e-016 -6.35642618246219e-016 1.0
outer loop
vertex 11.5017302292033 10.1906090007643 21.8093909992357
vertex 6.80233903981783 13.1962389392682 21.8093909992357
vertex 6.00000000000001 13.0906090007643 21.8093909992357
endloop
endfacet
facet normal 1.28695265800614e-016 -6.35642618246219e-016 1.0
outer loop
vertex 11.5017302292033 10.1906090007643 21.8093909992357
vertex 6.00000000000001 13.0906090007643 21.8093909992357
vertex 1.75735932868579 11.94796829784 21.8093909992357
endloop
endfacet
facet normal 1.28695265800614e-016 -6.35642618246219e-016 1.0
outer loop
vertex 11.5017302292033 10.1906090007643 21.8093909992357
vertex 1.75735932868579 11.94796829784 21.8093909992357
vertex 3.0000000129048 10.9944565706071 21.8093909992357
endloop
endfacet
facet normal 1.28695265800614e-016 -6.35642618246219e-016 1.0
outer loop
vertex 11.5017302292033 10.1906090007643 21.8093909992357
vertex 3.0000000129048 10.9944565706071 21.8093909992357
vertex 4.4470857365816 10.3950540411016 21.8093909992357
endloop
endfacet
facet normal 1.28695265800614e-016 -6.35642618246219e-016 1.0
outer loop
vertex 11.5017302292033 10.1906090007643 21.8093909992357
vertex 4.4470857365816 10.3950540411016 21.8093909992357
vertex 6.00000000000001 10.1906090007643 21.8093909992357
endloop
endfacet
facet normal 1.28695265800614e-016 -6.35642618246219e-016 1.0
outer loop
vertex 5.99999991059304 22.1906090007643 21.8093909992357
vertex 22.0 16.1906090007643 21.8093909992357
vertex 22.0 22.1906090007643 21.8093909992357
endloop
endfacet
facet normal 1.28695265800614e-016 -6.35642618246219e-016 1.0
outer loop
vertex 22.0 16.1906090007643 21.8093909992357
vertex 5.99999991059304 22.1906090007643 21.8093909992357
vertex 4.4470856502211 21.9861639372869 21.8093909992357
endloop
endfacet
facet normal 1.28695265800614e-016 -6.35642618246219e-016 1.0
outer loop
vertex 22.0 16.1906090007643 21.8093909992357
vertex 4.4470856502211 21.9861639372869 21.8093909992357
vertex 2.99999993547609 21.3867613862181 21.8093909992357
endloop
endfacet
facet normal 1.28695265800614e-016 -6.35642618246219e-016 1.0
outer loop
vertex 22.0 16.1906090007643 21.8093909992357
vertex 2.99999993547609 21.3867613862181 21.8093909992357
vertex 1.75735926546552 20.4332496404684 21.8093909992357
endloop
endfacet
facet normal 1.28695265800614e-016 -6.35642618246219e-016 1.0
outer loop
vertex 22.0 16.1906090007643 21.8093909992357
vertex 1.75735926546552 20.4332496404684 21.8093909992357
vertex 6.80233903981782 19.1849790622604 21.8093909992357
endloop
endfacet
facet normal 1.28695265800614e-016 -6.35642618246219e-016 1.0
outer loop
vertex 6.80233903981782 19.1849790622604 21.8093909992357
vertex 1.75735926546552 20.4332496404684 21.8093909992357
vertex 6.00000000000001 19.2906090007643 21.8093909992357
endloop
endfacet
facet normal 1.28695265800614e-016 -6.35642618246219e-016 1.0
outer loop
vertex 22.0 16.1906090007643 21.8093909992357
vertex 6.80233903981782 19.1849790622604 21.8093909992357
vertex 7.55000000000001 18.8752877524961 21.8093909992357
endloop
endfacet
facet normal 1.28695265800614e-016 -6.35642618246219e-016 1.0
outer loop
vertex 22.0 16.1906090007643 21.8093909992357
vertex 7.55000000000001 18.8752877524961 21.8093909992357
vertex 8.19203102167831 18.3826400224426 21.8093909992357
endloop
endfacet
facet normal 1.28695265800614e-016 -6.35642618246219e-016 1.0
outer loop
vertex 22.0 16.1906090007643 21.8093909992357
vertex 8.19203102167831 18.3826400224426 21.8093909992357
vertex 8.68467875173177 17.7406090007643 21.8093909992357
endloop
endfacet
facet normal 1.28695265800614e-016 -6.35642618246219e-016 1.0
outer loop
vertex 22.0 16.1906090007643 21.8093909992357
vertex 8.68467875173177 17.7406090007643 21.8093909992357
vertex 8.99437006149612 16.9929480405821 21.8093909992357
endloop
endfacet
facet normal 1.28695265800614e-016 -6.35642618246219e-016 1.0
outer loop
vertex 22.0 16.1906090007643 21.8093909992357
vertex 8.99437006149612 16.9929480405821 21.8093909992357
vertex 9.10000000000001 16.1906090007643 21.8093909992357
endloop
endfacet
facet normal 1.28695265800614e-016 -6.35642618246219e-016 1.0
outer loop
vertex 22.0 16.1906090007643 21.8093909992357
vertex 9.10000000000001 16.1906090007643 21.8093909992357
vertex 11.5017302292033 16.1906090007643 21.8093909992357
endloop
endfacet
facet normal -0.707106781186547 -0.707106781186548 -4.31775426138038e-016
outer loop
vertex 8.19203102167831 18.3826400224426 1.80939099923566
vertex 7.55000000000001 18.8752877524961 21.8093909992357
vertex 7.55000000000001 18.8752877524961 1.80939099923566
endloop
endfacet
facet normal -0.499999999999999 -0.866025403784439 -5.2881473875548e-016
outer loop
vertex 7.55000000000001 18.8752877524961 21.8093909992357
vertex 8.19203102167831 18.3826400224426 1.80939099923566
vertex 8.19203102167831 18.3826400224426 21.8093909992357
endloop
endfacet
facet normal -0.866025403784438 -0.500000000000001 -3.05311331771918e-016
outer loop
vertex 8.68467875173177 17.7406090007643 21.8093909992357
vertex 8.19203102167831 18.3826400224426 1.80939099923566
vertex 8.68467875173177 17.7406090007643 1.80939099923566
endloop
endfacet
facet normal -0.707106781186547 -0.707106781186548 -4.31775426138038e-016
outer loop
vertex 8.19203102167831 18.3826400224426 1.80939099923566
vertex 8.68467875173177 17.7406090007643 21.8093909992357
vertex 8.19203102167831 18.3826400224426 21.8093909992357
endloop
endfacet
facet normal 4.63377714573639e-016 -1.0 -6.10622663543836e-016
outer loop
vertex 6.00000000000001 19.2906090007643 1.80939099923566
vertex 5.1976609601822 19.1849790622604 21.8093909992357
vertex 5.1976609601822 19.1849790622605 1.80939099923566
endloop
endfacet
facet normal 0.258819045102521 -0.965925826289068 -5.89816200834412e-016
outer loop
vertex 5.1976609601822 19.1849790622604 21.8093909992357
vertex 6.00000000000001 19.2906090007643 1.80939099923566
vertex 6.00000000000001 19.2906090007643 21.8093909992357
endloop
endfacet
facet normal 0.707106781186548 -0.707106781186547 -4.31775426138038e-016
outer loop
vertex 3.80796897832171 18.3826400224426 21.8093909992357
vertex 3.31532124826825 17.7406090007643 1.80939099923566
vertex 3.80796897832171 18.3826400224426 1.80939099923566
endloop
endfacet
facet normal 0.866025403784439 -0.5 -3.05311331771918e-016
outer loop
vertex 3.31532124826825 17.7406090007643 1.80939099923566
vertex 3.80796897832171 18.3826400224426 21.8093909992357
vertex 3.31532124826825 17.7406090007643 21.8093909992357
endloop
endfacet
facet normal 0.5 -0.866025403784439 -5.2881473875548e-016
outer loop
vertex 4.45000000000001 18.8752877524961 1.80939099923566
vertex 3.80796897832171 18.3826400224426 21.8093909992357
vertex 3.80796897832171 18.3826400224426 1.80939099923566
endloop
endfacet
facet normal 0.707106781186548 -0.707106781186547 -4.31775426138038e-016
outer loop
vertex 3.80796897832171 18.3826400224426 21.8093909992357
vertex 4.45000000000001 18.8752877524961 1.80939099923566
vertex 4.45000000000001 18.8752877524961 21.8093909992357
endloop
endfacet
facet normal -0.499999999999999 -0.866025403784439 -5.2881473875548e-016
outer loop
vertex 7.55000000000001 18.8752877524961 1.80939099923566
vertex 6.80233903981782 19.1849790622604 21.8093909992357
vertex 6.80233903981782 19.1849790622605 1.80939099923566
endloop
endfacet
facet normal -0.258819045102521 -0.965925826289069 -5.89816200834412e-016
outer loop
vertex 6.80233903981782 19.1849790622604 21.8093909992357
vertex 7.55000000000001 18.8752877524961 1.80939099923566
vertex 7.55000000000001 18.8752877524961 21.8093909992357
endloop
endfacet
facet normal -1.0 4.89719309365057e-032 -8.01999890608221e-017
outer loop
vertex 26.0 16.1906090007643 11.8093909992357
vertex 25.8637033051563 22.1906090007643 10.7741148188256
vertex 25.8637033051563 16.1906090007643 10.7741148188256
endloop
endfacet
facet normal -0.965925826289069 -1.58040774696373e-016 0.258819045102519
outer loop
vertex 25.8637033051563 22.1906090007643 10.7741148188256
vertex 26.0 16.1906090007643 11.8093909992357
vertex 26.0 22.1906090007643 11.8093909992357
endloop
endfacet
facet normal -0.965925826289069 1.58040774696373e-016 -0.25881904510252
outer loop
vertex 25.8637033051563 16.1906090007643 12.8446671796457
vertex 26.0 22.1906090007643 11.8093909992357
vertex 26.0 16.1906090007643 11.8093909992357
endloop
endfacet
facet normal -1.0 4.89719309365057e-032 -8.01999890608221e-017
outer loop
vertex 26.0 22.1906090007643 11.8093909992357
vertex 25.8637033051563 16.1906090007643 12.8446671796457
vertex 25.8637033051563 22.1906090007643 12.8446671796457
endloop
endfacet
facet normal 0.866025403784439 -0.5 -3.05311331771918e-016
outer loop
vertex 3.31532124826825 17.7406090007643 21.8093909992357
vertex 3.0056299385039 16.9929480405822 1.80939099923566
vertex 3.31532124826825 17.7406090007643 1.80939099923566
endloop
endfacet
facet normal 0.965925826289068 -0.25881904510252 -1.58040774696373e-016
outer loop
vertex 3.0056299385039 16.9929480405822 1.80939099923566
vertex 3.31532124826825 17.7406090007643 21.8093909992357
vertex 3.0056299385039 16.9929480405821 21.8093909992357
endloop
endfacet
facet normal -0.86602540378444 3.05311331771917e-016 -0.499999999999998
outer loop
vertex 25.4641016151378 16.1906090007643 13.8093909992357
vertex 25.8637033051563 22.1906090007643 12.8446671796457
vertex 25.8637033051563 16.1906090007643 12.8446671796457
endloop
endfacet
facet normal -0.965925826289069 1.58040774696373e-016 -0.25881904510252
outer loop
vertex 25.8637033051563 22.1906090007643 12.8446671796457
vertex 25.4641016151378 16.1906090007643 13.8093909992357
vertex 25.4641016151378 22.1906090007643 13.8093909992357
endloop
endfacet
facet normal -0.707106781186547 4.31775426138038e-016 -0.707106781186548
outer loop
vertex 24.8284271247462 16.1906090007643 14.6378181239819
vertex 25.4641016151378 22.1906090007643 13.8093909992357
vertex 25.4641016151378 16.1906090007643 13.8093909992357
endloop
endfacet
facet normal -0.86602540378444 3.05311331771917e-016 -0.499999999999998
outer loop
vertex 25.4641016151378 22.1906090007643 13.8093909992357
vertex 24.8284271247462 16.1906090007643 14.6378181239819
vertex 24.8284271247462 22.1906090007643 14.6378181239819
endloop
endfacet
facet normal -0.707106781186547 4.31775426138038e-016 -0.707106781186548
outer loop
vertex 24.8284271247462 16.1906090007643 14.6378181239819
vertex 24.0 22.1906090007643 15.2734926143734
vertex 24.8284271247462 22.1906090007643 14.6378181239819
endloop
endfacet
facet normal -0.5 5.2881473875548e-016 -0.866025403784439
outer loop
vertex 24.0 22.1906090007643 15.2734926143734
vertex 24.8284271247462 16.1906090007643 14.6378181239819
vertex 24.0 16.1906090007643 15.2734926143734
endloop
endfacet
facet normal 0.965925826289068 -0.25881904510252 -1.58040774696373e-016
outer loop
vertex 3.0056299385039 16.9929480405821 21.8093909992357
vertex 2.90000000000001 16.1906090007643 1.80939099923566
vertex 3.0056299385039 16.9929480405822 1.80939099923566
endloop
endfacet
facet normal 1.0 4.27733274991051e-016 2.61183631661364e-031
outer loop
vertex 2.90000000000001 16.1906090007643 1.80939099923566
vertex 3.0056299385039 16.9929480405821 21.8093909992357
vertex 2.90000000000001 16.1906090007643 21.8093909992357
endloop
endfacet
facet normal 1.0 4.27733274991051e-016 2.61183631661364e-031
outer loop
vertex 2.90000000000001 16.1906090007643 21.8093909992357
vertex 3.0056299385039 15.3882699609465 1.80939099923566
vertex 2.90000000000001 16.1906090007643 1.80939099923566
endloop
endfacet
facet normal 0.965925826289068 0.258819045102521 1.58040774696374e-016
outer loop
vertex 3.0056299385039 15.3882699609465 1.80939099923566
vertex 2.90000000000001 16.1906090007643 21.8093909992357
vertex 3.0056299385039 15.3882699609465 21.8093909992357
endloop
endfacet
facet normal 0.965925826289068 0.258819045102521 1.58040774696374e-016
outer loop
vertex 3.0056299385039 15.3882699609465 21.8093909992357
vertex 3.31532124826825 14.6406090007643 1.80939099923566
vertex 3.0056299385039 15.3882699609465 1.80939099923566
endloop
endfacet
facet normal 0.866025403784438 0.500000000000001 3.05311331771918e-016
outer loop
vertex 3.31532124826825 14.6406090007643 1.80939099923566
vertex 3.0056299385039 15.3882699609465 21.8093909992357
vertex 3.31532124826825 14.6406090007643 21.8093909992357
endloop
endfacet
facet normal 0.866025403784438 0.500000000000001 3.05311331771918e-016
outer loop
vertex 3.31532124826825 14.6406090007643 21.8093909992357
vertex 3.80796897832172 13.998577979086 1.80939099923566
vertex 3.31532124826825 14.6406090007643 1.80939099923566
endloop
endfacet
facet normal 0.707106781186547 0.707106781186548 4.31775426138038e-016
outer loop
vertex 3.80796897832172 13.998577979086 1.80939099923566
vertex 3.31532124826825 14.6406090007643 21.8093909992357
vertex 3.80796897832172 13.998577979086 21.8093909992357
endloop
endfacet
facet normal 0.5 0.866025403784439 5.2881473875548e-016
outer loop
vertex 4.45000000000001 13.5059302490326 21.8093909992357
vertex 3.80796897832172 13.998577979086 1.80939099923566
vertex 3.80796897832172 13.998577979086 21.8093909992357
endloop
endfacet
facet normal 0.707106781186547 0.707106781186548 4.31775426138038e-016
outer loop
vertex 3.80796897832172 13.998577979086 1.80939099923566
vertex 4.45000000000001 13.5059302490326 21.8093909992357
vertex 4.45000000000001 13.5059302490326 1.80939099923566
endloop
endfacet
facet normal 0.258819045102521 0.965925826289068 5.89816200834412e-016
outer loop
vertex 5.1976609601822 13.1962389392682 21.8093909992357
vertex 4.45000000000001 13.5059302490326 1.80939099923566
vertex 4.45000000000001 13.5059302490326 21.8093909992357
endloop
endfacet
facet normal 0.5 0.866025403784439 5.2881473875548e-016
outer loop
vertex 4.45000000000001 13.5059302490326 1.80939099923566
vertex 5.1976609601822 13.1962389392682 21.8093909992357
vertex 5.1976609601822 13.1962389392682 1.80939099923566
endloop
endfacet
facet normal 6.23777692695283e-017 1.0 6.10622663543836e-016
outer loop
vertex 6.00000000000001 13.0906090007643 21.8093909992357
vertex 5.1976609601822 13.1962389392682 1.80939099923566
vertex 5.1976609601822 13.1962389392682 21.8093909992357
endloop
endfacet
facet normal 0.258819045102521 0.965925826289068 5.89816200834412e-016
outer loop
vertex 5.1976609601822 13.1962389392682 1.80939099923566
vertex 6.00000000000001 13.0906090007643 21.8093909992357
vertex 6.00000000000001 13.0906090007643 1.80939099923566
endloop
endfacet
facet normal -0.258819045102521 0.965925826289068 5.89816200834412e-016
outer loop
vertex 6.80233903981783 13.1962389392682 21.8093909992357
vertex 6.00000000000001 13.0906090007643 1.80939099923566
vertex 6.00000000000001 13.0906090007643 21.8093909992357
endloop
endfacet
facet normal 6.23777692695283e-017 1.0 6.10622663543836e-016
outer loop
vertex 6.00000000000001 13.0906090007643 1.80939099923566
vertex 6.80233903981783 13.1962389392682 21.8093909992357
vertex 6.80233903981783 13.1962389392682 1.80939099923566
endloop
endfacet
facet normal -0.5 0.866025403784439 5.2881473875548e-016
outer loop
vertex 7.55000000000001 13.5059302490326 21.8093909992357
vertex 6.80233903981783 13.1962389392682 1.80939099923566
vertex 6.80233903981783 13.1962389392682 21.8093909992357
endloop
endfacet
facet normal -0.258819045102521 0.965925826289068 5.89816200834412e-016
outer loop
vertex 6.80233903981783 13.1962389392682 1.80939099923566
vertex 7.55000000000001 13.5059302490326 21.8093909992357
vertex 7.55000000000001 13.5059302490326 1.80939099923566
endloop
endfacet
facet normal -0.707106781186548 0.707106781186548 4.31775426138038e-016
outer loop
vertex 8.19203102167831 13.998577979086 21.8093909992357
vertex 7.55000000000001 13.5059302490326 1.80939099923566
vertex 7.55000000000001 13.5059302490326 21.8093909992357
endloop
endfacet
facet normal -0.5 0.866025403784439 5.2881473875548e-016
outer loop
vertex 7.55000000000001 13.5059302490326 1.80939099923566
vertex 8.19203102167831 13.998577979086 21.8093909992357
vertex 8.19203102167831 13.998577979086 1.80939099923566
endloop
endfacet
facet normal -0.707106781186548 0.707106781186548 4.31775426138038e-016
outer loop
vertex 8.19203102167831 13.998577979086 21.8093909992357
vertex 8.68467875173177 14.6406090007643 1.80939099923566
vertex 8.19203102167831 13.998577979086 1.80939099923566
endloop
endfacet
facet normal -0.866025403784439 0.5 3.05311331771918e-016
outer loop
vertex 8.68467875173177 14.6406090007643 1.80939099923566
vertex 8.19203102167831 13.998577979086 21.8093909992357
vertex 8.68467875173177 14.6406090007643 21.8093909992357
endloop
endfacet
facet normal -0.866025403784439 0.5 3.05311331771918e-016
outer loop
vertex 8.68467875173177 14.6406090007643 21.8093909992357
vertex 8.99437006149612 15.3882699609465 1.80939099923566
vertex 8.68467875173177 14.6406090007643 1.80939099923566
endloop
endfacet
facet normal -0.965925826289068 0.258819045102521 1.58040774696373e-016
outer loop
vertex 8.99437006149612 15.3882699609465 1.80939099923566
vertex 8.68467875173177 14.6406090007643 21.8093909992357
vertex 8.99437006149612 15.3882699609465 21.8093909992357
endloop
endfacet
facet normal -0.707106789089082 0.707106773284013 7.95986470962302e-016
outer loop
vertex 1.75735926546552 20.4332496404684 21.8093909992357
vertex 2.99999993547608 21.3867613862181 1.80939099923567
vertex 1.75735926546551 20.4332496404684 1.80939099923567
endloop
endfacet
facet normal -0.500000010753987 0.866025397575621 7.71482712659483e-016
outer loop
vertex 2.99999993547608 21.3867613862181 1.80939099923567
vertex 1.75735926546552 20.4332496404684 21.8093909992357
vertex 2.99999993547609 21.3867613862181 21.8093909992357
endloop
endfacet
facet normal -0.965925828538813 0.258819036706361 6.86255447251947e-016
outer loop
vertex 0.204445028767136 17.7435232210025 21.8093909992357
vertex 0.803847547491046 19.1906089491452 1.80939099923567
vertex 0.204445028767125 17.7435232210025 1.80939099923567
endloop
endfacet
facet normal -0.866025408751492 0.499999991396811 7.66245067210527e-016
outer loop
vertex 0.803847547491046 19.1906089491452 1.80939099923567
vertex 0.204445028767136 17.7435232210025 21.8093909992357
vertex 0.803847547491057 19.1906089491452 21.8093909992357
endloop
endfacet
facet normal -0.499999997849203 -0.866025405026202 -2.86146773568457e-016
outer loop
vertex 3.00000001290479 10.9944565706071 1.80939099923566
vertex 1.75735932868579 11.94796829784 21.8093909992357
vertex 1.75735932868578 11.94796829784 1.80939099923566
endloop
endfacet
facet normal -0.707106778552369 -0.707106783820726 -6.75643902534066e-017
outer loop
vertex 1.75735932868579 11.94796829784 21.8093909992357
vertex 3.00000001290479 10.9944565706071 1.80939099923566
vertex 3.0000000129048 10.9944565706071 21.8093909992357
endloop
endfacet
facet normal -0.707106778552369 -0.707106783820726 -6.75643902534066e-017
outer loop
vertex 1.75735932868579 11.94796829784 21.8093909992357
vertex 0.803847592194529 13.1906089749548 1.80939099923566
vertex 1.75735932868578 11.94796829784 1.80939099923566
endloop
endfacet
facet normal -0.866025401300912 -0.500000004301595 1.5562239455855e-016
outer loop
vertex 0.803847592194529 13.1906089749548 1.80939099923566
vertex 1.75735932868579 11.94796829784 21.8093909992357
vertex 0.80384759219454 13.1906089749548 21.8093909992357
endloop
endfacet
facet normal -0.965925824682108 -0.258819051099778 3.69905955697322e-016
outer loop
vertex 0.204445051907362 14.6376946941657 21.8093909992357
vertex 0.0 16.1906089560609 1.80939099923566
vertex 0.204445051907351 14.6376946941657 1.80939099923566
endloop
endfacet
facet normal -0.991444860482356 -0.130526198991322 4.69309597843465e-016
outer loop
vertex 0.0 16.1906089560609 1.80939099923566
vertex 0.204445051907362 14.6376946941657 21.8093909992357
vertex 1.11138534595605e-014 16.1906089560608 21.8093909992357
endloop
endfacet
facet normal -0.130526191604482 -0.991444861454852 -6.15548737197697e-016
outer loop
vertex 6.0 10.1906090007643 1.80939099923566
vertex 4.4470857365816 10.3950540411016 21.8093909992357
vertex 4.44708573658159 10.3950540411016 1.80939099923566
endloop
endfacet
facet normal -0.25881904390307 -0.96592582661046 -5.06616460009292e-016
outer loop
vertex 4.4470857365816 10.3950540411016 21.8093909992357
vertex 6.0 10.1906090007643 1.80939099923566
vertex 6.00000000000001 10.1906090007643 21.8093909992357
endloop
endfacet
facet normal -0.25881904390307 -0.96592582661046 -5.06616460009292e-016
outer loop
vertex 4.44708573658159 10.3950540411016 1.80939099923566
vertex 3.0000000129048 10.9944565706071 21.8093909992357
vertex 3.00000001290479 10.9944565706071 1.80939099923566
endloop
endfacet
facet normal -0.499999997849203 -0.866025405026202 -2.86146773568456e-016
outer loop
vertex 3.0000000129048 10.9944565706071 21.8093909992357
vertex 4.44708573658159 10.3950540411016 1.80939099923566
vertex 4.4470857365816 10.3950540411016 21.8093909992357
endloop
endfacet
facet normal -0.866025401300912 -0.500000004301595 1.5562239455855e-016
outer loop
vertex 0.80384759219454 13.1906089749548 21.8093909992357
vertex 0.204445051907351 14.6376946941657 1.80939099923566
vertex 0.803847592194529 13.1906089749548 1.80939099923566
endloop
endfacet
facet normal -0.965925824682108 -0.258819051099778 3.69905955697322e-016
outer loop
vertex 0.204445051907351 14.6376946941657 1.80939099923566
vertex 0.80384759219454 13.1906089749548 21.8093909992357
vertex 0.204445051907362 14.6376946941657 21.8093909992357
endloop
endfacet
facet normal -0.258819058296486 0.965925822753756 6.89740370618712e-016
outer loop
vertex 4.4470856502211 21.9861639372869 21.8093909992357
vertex 5.99999991059303 22.1906090007643 1.80939099923567
vertex 4.44708565022109 21.9861639372869 1.80939099923567
endloop
endfacet
facet normal -0.130526206378161 0.99144485950986 6.284113566851e-016
outer loop
vertex 5.99999991059303 22.1906090007643 1.80939099923567
vertex 4.4470856502211 21.9861639372869 21.8093909992357
vertex 5.99999991059304 22.1906090007643 21.8093909992357
endloop
endfacet
facet normal -0.500000010753987 0.866025397575621 7.71482712659484e-016
outer loop
vertex 2.99999993547609 21.3867613862181 21.8093909992357
vertex 4.44708565022109 21.9861639372869 1.80939099923567
vertex 2.99999993547608 21.3867613862181 1.80939099923567
endloop
endfacet
facet normal -0.258819058296486 0.965925822753756 6.89740370618712e-016
outer loop
vertex 4.44708565022109 21.9861639372869 1.80939099923567
vertex 2.99999993547609 21.3867613862181 21.8093909992357
vertex 4.4470856502211 21.9861639372869 21.8093909992357
endloop
endfacet
facet normal -0.991444862427348 0.130526184217642 6.29245390846676e-016
outer loop
vertex 1.11138534595605e-014 16.1906089560608 21.8093909992357
vertex 0.204445028767125 17.7435232210025 1.80939099923567
vertex 0.0 16.1906089560609 1.80939099923566
endloop
endfacet
facet normal -0.965925828538812 0.258819036706361 6.86255447251947e-016
outer loop
vertex 0.204445028767125 17.7435232210025 1.80939099923567
vertex 1.11138534595605e-014 16.1906089560608 21.8093909992357
vertex 0.204445028767136 17.7435232210025 21.8093909992357
endloop
endfacet
facet normal -0.866025408751492 0.499999991396811 7.66245067210527e-016
outer loop
vertex 0.803847547491057 19.1906089491452 21.8093909992357
vertex 1.75735926546551 20.4332496404684 1.80939099923567
vertex 0.803847547491046 19.1906089491452 1.80939099923567
endloop
endfacet
facet normal -0.707106789089082 0.707106773284013 7.95986470962303e-016
outer loop
vertex 1.75735926546551 20.4332496404684 1.80939099923567
vertex 0.803847547491057 19.1906089491452 21.8093909992357
vertex 1.75735926546552 20.4332496404684 21.8093909992357
endloop
endfacet
facet normal 0.5 -5.2881473875548e-016 0.866025403784439
outer loop
vertex 20.0 16.1906090007643 8.34528938409791
vertex 20.9647238195899 22.1906090007643 7.94568769407939
vertex 20.0 22.1906090007643 8.34528938409791
endloop
endfacet
facet normal 0.258819045102521 -5.89816200834412e-016 0.965925826289068
outer loop
vertex 20.9647238195899 22.1906090007643 7.94568769407939
vertex 20.0 16.1906090007643 8.34528938409791
vertex 20.9647238195899 16.1906090007643 7.94568769407939
endloop
endfacet
facet normal 0.258819045102521 -5.89816200834412e-016 0.965925826289068
outer loop
vertex 24.5881904510252 16.1906090007643 21.4686492621263
vertex 27.0 22.1906090007643 20.46964503708
vertex 24.5881904510252 22.1906090007643 21.4686492621263
endloop
endfacet
facet normal 0.499999999999999 -5.2881473875548e-016 0.866025403784439
outer loop
vertex 27.0 22.1906090007643 20.46964503708
vertex 24.5881904510252 16.1906090007643 21.4686492621263
vertex 27.0 16.1906090007643 20.46964503708
endloop
endfacet
facet normal 0.130526192220052 -6.05398702008925e-016 0.99144486137381
outer loop
vertex 22.0 16.1906090007643 21.8093909992357
vertex 24.5881904510252 22.1906090007643 21.4686492621263
vertex 22.0 22.1906090007643 21.8093909992357
endloop
endfacet
facet normal 0.258819045102521 -5.89816200834412e-016 0.965925826289068
outer loop
vertex 24.5881904510252 22.1906090007643 21.4686492621263
vertex 22.0 16.1906090007643 21.8093909992357
vertex 24.5881904510252 16.1906090007643 21.4686492621263
endloop
endfacet
facet normal 0.258819045102521 -5.89816200834412e-016 0.965925826289068
outer loop
vertex 20.9647238195899 16.1906090007643 7.94568769407939
vertex 22.0 22.1906090007643 7.80939099923566
vertex 20.9647238195899 22.1906090007643 7.94568769407939
endloop
endfacet
facet normal 1.69311088017291e-016 -6.10622663543836e-016 1.0
outer loop
vertex 22.0 22.1906090007643 7.80939099923566
vertex 20.9647238195899 16.1906090007643 7.94568769407939
vertex 22.0 16.1906090007643 7.80939099923566
endloop
endfacet
facet normal -6.61207303794972e-017 1.0 6.08500338047841e-016
outer loop
vertex 5.99999991059304 22.1906090007643 21.8093909992357
vertex 18.1362966948437 22.1906090007643 12.8446671796457
vertex 18.0 22.1906090007643 11.8093909992357
endloop
endfacet
facet normal -6.61207303794972e-017 1.0 6.08500338047841e-016
outer loop
vertex 18.1362966948437 22.1906090007643 12.8446671796457
vertex 5.99999991059304 22.1906090007643 21.8093909992357
vertex 18.5358983848623 22.1906090007643 13.8093909992357
endloop
endfacet
facet normal -6.61207303794972e-017 1.0 6.08500338047841e-016
outer loop
vertex 18.5358983848623 22.1906090007643 13.8093909992357
vertex 5.99999991059304 22.1906090007643 21.8093909992357
vertex 22.0 22.1906090007643 21.8093909992357
endloop
endfacet
facet normal -6.61207303794972e-017 1.0 6.08500338047841e-016
outer loop
vertex 18.5358983848623 22.1906090007643 13.8093909992357
vertex 22.0 22.1906090007643 21.8093909992357
vertex 19.1715728752538 22.1906090007643 14.6378181239819
endloop
endfacet
facet normal -6.61207303794972e-017 1.0 6.08500338047841e-016
outer loop
vertex 19.1715728752538 22.1906090007643 14.6378181239819
vertex 22.0 22.1906090007643 21.8093909992357
vertex 20.0 22.1906090007643 15.2734926143734
endloop
endfacet
facet normal -6.61207303794972e-017 1.0 6.08500338047841e-016
outer loop
vertex 20.0 22.1906090007643 15.2734926143734
vertex 22.0 22.1906090007643 21.8093909992357
vertex 20.9647238195899 22.1906090007643 15.6730943043919
endloop
endfacet
facet normal -6.61207303794972e-017 1.0 6.08500338047841e-016
outer loop
vertex 20.9647238195899 22.1906090007643 15.6730943043919
vertex 22.0 22.1906090007643 21.8093909992357
vertex 22.0 22.1906090007643 15.8093909992357
endloop
endfacet
facet normal -6.61207303794972e-017 1.0 6.08500338047841e-016
outer loop
vertex 22.0 22.1906090007643 15.8093909992357
vertex 22.0 22.1906090007643 21.8093909992357
vertex 24.5881904510252 22.1906090007643 21.4686492621263
endloop
endfacet
facet normal -6.61207303794972e-017 1.0 6.08500338047841e-016
outer loop
vertex 22.0 22.1906090007643 15.8093909992357
vertex 24.5881904510252 22.1906090007643 21.4686492621263
vertex 23.0352761804101 22.1906090007643 15.6730943043919
endloop
endfacet
facet normal -6.61207303794972e-017 1.0 6.08500338047841e-016
outer loop
vertex 23.0352761804101 22.1906090007643 15.6730943043919
vertex 24.5881904510252 22.1906090007643 21.4686492621263
vertex 24.0 22.1906090007643 15.2734926143734
endloop
endfacet
facet normal -6.61207303794972e-017 1.0 6.08500338047841e-016
outer loop
vertex 24.0 22.1906090007643 15.2734926143734
vertex 24.5881904510252 22.1906090007643 21.4686492621263
vertex 24.8284271247462 22.1906090007643 14.6378181239819
endloop
endfacet
facet normal -6.61207303794972e-017 1.0 6.08500338047841e-016
outer loop
vertex 24.8284271247462 22.1906090007643 14.6378181239819
vertex 24.5881904510252 22.1906090007643 21.4686492621263
vertex 27.0 22.1906090007643 20.46964503708
endloop
endfacet
facet normal -6.61207303794972e-017 1.0 6.08500338047841e-016
outer loop
vertex 24.8284271247462 22.1906090007643 14.6378181239819
vertex 27.0 22.1906090007643 20.46964503708
vertex 25.4641016151378 22.1906090007643 13.8093909992357
endloop
endfacet
facet normal -6.61207303794972e-017 1.0 6.08500338047841e-016
outer loop
vertex 25.4641016151378 22.1906090007643 13.8093909992357
vertex 27.0 22.1906090007643 20.46964503708
vertex 25.8637033051563 22.1906090007643 12.8446671796457
endloop
endfacet
facet normal -6.61207303794972e-017 1.0 6.08500338047841e-016
outer loop
vertex 25.8637033051563 22.1906090007643 12.8446671796457
vertex 27.0 22.1906090007643 20.46964503708
vertex 26.0 22.1906090007643 11.8093909992357
endloop
endfacet
facet normal -6.61207303794972e-017 1.0 6.08500338047841e-016
outer loop
vertex 5.99999991059304 22.1906090007643 21.8093909992357
vertex 18.8893510024475 22.1906090007643 1.80939099923566
vertex 5.99999991059303 22.1906090007643 1.80939099923567
endloop
endfacet
facet normal -6.61207303794972e-017 1.0 6.08500338047841e-016
outer loop
vertex 18.8893510024475 22.1906090007643 1.80939099923566
vertex 5.99999991059304 22.1906090007643 21.8093909992357
vertex 18.0 22.1906090007643 11.8093909992357
endloop
endfacet
facet normal -6.61207303794972e-017 1.0 6.08500338047841e-016
outer loop
vertex 18.8893510024475 22.1906090007643 1.80939099923566
vertex 18.0 22.1906090007643 11.8093909992357
vertex 18.1362966948437 22.1906090007643 10.7741148188256
endloop
endfacet
facet normal -6.61207303794972e-017 1.0 6.08500338047841e-016
outer loop
vertex 18.8893510024475 22.1906090007643 1.80939099923566
vertex 18.1362966948437 22.1906090007643 10.7741148188256
vertex 18.5358983848622 22.1906090007643 9.80939099923567
endloop
endfacet
facet normal -6.61207303794972e-017 1.0 6.08500338047841e-016
outer loop
vertex 18.8893510024475 22.1906090007643 1.80939099923566
vertex 18.5358983848622 22.1906090007643 9.80939099923567
vertex 19.1715728752538 22.1906090007643 8.98096387448947
endloop
endfacet
facet normal -6.61207303794972e-017 1.0 6.08500338047841e-016
outer loop
vertex 18.8893510024475 22.1906090007643 1.80939099923566
vertex 19.1715728752538 22.1906090007643 8.98096387448947
vertex 22.0 22.1906090007643 1.80939099923566
endloop
endfacet
facet normal -6.61207303794972e-017 1.0 6.08500338047841e-016
outer loop
vertex 22.0 22.1906090007643 1.80939099923566
vertex 19.1715728752538 22.1906090007643 8.98096387448947
vertex 20.0 22.1906090007643 8.34528938409791
endloop
endfacet
facet normal -6.61207303794972e-017 1.0 6.08500338047841e-016
outer loop
vertex 22.0 22.1906090007643 1.80939099923566
vertex 20.0 22.1906090007643 8.34528938409791
vertex 20.9647238195899 22.1906090007643 7.94568769407939
endloop
endfacet
facet normal -6.61207303794972e-017 1.0 6.08500338047841e-016
outer loop
vertex 22.0 22.1906090007643 1.80939099923566
vertex 20.9647238195899 22.1906090007643 7.94568769407939
vertex 22.0 22.1906090007643 7.80939099923566
endloop
endfacet
facet normal -6.61207303794972e-017 1.0 6.08500338047841e-016
outer loop
vertex 22.0 22.1906090007643 1.80939099923566
vertex 22.0 22.1906090007643 7.80939099923566
vertex 23.0352761804101 22.1906090007643 7.94568769407939
endloop
endfacet
facet normal -6.61207303794972e-017 1.0 6.08500338047841e-016
outer loop
vertex 22.0 22.1906090007643 1.80939099923566
vertex 23.0352761804101 22.1906090007643 7.94568769407939
vertex 24.5881904510252 22.1906090007643 2.15013273634498
endloop
endfacet
facet normal -6.61207303794972e-017 1.0 6.08500338047841e-016
outer loop
vertex 24.5881904510252 22.1906090007643 2.15013273634498
vertex 23.0352761804101 22.1906090007643 7.94568769407939
vertex 24.0 22.1906090007643 8.34528938409791
endloop
endfacet
facet normal -6.61207303794972e-017 1.0 6.08500338047841e-016
outer loop
vertex 24.5881904510252 22.1906090007643 2.15013273634498
vertex 24.0 22.1906090007643 8.34528938409791
vertex 24.8284271247462 22.1906090007643 8.98096387448947
endloop
endfacet
facet normal -6.61207303794972e-017 1.0 6.08500338047841e-016
outer loop
vertex 24.5881904510252 22.1906090007643 2.15013273634498
vertex 24.8284271247462 22.1906090007643 8.98096387448947
vertex 27.0 22.1906090007643 3.14913696139128
endloop
endfacet
facet normal -6.61207303794972e-017 1.0 6.08500338047841e-016
outer loop
vertex 27.0 22.1906090007643 3.14913696139128
vertex 24.8284271247462 22.1906090007643 8.98096387448947
vertex 25.4641016151378 22.1906090007643 9.80939099923566
endloop
endfacet
facet normal -6.61207303794972e-017 1.0 6.08500338047841e-016
outer loop
vertex 27.0 22.1906090007643 3.14913696139128
vertex 25.4641016151378 22.1906090007643 9.80939099923566
vertex 25.8637033051563 22.1906090007643 10.7741148188256
endloop
endfacet
facet normal -6.61207303794972e-017 1.0 6.08500338047841e-016
outer loop
vertex 27.0 22.1906090007643 3.14913696139128
vertex 25.8637033051563 22.1906090007643 10.7741148188256
vertex 26.0 22.1906090007643 11.8093909992357
endloop
endfacet
facet normal -6.61207303794972e-017 1.0 6.08500338047841e-016
outer loop
vertex 27.0 22.1906090007643 3.14913696139128
vertex 26.0 22.1906090007643 11.8093909992357
vertex 27.0 22.1906090007643 20.46964503708
endloop
endfacet
facet normal -6.61207303794972e-017 1.0 6.08500338047841e-016
outer loop
vertex 27.0 22.1906090007643 3.14913696139128
vertex 27.0 22.1906090007643 20.46964503708
vertex 29.0710678118655 22.1906090007643 18.8804588111011
endloop
endfacet
facet normal -6.61207303794972e-017 1.0 6.08500338047841e-016
outer loop
vertex 27.0 22.1906090007643 3.14913696139128
vertex 29.0710678118655 22.1906090007643 18.8804588111011
vertex 29.0710678118655 22.1906090007643 4.73832318737019
endloop
endfacet
facet normal -6.61207303794972e-017 1.0 6.08500338047841e-016
outer loop
vertex 29.0710678118655 22.1906090007643 4.73832318737019
vertex 29.0710678118655 22.1906090007643 18.8804588111011
vertex 30.6602540378444 22.1906090007643 6.80939099923566
endloop
endfacet
facet normal -6.61207303794972e-017 1.0 6.08500338047841e-016
outer loop
vertex 30.6602540378444 22.1906090007643 6.80939099923566
vertex 29.0710678118655 22.1906090007643 18.8804588111011
vertex 30.6602540378444 22.1906090007643 16.8093909992357
endloop
endfacet
facet normal -6.61207303794972e-017 1.0 6.08500338047841e-016
outer loop
vertex 30.6602540378444 22.1906090007643 6.80939099923566
vertex 30.6602540378444 22.1906090007643 16.8093909992357
vertex 31.6592582628907 22.1906090007643 14.3975814502609
endloop
endfacet
facet normal -6.61207303794972e-017 1.0 6.08500338047841e-016
outer loop
vertex 30.6602540378444 22.1906090007643 6.80939099923566
vertex 31.6592582628907 22.1906090007643 14.3975814502609
vertex 31.6592582628907 22.1906090007643 9.22120054821045
endloop
endfacet
facet normal -6.61207303794972e-017 1.0 6.08500338047841e-016
outer loop
vertex 31.6592582628907 22.1906090007643 9.22120054821045
vertex 31.6592582628907 22.1906090007643 14.3975814502609
vertex 32.0 22.1906090007643 11.8093909992357
endloop
endfacet
facet normal 6.03748378556704e-017 6.10622663543836e-016 -1.0
outer loop
vertex 22.0 16.1906090007643 1.80939099923566
vertex 18.8893510024475 22.1906090007643 1.80939099923566
vertex 22.0 22.1906090007643 1.80939099923566
endloop
endfacet
facet normal 6.03748378556704e-017 6.10622663543836e-016 -1.0
outer loop
vertex 18.8893510024475 22.1906090007643 1.80939099923566
vertex 22.0 16.1906090007643 1.80939099923566
vertex 18.8893510024475 16.1906090007643 1.80939099923566
endloop
endfacet
facet normal 0.258819045102521 5.89816200834412e-016 -0.965925826289068
outer loop
vertex 24.5881904510252 16.1906090007643 2.15013273634498
vertex 22.0 22.1906090007643 1.80939099923566
vertex 24.5881904510252 22.1906090007643 2.15013273634498
endloop
endfacet
facet normal 0.130526192220052 6.05398702008925e-016 -0.99144486137381
outer loop
vertex 22.0 22.1906090007643 1.80939099923566
vertex 24.5881904510252 16.1906090007643 2.15013273634498
vertex 22.0 16.1906090007643 1.80939099923566
endloop
endfacet
facet normal 0.0 -1.0 -6.10622663543836e-016
outer loop
vertex 18.8893510024475 16.1906090007643 1.80939099923566
vertex 18.0 16.1906090007643 11.8093909992357
vertex 16.5857928132258 16.1906090007643 2.81292714507271
endloop
endfacet
facet normal 0.0 -1.0 -6.10622663543836e-016
outer loop
vertex 18.0 16.1906090007643 11.8093909992357
vertex 18.8893510024475 16.1906090007643 1.80939099923566
vertex 18.1362966948437 16.1906090007643 10.7741148188256
endloop
endfacet
facet normal 0.0 -1.0 -6.10622663543836e-016
outer loop
vertex 18.1362966948437 16.1906090007643 10.7741148188256
vertex 18.8893510024475 16.1906090007643 1.80939099923566
vertex 18.5358983848622 16.1906090007643 9.80939099923566
endloop
endfacet
facet normal 0.0 -1.0 -6.10622663543836e-016
outer loop
vertex 18.5358983848622 16.1906090007643 9.80939099923566
vertex 18.8893510024475 16.1906090007643 1.80939099923566
vertex 19.1715728752538 16.1906090007643 8.98096387448947
endloop
endfacet
facet normal 0.0 -1.0 -6.10622663543836e-016
outer loop
vertex 19.1715728752538 16.1906090007643 8.98096387448947
vertex 18.8893510024475 16.1906090007643 1.80939099923566
vertex 22.0 16.1906090007643 1.80939099923566
endloop
endfacet
facet normal 0.0 -1.0 -6.10622663543836e-016
outer loop
vertex 19.1715728752538 16.1906090007643 8.98096387448947
vertex 22.0 16.1906090007643 1.80939099923566
vertex 20.0 16.1906090007643 8.34528938409791
endloop
endfacet
facet normal 0.0 -1.0 -6.10622663543836e-016
outer loop
vertex 20.0 16.1906090007643 8.34528938409791
vertex 22.0 16.1906090007643 1.80939099923566
vertex 20.9647238195899 16.1906090007643 7.94568769407939
endloop
endfacet
facet normal 0.0 -1.0 -6.10622663543836e-016
outer loop
vertex 20.9647238195899 16.1906090007643 7.94568769407939
vertex 22.0 16.1906090007643 1.80939099923566
vertex 22.0 16.1906090007643 7.80939099923566
endloop
endfacet
facet normal 0.0 -1.0 -6.10622663543836e-016
outer loop
vertex 22.0 16.1906090007643 7.80939099923566
vertex 22.0 16.1906090007643 1.80939099923566
vertex 24.5881904510252 16.1906090007643 2.15013273634498
endloop
endfacet
facet normal 0.0 -1.0 -6.10622663543836e-016
outer loop
vertex 22.0 16.1906090007643 7.80939099923566
vertex 24.5881904510252 16.1906090007643 2.15013273634498
vertex 23.0352761804101 16.1906090007643 7.94568769407939
endloop
endfacet
facet normal 0.0 -1.0 -6.10622663543836e-016
outer loop
vertex 23.0352761804101 16.1906090007643 7.94568769407939
vertex 24.5881904510252 16.1906090007643 2.15013273634498
vertex 24.0 16.1906090007643 8.3452893840979
endloop
endfacet
facet normal 0.0 -1.0 -6.10622663543836e-016
outer loop
vertex 24.0 16.1906090007643 8.3452893840979
vertex 24.5881904510252 16.1906090007643 2.15013273634498
vertex 24.8284271247462 16.1906090007643 8.98096387448947
endloop
endfacet
facet normal 0.0 -1.0 -6.10622663543836e-016
outer loop
vertex 24.8284271247462 16.1906090007643 8.98096387448947
vertex 24.5881904510252 16.1906090007643 2.15013273634498
vertex 27.0 16.1906090007643 3.14913696139127
endloop
endfacet
facet normal 0.0 -1.0 -6.10622663543836e-016
outer loop
vertex 24.8284271247462 16.1906090007643 8.98096387448947
vertex 27.0 16.1906090007643 3.14913696139127
vertex 25.4641016151378 16.1906090007643 9.80939099923566
endloop
endfacet
facet normal 0.0 -1.0 -6.10622663543836e-016
outer loop
vertex 25.4641016151378 16.1906090007643 9.80939099923566
vertex 27.0 16.1906090007643 3.14913696139127
vertex 25.8637033051563 16.1906090007643 10.7741148188256
endloop
endfacet
facet normal 0.0 -1.0 -6.10622663543836e-016
outer loop
vertex 25.8637033051563 16.1906090007643 10.7741148188256
vertex 27.0 16.1906090007643 3.14913696139127
vertex 26.0 16.1906090007643 11.8093909992357
endloop
endfacet
facet normal 0.0 -1.0 -6.10622663543836e-016
outer loop
vertex 11.8101168381883 16.1906090007643 9.27635299595209
vertex 11.5017302292033 16.1906090007643 21.8093909992357
vertex 11.5017302292033 16.1906090007643 12.0
endloop
endfacet
facet normal 0.0 -1.0 -6.10622663543836e-016
outer loop
vertex 11.5017302292033 16.1906090007643 21.8093909992357
vertex 11.8101168381883 16.1906090007643 9.27635299595209
vertex 22.0 16.1906090007643 21.8093909992357
endloop
endfacet
facet normal 0.0 -1.0 -6.10622663543836e-016
outer loop
vertex 22.0 16.1906090007643 21.8093909992357
vertex 11.8101168381883 16.1906090007643 9.27635299595209
vertex 12.8129271450727 16.1906090007643 6.72532834070728
endloop
endfacet
facet normal 0.0 -1.0 -6.10622663543836e-016
outer loop
vertex 22.0 16.1906090007643 21.8093909992357
vertex 12.8129271450727 16.1906090007643 6.72532834070728
vertex 14.4418212846647 16.1906090007643 4.52077414875295
endloop
endfacet
facet normal 0.0 -1.0 -6.10622663543836e-016
outer loop
vertex 22.0 16.1906090007643 21.8093909992357
vertex 14.4418212846647 16.1906090007643 4.52077414875295
vertex 18.5358983848623 16.1906090007643 13.8093909992357
endloop
endfacet
facet normal 0.0 -1.0 -6.10622663543836e-016
outer loop
vertex 18.5358983848623 16.1906090007643 13.8093909992357
vertex 14.4418212846647 16.1906090007643 4.52077414875295
vertex 18.1362966948437 16.1906090007643 12.8446671796457
endloop
endfacet
facet normal 0.0 -1.0 -6.10622663543836e-016
outer loop
vertex 18.1362966948437 16.1906090007643 12.8446671796457
vertex 14.4418212846647 16.1906090007643 4.52077414875295
vertex 16.5857928132258 16.1906090007643 2.81292714507271
endloop
endfacet
facet normal 0.0 -1.0 -6.10622663543836e-016
outer loop
vertex 18.1362966948437 16.1906090007643 12.8446671796457
vertex 16.5857928132258 16.1906090007643 2.81292714507271
vertex 18.0 16.1906090007643 11.8093909992357
endloop
endfacet
facet normal 0.0 -1.0 -6.10622663543836e-016
outer loop
vertex 22.0 16.1906090007643 21.8093909992357
vertex 18.5358983848623 16.1906090007643 13.8093909992357
vertex 19.1715728752538 16.1906090007643 14.6378181239819
endloop
endfacet
facet normal 0.0 -1.0 -6.10622663543836e-016
outer loop
vertex 22.0 16.1906090007643 21.8093909992357
vertex 19.1715728752538 16.1906090007643 14.6378181239819
vertex 20.0 16.1906090007643 15.2734926143734
endloop
endfacet
facet normal 0.0 -1.0 -6.10622663543836e-016
outer loop
vertex 22.0 16.1906090007643 21.8093909992357
vertex 20.0 16.1906090007643 15.2734926143734
vertex 20.9647238195899 16.1906090007643 15.6730943043919
endloop
endfacet
facet normal 0.0 -1.0 -6.10622663543836e-016
outer loop
vertex 22.0 16.1906090007643 21.8093909992357
vertex 20.9647238195899 16.1906090007643 15.6730943043919
vertex 22.0 16.1906090007643 15.8093909992357
endloop
endfacet
facet normal 0.0 -1.0 -6.10622663543836e-016
outer loop
vertex 22.0 16.1906090007643 21.8093909992357
vertex 22.0 16.1906090007643 15.8093909992357
vertex 24.5881904510252 16.1906090007643 21.4686492621263
endloop
endfacet
facet normal 0.0 -1.0 -6.10622663543836e-016
outer loop
vertex 24.5881904510252 16.1906090007643 21.4686492621263
vertex 22.0 16.1906090007643 15.8093909992357
vertex 23.0352761804101 16.1906090007643 15.6730943043919
endloop
endfacet
facet normal 0.0 -1.0 -6.10622663543836e-016
outer loop
vertex 24.5881904510252 16.1906090007643 21.4686492621263
vertex 23.0352761804101 16.1906090007643 15.6730943043919
vertex 24.0 16.1906090007643 15.2734926143734
endloop
endfacet
facet normal 0.0 -1.0 -6.10622663543836e-016
outer loop
vertex 24.5881904510252 16.1906090007643 21.4686492621263
vertex 24.0 16.1906090007643 15.2734926143734
vertex 24.8284271247462 16.1906090007643 14.6378181239819
endloop
endfacet
facet normal 0.0 -1.0 -6.10622663543836e-016
outer loop
vertex 24.5881904510252 16.1906090007643 21.4686492621263
vertex 24.8284271247462 16.1906090007643 14.6378181239819
vertex 27.0 16.1906090007643 20.46964503708
endloop
endfacet
facet normal 0.0 -1.0 -6.10622663543836e-016
outer loop
vertex 27.0 16.1906090007643 20.46964503708
vertex 24.8284271247462 16.1906090007643 14.6378181239819
vertex 25.4641016151378 16.1906090007643 13.8093909992357
endloop
endfacet
facet normal 0.0 -1.0 -6.10622663543836e-016
outer loop
vertex 27.0 16.1906090007643 20.46964503708
vertex 25.4641016151378 16.1906090007643 13.8093909992357
vertex 25.8637033051563 16.1906090007643 12.8446671796457
endloop
endfacet
facet normal 0.0 -1.0 -6.10622663543836e-016
outer loop
vertex 27.0 16.1906090007643 20.46964503708
vertex 25.8637033051563 16.1906090007643 12.8446671796457
vertex 26.0 16.1906090007643 11.8093909992357
endloop
endfacet
facet normal 0.0 -1.0 -6.10622663543836e-016
outer loop
vertex 27.0 16.1906090007643 20.46964503708
vertex 26.0 16.1906090007643 11.8093909992357
vertex 27.0 16.1906090007643 3.14913696139127
endloop
endfacet
facet normal 0.0 -1.0 -6.10622663543836e-016
outer loop
vertex 27.0 16.1906090007643 20.46964503708
vertex 27.0 16.1906090007643 3.14913696139127
vertex 29.0710678118655 16.1906090007643 4.73832318737018
endloop
endfacet
facet normal 0.0 -1.0 -6.10622663543836e-016
outer loop
vertex 27.0 16.1906090007643 20.46964503708
vertex 29.0710678118655 16.1906090007643 4.73832318737018
vertex 29.0710678118655 16.1906090007643 18.8804588111011
endloop
endfacet
facet normal 0.0 -1.0 -6.10622663543836e-016
outer loop
vertex 29.0710678118655 16.1906090007643 18.8804588111011
vertex 29.0710678118655 16.1906090007643 4.73832318737018
vertex 30.6602540378444 16.1906090007643 6.80939099923566
endloop
endfacet
facet normal 0.0 -1.0 -6.10622663543836e-016
outer loop
vertex 29.0710678118655 16.1906090007643 18.8804588111011
vertex 30.6602540378444 16.1906090007643 6.80939099923566
vertex 30.6602540378444 16.1906090007643 16.8093909992357
endloop
endfacet
facet normal 0.0 -1.0 -6.10622663543836e-016
outer loop
vertex 30.6602540378444 16.1906090007643 16.8093909992357
vertex 30.6602540378444 16.1906090007643 6.80939099923566
vertex 31.6592582628907 16.1906090007643 9.22120054821045
endloop
endfacet
facet normal 0.0 -1.0 -6.10622663543836e-016
outer loop
vertex 30.6602540378444 16.1906090007643 16.8093909992357
vertex 31.6592582628907 16.1906090007643 9.22120054821045
vertex 31.6592582628907 16.1906090007643 14.3975814502609
endloop
endfacet
facet normal 0.0 -1.0 -6.10622663543836e-016
outer loop
vertex 31.6592582628907 16.1906090007643 14.3975814502609
vertex 31.6592582628907 16.1906090007643 9.22120054821045
vertex 32.0 16.1906090007643 11.8093909992357
endloop
endfacet
facet normal 0.866025403784439 3.05311331771918e-016 -0.5
outer loop
vertex 18.5358983848623 22.1906090007643 13.8093909992357
vertex 18.1362966948437 16.1906090007643 12.8446671796457
vertex 18.1362966948437 22.1906090007643 12.8446671796457
endloop
endfacet
facet normal 0.965925826289068 1.58040774696373e-016 -0.258819045102521
outer loop
vertex 18.1362966948437 16.1906090007643 12.8446671796457
vertex 18.5358983848623 22.1906090007643 13.8093909992357
vertex 18.5358983848623 16.1906090007643 13.8093909992357
endloop
endfacet
facet normal 0.965925826289068 1.58040774696373e-016 -0.258819045102521
outer loop
vertex 18.1362966948437 22.1906090007643 12.8446671796457
vertex 18.0 16.1906090007643 11.8093909992357
vertex 18.0 22.1906090007643 11.8093909992357
endloop
endfacet
facet normal 1.0 7.61785592345645e-031 -1.24755538539057e-015
outer loop
vertex 18.0 16.1906090007643 11.8093909992357
vertex 18.1362966948437 22.1906090007643 12.8446671796457
vertex 18.1362966948437 16.1906090007643 12.8446671796457
endloop
endfacet
facet normal 0.5 5.2881473875548e-016 -0.866025403784439
outer loop
vertex 27.0 16.1906090007643 3.14913696139127
vertex 24.5881904510252 22.1906090007643 2.15013273634498
vertex 27.0 22.1906090007643 3.14913696139128
endloop
endfacet
facet normal 0.258819045102521 5.89816200834412e-016 -0.965925826289068
outer loop
vertex 24.5881904510252 22.1906090007643 2.15013273634498
vertex 27.0 16.1906090007643 3.14913696139127
vertex 24.5881904510252 16.1906090007643 2.15013273634498
endloop
endfacet
facet normal 0.866025403784439 -3.05311331771918e-016 0.499999999999999
outer loop
vertex 30.6602540378444 22.1906090007643 16.8093909992357
vertex 31.6592582628907 16.1906090007643 14.3975814502609
vertex 31.6592582628907 22.1906090007643 14.3975814502609
endloop
endfacet
facet normal 0.965925826289068 -1.58040774696373e-016 0.258819045102521
outer loop
vertex 31.6592582628907 16.1906090007643 14.3975814502609
vertex 30.6602540378444 22.1906090007643 16.8093909992357
vertex 30.6602540378444 16.1906090007643 16.8093909992357
endloop
endfacet
facet normal -0.5 5.2881473875548e-016 -0.866025403784439
outer loop
vertex 24.0 16.1906090007643 15.2734926143734
vertex 23.0352761804101 22.1906090007643 15.6730943043919
vertex 24.0 22.1906090007643 15.2734926143734
endloop
endfacet
facet normal -0.258819045102521 5.89816200834411e-016 -0.965925826289068
outer loop
vertex 23.0352761804101 22.1906090007643 15.6730943043919
vertex 24.0 16.1906090007643 15.2734926143734
vertex 23.0352761804101 16.1906090007643 15.6730943043919
endloop
endfacet
facet normal -0.258819045102521 5.89816200834411e-016 -0.965925826289068
outer loop
vertex 23.0352761804101 16.1906090007643 15.6730943043919
vertex 22.0 22.1906090007643 15.8093909992357
vertex 23.0352761804101 22.1906090007643 15.6730943043919
endloop
endfacet
facet normal 1.78222197912938e-016 6.10622663543836e-016 -1.0
outer loop
vertex 22.0 22.1906090007643 15.8093909992357
vertex 23.0352761804101 16.1906090007643 15.6730943043919
vertex 22.0 16.1906090007643 15.8093909992357
endloop
endfacet
facet normal -0.866025403784439 -3.05311331771918e-016 0.5
outer loop
vertex 25.4641016151378 16.1906090007643 9.80939099923566
vertex 24.8284271247462 22.1906090007643 8.98096387448947
vertex 24.8284271247462 16.1906090007643 8.98096387448947
endloop
endfacet
facet normal -0.707106781186546 -4.31775426138039e-016 0.707106781186549
outer loop
vertex 24.8284271247462 22.1906090007643 8.98096387448947
vertex 25.4641016151378 16.1906090007643 9.80939099923566
vertex 25.4641016151378 22.1906090007643 9.80939099923566
endloop
endfacet
facet normal 0.707106781186547 -4.31775426138038e-016 0.707106781186548
outer loop
vertex 29.0710678118655 22.1906090007643 18.8804588111011
vertex 30.6602540378444 16.1906090007643 16.8093909992357
vertex 30.6602540378444 22.1906090007643 16.8093909992357
endloop
endfacet
facet normal 0.866025403784439 -3.05311331771918e-016 0.499999999999999
outer loop
vertex 30.6602540378444 16.1906090007643 16.8093909992357
vertex 29.0710678118655 22.1906090007643 18.8804588111011
vertex 29.0710678118655 16.1906090007643 18.8804588111011
endloop
endfacet
facet normal 0.499999999999999 -5.2881473875548e-016 0.866025403784439
outer loop
vertex 27.0 16.1906090007643 20.46964503708
vertex 29.0710678118655 22.1906090007643 18.8804588111011
vertex 27.0 22.1906090007643 20.46964503708
endloop
endfacet
facet normal 0.707106781186547 -4.31775426138038e-016 0.707106781186548
outer loop
vertex 29.0710678118655 22.1906090007643 18.8804588111011
vertex 27.0 16.1906090007643 20.46964503708
vertex 29.0710678118655 16.1906090007643 18.8804588111011
endloop
endfacet
facet normal 0.970465063029684 -1.47307653993127e-016 0.241241707502644
outer loop
vertex 11.8101168381883 16.1906090007643 9.27635299595209
vertex 12.8129271450727 10.1906090007643 6.72532834070728
vertex 12.8129271450727 16.1906090007643 6.72532834070728
endloop
endfacet
facet normal 0.874959319516884 -2.95661317778992e-016 0.484196436573578
outer loop
vertex 12.8129271450727 10.1906090007643 6.72532834070728
vertex 11.8101168381883 16.1906090007643 9.27635299595209
vertex 11.8101168381883 10.1906090007643 9.27635299595209
endloop
endfacet
facet normal -0.5 -5.2881473875548e-016 0.866025403784439
outer loop
vertex 24.0 16.1906090007643 8.3452893840979
vertex 24.8284271247462 22.1906090007643 8.98096387448947
vertex 24.0 22.1906090007643 8.34528938409791
endloop
endfacet
facet normal -0.707106781186546 -4.31775426138039e-016 0.707106781186549
outer loop
vertex 24.8284271247462 22.1906090007643 8.98096387448947
vertex 24.0 16.1906090007643 8.3452893840979
vertex 24.8284271247462 16.1906090007643 8.98096387448947
endloop
endfacet
facet normal -0.965925826289069 -1.58040774696373e-016 0.258819045102519
outer loop
vertex 25.8637033051563 16.1906090007643 10.7741148188256
vertex 25.4641016151378 22.1906090007643 9.80939099923566
vertex 25.4641016151378 16.1906090007643 9.80939099923566
endloop
endfacet
facet normal -0.866025403784439 -3.05311331771918e-016 0.5
outer loop
vertex 25.4641016151378 22.1906090007643 9.80939099923566
vertex 25.8637033051563 16.1906090007643 10.7741148188256
vertex 25.8637033051563 22.1906090007643 10.7741148188256
endloop
endfacet
facet normal 0.707106781186547 4.31775426138038e-016 -0.707106781186548
outer loop
vertex 29.0710678118655 16.1906090007643 4.73832318737018
vertex 27.0 22.1906090007643 3.14913696139128
vertex 29.0710678118655 22.1906090007643 4.73832318737019
endloop
endfacet
facet normal 0.5 5.2881473875548e-016 -0.866025403784439
outer loop
vertex 27.0 22.1906090007643 3.14913696139128
vertex 29.0710678118655 16.1906090007643 4.73832318737018
vertex 27.0 16.1906090007643 3.14913696139127
endloop
endfacet
facet normal 0.993650961368575 -6.8699166401149e-017 0.112506741892683
outer loop
vertex 11.5017302292033 16.1906090007643 12.0
vertex 11.8101168381883 10.1906090007643 9.27635299595209
vertex 11.8101168381883 16.1906090007643 9.27635299595209
endloop
endfacet
facet normal 0.970465063029684 -1.47307653993127e-016 0.241241707502644
outer loop
vertex 11.8101168381883 10.1906090007643 9.27635299595209
vertex 11.5017302292033 16.1906090007643 12.0
vertex 11.5017302292033 10.1906090007643 12.0
endloop
endfacet
facet normal -0.258819045102521 -5.89816200834412e-016 0.965925826289068
outer loop
vertex 23.0352761804101 16.1906090007643 7.94568769407939
vertex 24.0 22.1906090007643 8.34528938409791
vertex 23.0352761804101 22.1906090007643 7.94568769407939
endloop
endfacet
facet normal -0.5 -5.2881473875548e-016 0.866025403784439
outer loop
vertex 24.0 22.1906090007643 8.34528938409791
vertex 23.0352761804101 16.1906090007643 7.94568769407939
vertex 24.0 16.1906090007643 8.3452893840979
endloop
endfacet
facet normal 0.866025403784438 3.05311331771918e-016 -0.500000000000001
outer loop
vertex 30.6602540378444 22.1906090007643 6.80939099923566
vertex 29.0710678118655 16.1906090007643 4.73832318737018
vertex 29.0710678118655 22.1906090007643 4.73832318737019
endloop
endfacet
facet normal 0.707106781186547 4.31775426138038e-016 -0.707106781186548
outer loop
vertex 29.0710678118655 16.1906090007643 4.73832318737018
vertex 30.6602540378444 22.1906090007643 6.80939099923566
vertex 30.6602540378444 16.1906090007643 6.80939099923566
endloop
endfacet
facet normal 1.0 0.0 0.0
outer loop
vertex 11.5017302292033 16.1906090007643 21.8093909992357
vertex 11.5017302292033 10.1906090007643 12.0
vertex 11.5017302292033 16.1906090007643 12.0
endloop
endfacet
facet normal 1.0 0.0 0.0
outer loop
vertex 11.5017302292033 10.1906090007643 12.0
vertex 11.5017302292033 16.1906090007643 21.8093909992357
vertex 11.5017302292033 10.1906090007643 21.8093909992357
endloop
endfacet
facet normal 0.866025403784439 -3.05311331771918e-016 0.5
outer loop
vertex 18.5358983848622 22.1906090007643 9.80939099923567
vertex 19.1715728752538 16.1906090007643 8.98096387448947
vertex 19.1715728752538 22.1906090007643 8.98096387448947
endloop
endfacet
facet normal 0.707106781186548 -4.31775426138038e-016 0.707106781186547
outer loop
vertex 19.1715728752538 16.1906090007643 8.98096387448947
vertex 18.5358983848622 22.1906090007643 9.80939099923567
vertex 18.5358983848622 16.1906090007643 9.80939099923566
endloop
endfacet
facet normal 0.965925826289068 1.58040774696373e-016 -0.258819045102521
outer loop
vertex 31.6592582628907 22.1906090007643 9.22120054821045
vertex 30.6602540378444 16.1906090007643 6.80939099923566
vertex 30.6602540378444 22.1906090007643 6.80939099923566
endloop
endfacet
facet normal 0.866025403784438 3.05311331771918e-016 -0.500000000000001
outer loop
vertex 30.6602540378444 16.1906090007643 6.80939099923566
vertex 31.6592582628907 22.1906090007643 9.22120054821045
vertex 31.6592582628907 16.1906090007643 9.22120054821045
endloop
endfacet
facet normal 1.69311088017291e-016 -6.10622663543836e-016 1.0
outer loop
vertex 22.0 16.1906090007643 7.80939099923566
vertex 23.0352761804101 22.1906090007643 7.94568769407939
vertex 22.0 22.1906090007643 7.80939099923566
endloop
endfacet
facet normal -0.258819045102521 -5.89816200834412e-016 0.965925826289068
outer loop
vertex 23.0352761804101 22.1906090007643 7.94568769407939
vertex 22.0 16.1906090007643 7.80939099923566
vertex 23.0352761804101 16.1906090007643 7.94568769407939
endloop
endfacet
facet normal 1.0165645810392e-016 1.0 6.57985694218817e-016
outer loop
vertex 6.0 10.1906090007643 1.80939099923566
vertex 16.5857928132258 10.1906090007643 2.81292714507271
vertex 18.8893510024475 10.1906090007643 1.80939099923566
endloop
endfacet
facet normal 1.0165645810392e-016 1.0 6.57985694218817e-016
outer loop
vertex 16.5857928132258 10.1906090007643 2.81292714507271
vertex 6.0 10.1906090007643 1.80939099923566
vertex 14.4418212846647 10.1906090007643 4.52077414875295
endloop
endfacet
facet normal 1.0165645810392e-016 1.0 6.57985694218817e-016
outer loop
vertex 14.4418212846647 10.1906090007643 4.52077414875295
vertex 6.0 10.1906090007643 1.80939099923566
vertex 12.8129271450727 10.1906090007643 6.72532834070728
endloop
endfacet
facet normal 1.0165645810392e-016 1.0 6.57985694218817e-016
outer loop
vertex 12.8129271450727 10.1906090007643 6.72532834070728
vertex 6.0 10.1906090007643 1.80939099923566
vertex 6.00000000000001 10.1906090007643 21.8093909992357
endloop
endfacet
facet normal 1.0165645810392e-016 1.0 6.57985694218817e-016
outer loop
vertex 12.8129271450727 10.1906090007643 6.72532834070728
vertex 6.00000000000001 10.1906090007643 21.8093909992357
vertex 11.8101168381883 10.1906090007643 9.27635299595209
endloop
endfacet
facet normal 1.0165645810392e-016 1.0 6.57985694218817e-016
outer loop
vertex 11.8101168381883 10.1906090007643 9.27635299595209
vertex 6.00000000000001 10.1906090007643 21.8093909992357
vertex 11.5017302292033 10.1906090007643 12.0
endloop
endfacet
facet normal 1.0165645810392e-016 1.0 6.57985694218817e-016
outer loop
vertex 11.5017302292033 10.1906090007643 12.0
vertex 6.00000000000001 10.1906090007643 21.8093909992357
vertex 11.5017302292033 10.1906090007643 21.8093909992357
endloop
endfacet
facet normal 1.42980234346615e-016 -7.69579205521032e-016 1.0
outer loop
vertex 0.803847547491046 19.1906089491452 1.80939099923567
vertex 6.00000000000001 19.2906090007643 1.80939099923566
vertex 1.75735926546551 20.4332496404684 1.80939099923567
endloop
endfacet
facet normal 1.42980234346615e-016 -7.69579205521032e-016 1.0
outer loop
vertex 6.00000000000001 19.2906090007643 1.80939099923566
vertex 0.803847547491046 19.1906089491452 1.80939099923567
vertex 5.1976609601822 19.1849790622605 1.80939099923566
endloop
endfacet
facet normal 1.42980234346615e-016 -7.69579205521032e-016 1.0
outer loop
vertex 5.1976609601822 19.1849790622605 1.80939099923566
vertex 0.803847547491046 19.1906089491452 1.80939099923567
vertex 0.204445028767125 17.7435232210025 1.80939099923567
endloop
endfacet
facet normal 1.42980234346615e-016 -7.69579205521032e-016 1.0
outer loop
vertex 5.1976609601822 19.1849790622605 1.80939099923566
vertex 0.204445028767125 17.7435232210025 1.80939099923567
vertex 4.45000000000001 18.8752877524961 1.80939099923566
endloop
endfacet
facet normal 1.42980234346615e-016 -7.69579205521032e-016 1.0
outer loop
vertex 4.45000000000001 18.8752877524961 1.80939099923566
vertex 0.204445028767125 17.7435232210025 1.80939099923567
vertex 3.80796897832171 18.3826400224426 1.80939099923566
endloop
endfacet
facet normal 1.42980234346615e-016 -7.69579205521032e-016 1.0
outer loop
vertex 3.80796897832171 18.3826400224426 1.80939099923566
vertex 0.204445028767125 17.7435232210025 1.80939099923567
vertex 3.31532124826825 17.7406090007643 1.80939099923566
endloop
endfacet
facet normal 1.42980234346615e-016 -7.69579205521032e-016 1.0
outer loop
vertex 3.31532124826825 17.7406090007643 1.80939099923566
vertex 0.204445028767125 17.7435232210025 1.80939099923567
vertex 0.0 16.1906089560609 1.80939099923566
endloop
endfacet
facet normal 1.42980234346615e-016 -7.69579205521032e-016 1.0
outer loop
vertex 3.31532124826825 17.7406090007643 1.80939099923566
vertex 0.0 16.1906089560609 1.80939099923566
vertex 3.0056299385039 16.9929480405822 1.80939099923566
endloop
endfacet
facet normal 1.42980234346615e-016 -7.69579205521032e-016 1.0
outer loop
vertex 3.0056299385039 16.9929480405822 1.80939099923566
vertex 0.0 16.1906089560609 1.80939099923566
vertex 2.90000000000001 16.1906090007643 1.80939099923566
endloop
endfacet
facet normal 1.42980234346615e-016 -7.69579205521032e-016 1.0
outer loop
vertex 2.90000000000001 16.1906090007643 1.80939099923566
vertex 0.0 16.1906089560609 1.80939099923566
vertex 3.0056299385039 15.3882699609465 1.80939099923566
endloop
endfacet
facet normal 1.42980234346615e-016 -7.69579205521032e-016 1.0
outer loop
vertex 3.0056299385039 15.3882699609465 1.80939099923566
vertex 0.0 16.1906089560609 1.80939099923566
vertex 0.204445051907351 14.6376946941657 1.80939099923566
endloop
endfacet
facet normal 1.42980234346615e-016 -7.69579205521032e-016 1.0
outer loop
vertex 3.0056299385039 15.3882699609465 1.80939099923566
vertex 0.204445051907351 14.6376946941657 1.80939099923566
vertex 3.31532124826825 14.6406090007643 1.80939099923566
endloop
endfacet
facet normal 1.42980234346615e-016 -7.69579205521032e-016 1.0
outer loop
vertex 3.31532124826825 14.6406090007643 1.80939099923566
vertex 0.204445051907351 14.6376946941657 1.80939099923566
vertex 3.80796897832172 13.998577979086 1.80939099923566
endloop
endfacet
facet normal 1.42980234346615e-016 -7.69579205521032e-016 1.0
outer loop
vertex 3.80796897832172 13.998577979086 1.80939099923566
vertex 0.204445051907351 14.6376946941657 1.80939099923566
vertex 0.803847592194529 13.1906089749548 1.80939099923566
endloop
endfacet
facet normal 1.42980234346615e-016 -7.69579205521032e-016 1.0
outer loop
vertex 3.80796897832172 13.998577979086 1.80939099923566
vertex 0.803847592194529 13.1906089749548 1.80939099923566
vertex 4.45000000000001 13.5059302490326 1.80939099923566
endloop
endfacet
facet normal 1.42980234346615e-016 -7.69579205521032e-016 1.0
outer loop
vertex 4.45000000000001 13.5059302490326 1.80939099923566
vertex 0.803847592194529 13.1906089749548 1.80939099923566
vertex 5.1976609601822 13.1962389392682 1.80939099923566
endloop
endfacet
facet normal 1.42980234346615e-016 -7.69579205521032e-016 1.0
outer loop
vertex 5.1976609601822 13.1962389392682 1.80939099923566
vertex 0.803847592194529 13.1906089749548 1.80939099923566
vertex 6.00000000000001 13.0906090007643 1.80939099923566
endloop
endfacet
facet normal 1.42980234346615e-016 -7.69579205521032e-016 1.0
outer loop
vertex 6.00000000000001 13.0906090007643 1.80939099923566
vertex 0.803847592194529 13.1906089749548 1.80939099923566
vertex 1.75735932868578 11.94796829784 1.80939099923566
endloop
endfacet
facet normal 1.42980234346615e-016 -7.69579205521032e-016 1.0
outer loop
vertex 5.99999991059303 22.1906090007643 1.80939099923567
vertex 18.8893510024475 16.1906090007643 1.80939099923566
vertex 18.8893510024475 22.1906090007643 1.80939099923566
endloop
endfacet
facet normal 1.42980234346615e-016 -7.69579205521032e-016 1.0
outer loop
vertex 18.8893510024475 16.1906090007643 1.80939099923566
vertex 5.99999991059303 22.1906090007643 1.80939099923567
vertex 4.44708565022109 21.9861639372869 1.80939099923567
endloop
endfacet
facet normal 1.42980234346615e-016 -7.69579205521032e-016 1.0
outer loop
vertex 18.8893510024475 16.1906090007643 1.80939099923566
vertex 4.44708565022109 21.9861639372869 1.80939099923567
vertex 2.99999993547608 21.3867613862181 1.80939099923567
endloop
endfacet
facet normal 1.42980234346615e-016 -7.69579205521032e-016 1.0
outer loop
vertex 18.8893510024475 16.1906090007643 1.80939099923566
vertex 2.99999993547608 21.3867613862181 1.80939099923567
vertex 6.80233903981782 19.1849790622605 1.80939099923566
endloop
endfacet
facet normal 1.42980234346615e-016 -7.69579205521032e-016 1.0
outer loop
vertex 6.80233903981782 19.1849790622605 1.80939099923566
vertex 2.99999993547608 21.3867613862181 1.80939099923567
vertex 1.75735926546551 20.4332496404684 1.80939099923567
endloop
endfacet
facet normal 1.42980234346615e-016 -7.69579205521032e-016 1.0
outer loop
vertex 6.80233903981782 19.1849790622605 1.80939099923566
vertex 1.75735926546551 20.4332496404684 1.80939099923567
vertex 6.00000000000001 19.2906090007643 1.80939099923566
endloop
endfacet
facet normal 1.42980234346615e-016 -7.69579205521032e-016 1.0
outer loop
vertex 18.8893510024475 16.1906090007643 1.80939099923566
vertex 6.80233903981782 19.1849790622605 1.80939099923566
vertex 7.55000000000001 18.8752877524961 1.80939099923566
endloop
endfacet
facet normal 1.42980234346615e-016 -7.69579205521032e-016 1.0
outer loop
vertex 18.8893510024475 16.1906090007643 1.80939099923566
vertex 7.55000000000001 18.8752877524961 1.80939099923566
vertex 8.19203102167831 18.3826400224426 1.80939099923566
endloop
endfacet
facet normal 1.42980234346615e-016 -7.69579205521032e-016 1.0
outer loop
vertex 18.8893510024475 16.1906090007643 1.80939099923566
vertex 8.19203102167831 18.3826400224426 1.80939099923566
vertex 8.68467875173177 17.7406090007643 1.80939099923566
endloop
endfacet
facet normal 1.42980234346615e-016 -7.69579205521032e-016 1.0
outer loop
vertex 18.8893510024475 16.1906090007643 1.80939099923566
vertex 8.68467875173177 17.7406090007643 1.80939099923566
vertex 8.99437006149612 16.9929480405822 1.80939099923566
endloop
endfacet
facet normal 1.42980234346615e-016 -7.69579205521032e-016 1.0
outer loop
vertex 18.8893510024475 16.1906090007643 1.80939099923566
vertex 8.99437006149612 16.9929480405822 1.80939099923566
vertex 9.10000000000001 16.1906090007643 1.80939099923566
endloop
endfacet
facet normal 1.42980234346615e-016 -7.69579205521032e-016 1.0
outer loop
vertex 18.8893510024475 16.1906090007643 1.80939099923566
vertex 9.10000000000001 16.1906090007643 1.80939099923566
vertex 8.99437006149612 15.3882699609465 1.80939099923566
endloop
endfacet
facet normal 1.42980234346615e-016 -7.69579205521032e-016 1.0
outer loop
vertex 18.8893510024475 16.1906090007643 1.80939099923566
vertex 8.99437006149612 15.3882699609465 1.80939099923566
vertex 18.8893510024475 10.1906090007643 1.80939099923566
endloop
endfacet
facet normal 1.42980234346615e-016 -7.69579205521032e-016 1.0
outer loop
vertex 18.8893510024475 10.1906090007643 1.80939099923566
vertex 8.99437006149612 15.3882699609465 1.80939099923566
vertex 8.68467875173177 14.6406090007643 1.80939099923566
endloop
endfacet
facet normal 1.42980234346615e-016 -7.69579205521032e-016 1.0
outer loop
vertex 18.8893510024475 10.1906090007643 1.80939099923566
vertex 8.68467875173177 14.6406090007643 1.80939099923566
vertex 8.19203102167831 13.998577979086 1.80939099923566
endloop
endfacet
facet normal 1.42980234346615e-016 -7.69579205521032e-016 1.0
outer loop
vertex 18.8893510024475 10.1906090007643 1.80939099923566
vertex 8.19203102167831 13.998577979086 1.80939099923566
vertex 7.55000000000001 13.5059302490326 1.80939099923566
endloop
endfacet
facet normal 1.42980234346615e-016 -7.69579205521032e-016 1.0
outer loop
vertex 18.8893510024475 10.1906090007643 1.80939099923566
vertex 7.55000000000001 13.5059302490326 1.80939099923566
vertex 6.80233903981783 13.1962389392682 1.80939099923566
endloop
endfacet
facet normal 1.42980234346615e-016 -7.69579205521032e-016 1.0
outer loop
vertex 18.8893510024475 10.1906090007643 1.80939099923566
vertex 6.80233903981783 13.1962389392682 1.80939099923566
vertex 6.00000000000001 13.0906090007643 1.80939099923566
endloop
endfacet
facet normal 1.42980234346615e-016 -7.69579205521032e-016 1.0
outer loop
vertex 18.8893510024475 10.1906090007643 1.80939099923566
vertex 6.00000000000001 13.0906090007643 1.80939099923566
vertex 1.75735932868578 11.94796829784 1.80939099923566
endloop
endfacet
facet normal 1.42980234346615e-016 -7.69579205521032e-016 1.0
outer loop
vertex 18.8893510024475 10.1906090007643 1.80939099923566
vertex 1.75735932868578 11.94796829784 1.80939099923566
vertex 3.00000001290479 10.9944565706071 1.80939099923566
endloop
endfacet
facet normal 1.42980234346615e-016 -7.69579205521032e-016 1.0
outer loop
vertex 18.8893510024475 10.1906090007643 1.80939099923566
vertex 3.00000001290479 10.9944565706071 1.80939099923566
vertex 4.44708573658159 10.3950540411016 1.80939099923566
endloop
endfacet
facet normal 1.42980234346615e-016 -7.69579205521032e-016 1.0
outer loop
vertex 18.8893510024475 10.1906090007643 1.80939099923566
vertex 4.44708573658159 10.3950540411016 1.80939099923566
vertex 6.0 10.1906090007643 1.80939099923566
endloop
endfacet
facet normal 0.515638779692779 -5.23185207200942e-016 0.856806074253061
outer loop
vertex 16.5857928132258 10.1906090007643 2.81292714507271
vertex 18.8893510024475 16.1906090007643 1.80939099923566
vertex 16.5857928132258 16.1906090007643 2.81292714507271
endloop
endfacet
facet normal 0.399391784108205 -5.59806856750829e-016 0.916780345986358
outer loop
vertex 18.8893510024475 16.1906090007643 1.80939099923566
vertex 16.5857928132258 10.1906090007643 2.81292714507271
vertex 18.8893510024475 10.1906090007643 1.80939099923566
endloop
endfacet
facet normal 0.719826544317651 -4.23866151361648e-016 0.694153978664467
outer loop
vertex 14.4418212846647 10.1906090007643 4.52077414875295
vertex 16.5857928132258 16.1906090007643 2.81292714507271
vertex 14.4418212846647 16.1906090007643 4.52077414875295
endloop
endfacet
facet normal 0.515638779692779 -5.23185207200942e-016 0.856806074253061
outer loop
vertex 16.5857928132258 16.1906090007643 2.81292714507271
vertex 14.4418212846647 10.1906090007643 4.52077414875295
vertex 16.5857928132258 10.1906090007643 2.81292714507271
endloop
endfacet
facet normal 0.965925826289069 -1.58040774696373e-016 0.258819045102519
outer loop
vertex 18.1362966948437 22.1906090007643 10.7741148188256
vertex 18.5358983848622 16.1906090007643 9.80939099923566
vertex 18.5358983848622 22.1906090007643 9.80939099923567
endloop
endfacet
facet normal 0.866025403784439 -3.05311331771918e-016 0.5
outer loop
vertex 18.5358983848622 16.1906090007643 9.80939099923566
vertex 18.1362966948437 22.1906090007643 10.7741148188256
vertex 18.1362966948437 16.1906090007643 10.7741148188256
endloop
endfacet
facet normal 1.0 7.61785592345645e-031 -1.24755538539057e-015
outer loop
vertex 18.0 22.1906090007643 11.8093909992357
vertex 18.1362966948437 16.1906090007643 10.7741148188256
vertex 18.1362966948437 22.1906090007643 10.7741148188256
endloop
endfacet
facet normal 0.965925826289069 -1.58040774696373e-016 0.258819045102519
outer loop
vertex 18.1362966948437 16.1906090007643 10.7741148188256
vertex 18.0 22.1906090007643 11.8093909992357
vertex 18.0 16.1906090007643 11.8093909992357
endloop
endfacet
facet normal 0.25881904510252 5.89816200834412e-016 -0.965925826289068
outer loop
vertex 20.9647238195899 16.1906090007643 15.6730943043919
vertex 20.0 22.1906090007643 15.2734926143734
vertex 20.9647238195899 22.1906090007643 15.6730943043919
endloop
endfacet
facet normal 0.5 5.2881473875548e-016 -0.866025403784439
outer loop
vertex 20.0 22.1906090007643 15.2734926143734
vertex 20.9647238195899 16.1906090007643 15.6730943043919
vertex 20.0 16.1906090007643 15.2734926143734
endloop
endfacet
facet normal 1.0 0.0 0.0
outer loop
vertex 32.0 22.1906090007643 11.8093909992357
vertex 31.6592582628907 16.1906090007643 9.22120054821045
vertex 31.6592582628907 22.1906090007643 9.22120054821045
endloop
endfacet
facet normal 0.965925826289068 1.58040774696373e-016 -0.258819045102521
outer loop
vertex 31.6592582628907 16.1906090007643 9.22120054821045
vertex 32.0 22.1906090007643 11.8093909992357
vertex 32.0 16.1906090007643 11.8093909992357
endloop
endfacet
facet normal 0.874959319516884 -2.95661317778992e-016 0.484196436573578
outer loop
vertex 12.8129271450727 16.1906090007643 6.72532834070728
vertex 14.4418212846647 10.1906090007643 4.52077414875295
vertex 14.4418212846647 16.1906090007643 4.52077414875295
endloop
endfacet
facet normal 0.719826544317651 -4.23866151361648e-016 0.694153978664467
outer loop
vertex 14.4418212846647 10.1906090007643 4.52077414875295
vertex 12.8129271450727 16.1906090007643 6.72532834070728
vertex 12.8129271450727 10.1906090007643 6.72532834070728
endloop
endfacet
facet normal 0.707106781186548 -4.31775426138038e-016 0.707106781186547
outer loop
vertex 19.1715728752538 16.1906090007643 8.98096387448947
vertex 20.0 22.1906090007643 8.34528938409791
vertex 19.1715728752538 22.1906090007643 8.98096387448947
endloop
endfacet
facet normal 0.5 -5.2881473875548e-016 0.866025403784439
outer loop
vertex 20.0 22.1906090007643 8.34528938409791
vertex 19.1715728752538 16.1906090007643 8.98096387448947
vertex 20.0 16.1906090007643 8.34528938409791
endloop
endfacet
facet normal 0.707106781186548 4.31775426138038e-016 -0.707106781186548
outer loop
vertex 19.1715728752538 22.1906090007643 14.6378181239819
vertex 18.5358983848623 16.1906090007643 13.8093909992357
vertex 18.5358983848623 22.1906090007643 13.8093909992357
endloop
endfacet
facet normal 0.866025403784439 3.05311331771918e-016 -0.5
outer loop
vertex 18.5358983848623 16.1906090007643 13.8093909992357
vertex 19.1715728752538 22.1906090007643 14.6378181239819
vertex 19.1715728752538 16.1906090007643 14.6378181239819
endloop
endfacet
facet normal 1.78222197912938e-016 6.10622663543836e-016 -1.0
outer loop
vertex 22.0 16.1906090007643 15.8093909992357
vertex 20.9647238195899 22.1906090007643 15.6730943043919
vertex 22.0 22.1906090007643 15.8093909992357
endloop
endfacet
facet normal 0.25881904510252 5.89816200834412e-016 -0.965925826289068
outer loop
vertex 20.9647238195899 22.1906090007643 15.6730943043919
vertex 22.0 16.1906090007643 15.8093909992357
vertex 20.9647238195899 16.1906090007643 15.6730943043919
endloop
endfacet
facet normal 0.5 5.2881473875548e-016 -0.866025403784439
outer loop
vertex 20.0 16.1906090007643 15.2734926143734
vertex 19.1715728752538 22.1906090007643 14.6378181239819
vertex 20.0 22.1906090007643 15.2734926143734
endloop
endfacet
facet normal 0.707106781186548 4.31775426138038e-016 -0.707106781186548
outer loop
vertex 19.1715728752538 22.1906090007643 14.6378181239819
vertex 20.0 16.1906090007643 15.2734926143734
vertex 19.1715728752538 16.1906090007643 14.6378181239819
endloop
endfacet
facet normal 0.965925826289068 -1.58040774696373e-016 0.258819045102521
outer loop
vertex 31.6592582628907 22.1906090007643 14.3975814502609
vertex 32.0 16.1906090007643 11.8093909992357
vertex 32.0 22.1906090007643 11.8093909992357
endloop
endfacet
facet normal 1.0 0.0 0.0
outer loop
vertex 32.0 16.1906090007643 11.8093909992357
vertex 31.6592582628907 22.1906090007643 14.3975814502609
vertex 31.6592582628907 16.1906090007643 14.3975814502609
endloop
endfacet
endsolid SL_Gelenk
