solid SL_Kabelhalter
facet normal -2.7336327243413186e-16 1.0 0.0
outer loop
vertex 8.850835165171779e-17 3.5000000000000004 -0.49999999999999994
vertex 7.999999999999999 3.500000000000002 0.4999999999999987
vertex 7.999999999999999 3.500000000000002 -0.500000000000001
endloop
endfacet
facet normal -2.7336327243413186e-16 1.0 0.0
outer loop
vertex 7.999999999999999 3.500000000000002 0.4999999999999987
vertex 8.850835165171779e-17 3.5000000000000004 -0.49999999999999994
vertex 8.850835165171779e-17 3.5000000000000004 0.4999999999999998
endloop
endfacet
facet normal -2.8484714821196324e-16 0.7071067811865476 -0.7071067811865475
outer loop
vertex 8.850835165171779e-17 2.500000000000001 -1.4999999999999998
vertex 7.999999999999999 3.500000000000002 -0.500000000000001
vertex 7.999999999999999 2.500000000000002 -1.5000000000000007
endloop
endfacet
facet normal -2.8484714821196324e-16 0.7071067811865476 -0.7071067811865475
outer loop
vertex 7.999999999999999 3.500000000000002 -0.500000000000001
vertex 8.850835165171779e-17 2.500000000000001 -1.4999999999999998
vertex 8.850835165171779e-17 3.5000000000000004 -0.49999999999999994
endloop
endfacet
facet normal -1.2947142777052565e-16 0.0 -1.0
outer loop
vertex 7.999999999999999 2.500000000000002 -1.5000000000000007
vertex 8.850835165171779e-17 -0.5000000000000004 -1.4999999999999998
vertex 8.850835165171779e-17 2.500000000000001 -1.4999999999999998
endloop
endfacet
facet normal -1.2947142777052565e-16 0.0 -1.0
outer loop
vertex 8.850835165171779e-17 -0.5000000000000004 -1.4999999999999998
vertex 7.999999999999999 2.500000000000002 -1.5000000000000007
vertex 7.999999999999999 -0.4999999999999984 -1.5000000000000007
endloop
endfacet
facet normal 1.0174689911907732e-16 -0.7071067811865476 -0.7071067811865475
outer loop
vertex 7.999999999999999 -1.499999999999998 -0.500000000000001
vertex 8.850835165171779e-17 -0.5000000000000004 -1.4999999999999998
vertex 7.999999999999999 -0.4999999999999984 -1.5000000000000007
endloop
endfacet
facet normal 1.0174689911907732e-16 -0.7071067811865476 -0.7071067811865475
outer loop
vertex 8.850835165171779e-17 -0.5000000000000004 -1.4999999999999998
vertex 7.999999999999999 -1.499999999999998 -0.500000000000001
vertex 8.850835165171779e-17 -1.5 -0.49999999999999994
endloop
endfacet
facet normal 2.7336327243413186e-16 -1.0 4.544018087871536e-17
outer loop
vertex 8.0 -1.4999999999999978 3.3786796564403554
vertex 8.850835165171779e-17 -1.5 -0.49999999999999994
vertex 7.999999999999999 -1.499999999999998 -0.500000000000001
endloop
endfacet
facet normal 2.7336327243413186e-16 -1.0 4.544018087871536e-17
outer loop
vertex 8.850835165171779e-17 -1.5 -0.49999999999999994
vertex 8.0 -1.4999999999999978 3.3786796564403554
vertex 1.1948427699736357e-15 -1.5 3.3786796564403563
endloop
endfacet
facet normal 1.0174689911907747e-16 -0.7071067811865479 -0.7071067811865471
outer loop
vertex 8.000000000000002 -2.9999999999999982 4.878679656440358
vertex 1.1948427699736357e-15 -1.5 3.3786796564403563
vertex 8.0 -1.4999999999999978 3.3786796564403554
endloop
endfacet
facet normal 1.0174689911907747e-16 -0.7071067811865479 -0.7071067811865471
outer loop
vertex 1.1948427699736357e-15 -1.5 3.3786796564403563
vertex 8.000000000000002 -2.9999999999999982 4.878679656440358
vertex 2.5056837868086705e-15 -3.0000000000000004 4.878679656440358
endloop
endfacet
facet normal 2.7336327243413186e-16 -1.0 5.034272144209122e-32
outer loop
vertex 8.0 -2.9999999999999982 10.121320343559642
vertex 2.5056837868086705e-15 -3.0000000000000004 4.878679656440358
vertex 8.000000000000002 -2.9999999999999982 4.878679656440358
endloop
endfacet
facet normal 2.7336327243413186e-16 -1.0 5.034272144209122e-32
outer loop
vertex 2.5056837868086705e-15 -3.0000000000000004 4.878679656440358
vertex 8.0 -2.9999999999999982 10.121320343559642
vertex 1.5401963700738026e-15 -3.0000000000000004 10.121320343559644
endloop
endfacet
facet normal 2.8484714821196324e-16 -0.7071067811865476 0.7071067811865476
outer loop
vertex 8.000000000000004 -1.4999999999999982 11.621320343559642
vertex 1.5401963700738026e-15 -3.0000000000000004 10.121320343559644
vertex 8.0 -2.9999999999999982 10.121320343559642
endloop
endfacet
facet normal 2.8484714821196324e-16 -0.7071067811865476 0.7071067811865476
outer loop
vertex 1.5401963700738026e-15 -3.0000000000000004 10.121320343559644
vertex 8.000000000000004 -1.4999999999999982 11.621320343559642
vertex 3.718922110851436e-15 -1.5000000000000004 11.621320343559644
endloop
endfacet
facet normal 2.7336327243413186e-16 -1.0 9.08803617574311e-17
outer loop
vertex 7.999999999999999 -1.499999999999998 15.5
vertex 3.718922110851436e-15 -1.5000000000000004 11.621320343559644
vertex 8.000000000000004 -1.4999999999999982 11.621320343559642
endloop
endfacet
facet normal 2.7336327243413186e-16 -1.0 9.08803617574311e-17
outer loop
vertex 3.718922110851436e-15 -1.5000000000000004 11.621320343559644
vertex 7.999999999999999 -1.499999999999998 15.5
vertex 8.850835165171779e-17 -1.5 15.5
endloop
endfacet
facet normal 2.848471482119633e-16 -0.7071067811865479 0.7071067811865472
outer loop
vertex 7.999999999999999 -0.499999999999998 16.5
vertex 8.850835165171779e-17 -1.5 15.5
vertex 7.999999999999999 -1.499999999999998 15.5
endloop
endfacet
facet normal 2.848471482119633e-16 -0.7071067811865479 0.7071067811865472
outer loop
vertex 8.850835165171779e-17 -1.5 15.5
vertex 7.999999999999999 -0.499999999999998 16.5
vertex 8.850835165171779e-17 -0.5000000000000001 16.5
endloop
endfacet
facet normal 1.2947142777052562e-16 0.0 1.0
outer loop
vertex 7.999999999999999 -0.499999999999998 16.5
vertex 8.850835165171779e-17 2.500000000000001 16.5
vertex 8.850835165171779e-17 -0.5000000000000001 16.5
endloop
endfacet
facet normal 1.2947142777052562e-16 0.0 1.0
outer loop
vertex 8.850835165171779e-17 2.500000000000001 16.5
vertex 7.999999999999999 -0.499999999999998 16.5
vertex 7.999999999999999 2.500000000000002 16.5
endloop
endfacet
facet normal -1.017468991190775e-16 0.707106781186548 0.707106781186547
outer loop
vertex 8.850835165171779e-17 2.500000000000001 16.5
vertex 7.999999999999999 3.500000000000002 15.5
vertex 8.850835165171779e-17 3.5000000000000004 15.5
endloop
endfacet
facet normal -1.017468991190775e-16 0.707106781186548 0.707106781186547
outer loop
vertex 7.999999999999999 3.500000000000002 15.5
vertex 8.850835165171779e-17 2.500000000000001 16.5
vertex 7.999999999999999 2.500000000000002 16.5
endloop
endfacet
facet normal -2.7336327243413186e-16 1.0 0.0
outer loop
vertex 8.850835165171779e-17 3.5000000000000004 15.5
vertex 7.999999999999999 3.500000000000002 14.500000000000002
vertex 8.850835165171779e-17 3.5000000000000004 14.500000000000002
endloop
endfacet
facet normal -2.7336327243413186e-16 1.0 0.0
outer loop
vertex 7.999999999999999 3.500000000000002 14.500000000000002
vertex 8.850835165171779e-17 3.5000000000000004 15.5
vertex 7.999999999999999 3.500000000000002 15.5
endloop
endfacet
facet normal -1.2947142777052565e-16 -2.7644264263963193e-31 -1.0
outer loop
vertex 7.999999999999999 3.500000000000002 14.500000000000002
vertex 2.8642206583737562e-15 2.1999999999999997 14.500000000000002
vertex 8.850835165171779e-17 3.5000000000000004 14.500000000000002
endloop
endfacet
facet normal -1.2947142777052565e-16 -2.7644264263963193e-31 -1.0
outer loop
vertex 2.8642206583737562e-15 2.1999999999999997 14.500000000000002
vertex 7.999999999999999 3.500000000000002 14.500000000000002
vertex 8.000000000000002 2.200000000000003 14.500000000000002
endloop
endfacet
facet normal 2.718533889467556e-16 -0.9999336223593508 -0.011521756606838924
outer loop
vertex 8.000000000000005 2.1930892419224333 15.099760921320895
vertex 2.8642206583737562e-15 2.1999999999999997 14.500000000000002
vertex 8.000000000000002 2.200000000000003 14.500000000000002
endloop
endfacet
facet normal 2.718533889467556e-16 -0.9999336223593508 -0.011521756606838924
outer loop
vertex 2.8642206583737562e-15 2.1999999999999997 14.500000000000002
vertex 8.000000000000005 2.1930892419224333 15.099760921320895
vertex 5.654675337150617e-15 2.193089241922431 15.099760921320895
endloop
endfacet
facet normal -1.2947142777052565e-16 0.0 -1.0
outer loop
vertex 8.000000000000005 2.1930892419224333 15.099760921320895
vertex 5.654675337150617e-15 -0.006910758077568729 15.099760921320895
vertex 5.654675337150617e-15 2.193089241922431 15.099760921320895
endloop
endfacet
facet normal -1.2947142777052565e-16 0.0 -1.0
outer loop
vertex 5.654675337150617e-15 -0.006910758077568729 15.099760921320895
vertex 8.000000000000005 2.1930892419224333 15.099760921320895
vertex 8.000000000000005 -0.006910758077566614 15.099760921320895
endloop
endfacet
facet normal -2.732247323571667e-16 0.9999985792966779 0.001685646649172218
outer loop
vertex 5.639932965095795e-15 0.0 11.000000000000002
vertex 8.000000000000005 -0.006910758077566614 15.099760921320895
vertex 8.000000000000005 2.114974861910923e-15 11.0
endloop
endfacet
facet normal -2.732247323571667e-16 0.9999985792966779 0.001685646649172218
outer loop
vertex 8.000000000000005 -0.006910758077566614 15.099760921320895
vertex 5.639932965095795e-15 0.0 11.000000000000002
vertex 5.654675337150617e-15 -0.006910758077568729 15.099760921320895
endloop
endfacet
facet normal -3.091311189710768e-16 0.7071067811865476 -0.7071067811865476
outer loop
vertex 5.70446132653315e-15 -1.5 9.500000000000002
vertex 8.000000000000005 2.114974861910923e-15 11.0
vertex 8.000000000000005 -1.499999999999998 9.5
endloop
endfacet
facet normal -3.091311189710768e-16 0.7071067811865476 -0.7071067811865476
outer loop
vertex 8.000000000000005 2.114974861910923e-15 11.0
vertex 5.70446132653315e-15 -1.5 9.500000000000002
vertex 5.639932965095795e-15 0.0 11.000000000000002
endloop
endfacet
facet normal -2.733632724341318e-16 1.0 -8.812395257962154e-17
outer loop
vertex 5.70446132653315e-15 -1.5 9.500000000000002
vertex 8.000000000000002 -1.4999999999999982 5.500000000000001
vertex 2.1217473420351577e-15 -1.5000000000000004 5.500000000000001
endloop
endfacet
facet normal -2.733632724341318e-16 1.0 -8.812395257962154e-17
outer loop
vertex 8.000000000000002 -1.4999999999999982 5.500000000000001
vertex 5.70446132653315e-15 -1.5 9.500000000000002
vertex 8.000000000000005 -1.499999999999998 9.5
endloop
endfacet
facet normal -1.2983506996785225e-16 0.7071067811865476 0.7071067811865476
outer loop
vertex -1.0292008329462966e-16 0.0 3.9999999999999996
vertex 8.000000000000002 -1.4999999999999982 5.500000000000001
vertex 7.999999999999999 2.114974861910923e-15 3.999999999999999
endloop
endfacet
facet normal -1.2983506996785225e-16 0.7071067811865476 0.7071067811865476
outer loop
vertex 8.000000000000002 -1.4999999999999982 5.500000000000001
vertex -1.0292008329462966e-16 0.0 3.9999999999999996
vertex 2.1217473420351577e-15 -1.5000000000000004 5.500000000000001
endloop
endfacet
facet normal -2.7336327243413186e-16 1.0 1.589976627065217e-32
outer loop
vertex -1.141275554333461e-16 0.0 -0.09999999999999999
vertex 7.999999999999999 2.114974861910923e-15 3.999999999999999
vertex 7.999999999999999 2.114974861910923e-15 -0.10000000000000105
endloop
endfacet
facet normal -2.7336327243413186e-16 1.0 1.589976627065217e-32
outer loop
vertex 7.999999999999999 2.114974861910923e-15 3.999999999999999
vertex -1.141275554333461e-16 0.0 -0.09999999999999999
vertex -1.0292008329462966e-16 0.0 3.9999999999999996
endloop
endfacet
facet normal 1.294714277705256e-16 4.005634208164625e-17 1.0
outer loop
vertex 7.999999999999999 2.114974861910923e-15 -0.10000000000000105
vertex 7.730087951300133e-17 2.1999999999999997 -0.10000000000000017
vertex -1.141275554333461e-16 0.0 -0.09999999999999999
endloop
endfacet
facet normal 1.294714277705256e-16 4.005634208164625e-17 1.0
outer loop
vertex 7.730087951300133e-17 2.1999999999999997 -0.10000000000000017
vertex 7.999999999999999 2.114974861910923e-15 -0.10000000000000105
vertex 7.999999999999999 2.200000000000003 -0.10000000000000123
endloop
endfacet
facet normal 2.7336327243413186e-16 -1.0 -5.106185432589822e-33
outer loop
vertex 7.999999999999999 2.200000000000003 0.4999999999999987
vertex 7.730087951300133e-17 2.1999999999999997 -0.10000000000000017
vertex 7.999999999999999 2.200000000000003 -0.10000000000000123
endloop
endfacet
facet normal 2.7336327243413186e-16 -1.0 -5.106185432589822e-33
outer loop
vertex 7.730087951300133e-17 2.1999999999999997 -0.10000000000000017
vertex 7.999999999999999 2.200000000000003 0.4999999999999987
vertex 8.850835165171779e-17 2.1999999999999997 0.4999999999999998
endloop
endfacet
facet normal 1.2947142777052565e-16 0.0 1.0
outer loop
vertex 7.999999999999999 2.200000000000003 0.4999999999999987
vertex 8.850835165171779e-17 3.5000000000000004 0.4999999999999998
vertex 8.850835165171779e-17 2.1999999999999997 0.4999999999999998
endloop
endfacet
facet normal 1.2947142777052565e-16 0.0 1.0
outer loop
vertex 8.850835165171779e-17 3.5000000000000004 0.4999999999999998
vertex 7.999999999999999 2.200000000000003 0.4999999999999987
vertex 7.999999999999999 3.500000000000002 0.4999999999999987
endloop
endfacet
facet normal 1.0 2.7336327243413186e-16 -1.2947142777052562e-16
outer loop
vertex 7.999999999999999 -0.4999999999999984 -1.5000000000000007
vertex 8.0 -1.4999999999999978 3.3786796564403554
vertex 7.999999999999999 -1.499999999999998 -0.500000000000001
endloop
endfacet
facet normal 1.0 2.7336327243413186e-16 -1.2947142777052562e-16
outer loop
vertex 7.999999999999999 2.500000000000002 -1.5000000000000007
vertex 7.999999999999999 2.114974861910923e-15 -0.10000000000000105
vertex 7.999999999999999 -0.4999999999999984 -1.5000000000000007
endloop
endfacet
facet normal 1.0 2.7336327243413186e-16 -1.2947142777052562e-16
outer loop
vertex 7.999999999999999 2.114974861910923e-15 -0.10000000000000105
vertex 7.999999999999999 2.500000000000002 -1.5000000000000007
vertex 7.999999999999999 2.200000000000003 -0.10000000000000123
endloop
endfacet
facet normal 1.0 2.7336327243413186e-16 -1.2947142777052562e-16
outer loop
vertex 7.999999999999999 2.200000000000003 -0.10000000000000123
vertex 7.999999999999999 2.500000000000002 -1.5000000000000007
vertex 7.999999999999999 2.200000000000003 0.4999999999999987
endloop
endfacet
facet normal 1.0 2.7336327243413186e-16 -1.2947142777052562e-16
outer loop
vertex 7.999999999999999 2.200000000000003 0.4999999999999987
vertex 7.999999999999999 2.500000000000002 -1.5000000000000007
vertex 7.999999999999999 3.500000000000002 0.4999999999999987
endloop
endfacet
facet normal 1.0 2.7336327243413186e-16 -1.2947142777052562e-16
outer loop
vertex 7.999999999999999 3.500000000000002 0.4999999999999987
vertex 7.999999999999999 2.500000000000002 -1.5000000000000007
vertex 7.999999999999999 3.500000000000002 -0.500000000000001
endloop
endfacet
facet normal 1.0 2.7336327243413186e-16 -1.2947142777052562e-16
outer loop
vertex 8.0 -1.4999999999999978 3.3786796564403554
vertex 8.0 -2.9999999999999982 10.121320343559642
vertex 8.000000000000002 -2.9999999999999982 4.878679656440358
endloop
endfacet
facet normal 1.0 2.7336327243413186e-16 -1.2947142777052562e-16
outer loop
vertex 8.0 -2.9999999999999982 10.121320343559642
vertex 8.0 -1.4999999999999978 3.3786796564403554
vertex 8.000000000000002 -1.4999999999999982 5.500000000000001
endloop
endfacet
facet normal 1.0 2.7336327243413186e-16 -1.2947142777052562e-16
outer loop
vertex 8.000000000000002 -1.4999999999999982 5.500000000000001
vertex 8.0 -1.4999999999999978 3.3786796564403554
vertex 7.999999999999999 2.114974861910923e-15 3.999999999999999
endloop
endfacet
facet normal 1.0 2.7336327243413186e-16 -1.2947142777052562e-16
outer loop
vertex 7.999999999999999 2.114974861910923e-15 3.999999999999999
vertex 8.0 -1.4999999999999978 3.3786796564403554
vertex 7.999999999999999 -0.4999999999999984 -1.5000000000000007
endloop
endfacet
facet normal 1.0 2.7336327243413186e-16 -1.2947142777052562e-16
outer loop
vertex 7.999999999999999 2.114974861910923e-15 3.999999999999999
vertex 7.999999999999999 -0.4999999999999984 -1.5000000000000007
vertex 7.999999999999999 2.114974861910923e-15 -0.10000000000000105
endloop
endfacet
facet normal 1.0 2.7336327243413186e-16 -1.2947142777052562e-16
outer loop
vertex 8.000000000000002 -1.4999999999999982 5.500000000000001
vertex 8.000000000000004 -1.4999999999999982 11.621320343559642
vertex 8.0 -2.9999999999999982 10.121320343559642
endloop
endfacet
facet normal 1.0 2.7336327243413186e-16 -1.2947142777052562e-16
outer loop
vertex 8.000000000000004 -1.4999999999999982 11.621320343559642
vertex 8.000000000000002 -1.4999999999999982 5.500000000000001
vertex 8.000000000000005 -1.499999999999998 9.5
endloop
endfacet
facet normal 1.0 2.7336327243413186e-16 -1.2947142777052562e-16
outer loop
vertex 8.000000000000004 -1.4999999999999982 11.621320343559642
vertex 8.000000000000005 -1.499999999999998 9.5
vertex 7.999999999999999 -1.499999999999998 15.5
endloop
endfacet
facet normal 1.0 2.7336327243413186e-16 -1.2947142777052562e-16
outer loop
vertex 7.999999999999999 -1.499999999999998 15.5
vertex 8.000000000000005 -1.499999999999998 9.5
vertex 8.000000000000005 2.114974861910923e-15 11.0
endloop
endfacet
facet normal 1.0 2.7336327243413186e-16 -1.2947142777052562e-16
outer loop
vertex 7.999999999999999 -1.499999999999998 15.5
vertex 8.000000000000005 2.114974861910923e-15 11.0
vertex 7.999999999999999 -0.499999999999998 16.5
endloop
endfacet
facet normal 1.0 2.7336327243413186e-16 -1.2947142777052562e-16
outer loop
vertex 7.999999999999999 -0.499999999999998 16.5
vertex 8.000000000000005 2.114974861910923e-15 11.0
vertex 8.000000000000005 -0.006910758077566614 15.099760921320895
endloop
endfacet
facet normal 1.0 2.7336327243413186e-16 -1.2947142777052562e-16
outer loop
vertex 8.000000000000005 -0.006910758077566614 15.099760921320895
vertex 7.999999999999999 2.500000000000002 16.5
vertex 7.999999999999999 -0.499999999999998 16.5
endloop
endfacet
facet normal 1.0 2.7336327243413186e-16 -1.2947142777052562e-16
outer loop
vertex 7.999999999999999 2.500000000000002 16.5
vertex 8.000000000000005 -0.006910758077566614 15.099760921320895
vertex 8.000000000000005 2.1930892419224333 15.099760921320895
endloop
endfacet
facet normal 1.0 2.7336327243413186e-16 -1.2947142777052562e-16
outer loop
vertex 7.999999999999999 2.500000000000002 16.5
vertex 8.000000000000005 2.1930892419224333 15.099760921320895
vertex 8.000000000000002 2.200000000000003 14.500000000000002
endloop
endfacet
facet normal 1.0 2.7336327243413186e-16 -1.2947142777052562e-16
outer loop
vertex 7.999999999999999 2.500000000000002 16.5
vertex 8.000000000000002 2.200000000000003 14.500000000000002
vertex 7.999999999999999 3.500000000000002 14.500000000000002
endloop
endfacet
facet normal 1.0 2.7336327243413186e-16 -1.2947142777052562e-16
outer loop
vertex 7.999999999999999 2.500000000000002 16.5
vertex 7.999999999999999 3.500000000000002 14.500000000000002
vertex 7.999999999999999 3.500000000000002 15.5
endloop
endfacet
facet normal -1.0 -2.7336327243413206e-16 1.2947142777052565e-16
outer loop
vertex 8.850835165171779e-17 2.500000000000001 16.5
vertex 5.654675337150617e-15 -0.006910758077568729 15.099760921320895
vertex 8.850835165171779e-17 -0.5000000000000001 16.5
endloop
endfacet
facet normal -1.0 -2.7336327243413206e-16 1.2947142777052565e-16
outer loop
vertex 5.654675337150617e-15 -0.006910758077568729 15.099760921320895
vertex 8.850835165171779e-17 2.500000000000001 16.5
vertex 5.654675337150617e-15 2.193089241922431 15.099760921320895
endloop
endfacet
facet normal -1.0 -2.7336327243413206e-16 1.2947142777052565e-16
outer loop
vertex 5.654675337150617e-15 2.193089241922431 15.099760921320895
vertex 8.850835165171779e-17 2.500000000000001 16.5
vertex 2.8642206583737562e-15 2.1999999999999997 14.500000000000002
endloop
endfacet
facet normal -1.0 -2.7336327243413206e-16 1.2947142777052565e-16
outer loop
vertex 2.8642206583737562e-15 2.1999999999999997 14.500000000000002
vertex 8.850835165171779e-17 2.500000000000001 16.5
vertex 8.850835165171779e-17 3.5000000000000004 14.500000000000002
endloop
endfacet
facet normal -1.0 -2.7336327243413206e-16 1.2947142777052565e-16
outer loop
vertex 8.850835165171779e-17 3.5000000000000004 14.500000000000002
vertex 8.850835165171779e-17 2.500000000000001 16.5
vertex 8.850835165171779e-17 3.5000000000000004 15.5
endloop
endfacet
facet normal -1.0 -2.7336327243413206e-16 1.2947142777052565e-16
outer loop
vertex 8.850835165171779e-17 -1.5 15.5
vertex 2.1217473420351577e-15 -1.5000000000000004 5.500000000000001
vertex 3.718922110851436e-15 -1.5000000000000004 11.621320343559644
endloop
endfacet
facet normal -1.0 -2.7336327243413206e-16 1.2947142777052565e-16
outer loop
vertex 2.1217473420351577e-15 -1.5000000000000004 5.500000000000001
vertex 8.850835165171779e-17 -1.5 15.5
vertex 5.70446132653315e-15 -1.5 9.500000000000002
endloop
endfacet
facet normal -1.0 -2.7336327243413206e-16 1.2947142777052565e-16
outer loop
vertex 5.70446132653315e-15 -1.5 9.500000000000002
vertex 8.850835165171779e-17 -1.5 15.5
vertex 8.850835165171779e-17 -0.5000000000000001 16.5
endloop
endfacet
facet normal -1.0 -2.7336327243413206e-16 1.2947142777052565e-16
outer loop
vertex 5.70446132653315e-15 -1.5 9.500000000000002
vertex 8.850835165171779e-17 -0.5000000000000001 16.5
vertex 5.639932965095795e-15 0.0 11.000000000000002
endloop
endfacet
facet normal -1.0 -2.7336327243413206e-16 1.2947142777052565e-16
outer loop
vertex 5.639932965095795e-15 0.0 11.000000000000002
vertex 8.850835165171779e-17 -0.5000000000000001 16.5
vertex 5.654675337150617e-15 -0.006910758077568729 15.099760921320895
endloop
endfacet
facet normal -1.0 -2.7336327243413206e-16 1.2947142777052565e-16
outer loop
vertex 8.850835165171779e-17 3.5000000000000004 0.4999999999999998
vertex 7.730087951300133e-17 2.1999999999999997 -0.10000000000000017
vertex 8.850835165171779e-17 2.1999999999999997 0.4999999999999998
endloop
endfacet
facet normal -1.0 -2.7336327243413206e-16 1.2947142777052565e-16
outer loop
vertex 7.730087951300133e-17 2.1999999999999997 -0.10000000000000017
vertex 8.850835165171779e-17 3.5000000000000004 0.4999999999999998
vertex 8.850835165171779e-17 2.500000000000001 -1.4999999999999998
endloop
endfacet
facet normal -1.0 -2.7336327243413206e-16 1.2947142777052565e-16
outer loop
vertex 8.850835165171779e-17 2.500000000000001 -1.4999999999999998
vertex 8.850835165171779e-17 3.5000000000000004 0.4999999999999998
vertex 8.850835165171779e-17 3.5000000000000004 -0.49999999999999994
endloop
endfacet
facet normal -1.0 -2.7336327243413206e-16 1.2947142777052565e-16
outer loop
vertex 3.718922110851436e-15 -1.5000000000000004 11.621320343559644
vertex 2.5056837868086705e-15 -3.0000000000000004 4.878679656440358
vertex 1.5401963700738026e-15 -3.0000000000000004 10.121320343559644
endloop
endfacet
facet normal -1.0 -2.7336327243413206e-16 1.2947142777052565e-16
outer loop
vertex 2.5056837868086705e-15 -3.0000000000000004 4.878679656440358
vertex 3.718922110851436e-15 -1.5000000000000004 11.621320343559644
vertex 2.1217473420351577e-15 -1.5000000000000004 5.500000000000001
endloop
endfacet
facet normal -1.0 -2.7336327243413206e-16 1.2947142777052565e-16
outer loop
vertex 2.5056837868086705e-15 -3.0000000000000004 4.878679656440358
vertex 2.1217473420351577e-15 -1.5000000000000004 5.500000000000001
vertex 1.1948427699736357e-15 -1.5 3.3786796564403563
endloop
endfacet
facet normal -1.0 -2.7336327243413206e-16 1.2947142777052565e-16
outer loop
vertex 1.1948427699736357e-15 -1.5 3.3786796564403563
vertex 2.1217473420351577e-15 -1.5000000000000004 5.500000000000001
vertex -1.0292008329462966e-16 0.0 3.9999999999999996
endloop
endfacet
facet normal -1.0 -2.7336327243413206e-16 1.2947142777052565e-16
outer loop
vertex 1.1948427699736357e-15 -1.5 3.3786796564403563
vertex -1.0292008329462966e-16 0.0 3.9999999999999996
vertex 8.850835165171779e-17 -0.5000000000000004 -1.4999999999999998
endloop
endfacet
facet normal -1.0 -2.7336327243413206e-16 1.2947142777052565e-16
outer loop
vertex 8.850835165171779e-17 -0.5000000000000004 -1.4999999999999998
vertex -1.0292008329462966e-16 0.0 3.9999999999999996
vertex -1.141275554333461e-16 0.0 -0.09999999999999999
endloop
endfacet
facet normal -1.0 -2.7336327243413206e-16 1.2947142777052565e-16
outer loop
vertex 8.850835165171779e-17 -0.5000000000000004 -1.4999999999999998
vertex -1.141275554333461e-16 0.0 -0.09999999999999999
vertex 8.850835165171779e-17 2.500000000000001 -1.4999999999999998
endloop
endfacet
facet normal -1.0 -2.7336327243413206e-16 1.2947142777052565e-16
outer loop
vertex 8.850835165171779e-17 2.500000000000001 -1.4999999999999998
vertex -1.141275554333461e-16 0.0 -0.09999999999999999
vertex 7.730087951300133e-17 2.1999999999999997 -0.10000000000000017
endloop
endfacet
facet normal -1.0 -2.7336327243413206e-16 1.2947142777052565e-16
outer loop
vertex 8.850835165171779e-17 -0.5000000000000004 -1.4999999999999998
vertex 8.850835165171779e-17 -1.5 -0.49999999999999994
vertex 1.1948427699736357e-15 -1.5 3.3786796564403563
endloop
endfacet
endsolid SL_Kabelhalter
