solid SL_Schirm Alu Kunststoff
facet normal 0.0 1.0 0.0
outer loop
vertex -1.6327163131171623 111.73034209908033 13.00000000000001
vertex 4.3672836868828275 111.73034209908033 -6.999999999999988
vertex -1.6327163131171736 111.73034209908033 -6.999999999999988
endloop
endfacet
facet normal 0.0 1.0 0.0
outer loop
vertex 4.3672836868828275 111.73034209908033 -6.999999999999988
vertex -1.6327163131171623 111.73034209908033 13.00000000000001
vertex 4.367283686882839 111.73034209908033 13.00000000000001
endloop
endfacet
facet normal 0.0 0.0 1.0
outer loop
vertex 4.367283686882816 96.73034209908035 -6.999999999999988
vertex -1.6327163131171736 111.73034209908033 -6.999999999999988
vertex -1.632716313117185 96.73034209908035 -6.999999999999988
endloop
endfacet
facet normal 0.0 0.0 1.0
outer loop
vertex -1.6327163131171736 111.73034209908033 -6.999999999999988
vertex 4.367283686882816 96.73034209908035 -6.999999999999988
vertex 4.3672836868828275 111.73034209908033 -6.999999999999988
endloop
endfacet
facet normal 5.256789210544387e-16 -0.2588190451025217 0.9659258262890682
outer loop
vertex 4.367283686882816 105.26561827949044 -0.8637033051562543
vertex -1.6327163131171962 106.23034209908036 -0.46410161513773396
vertex -1.6327163131171962 105.26561827949044 -0.8637033051562543
endloop
endfacet
facet normal 5.159333312831886e-16 -0.49999999999999956 0.866025403784439
outer loop
vertex -1.6327163131171962 106.23034209908036 -0.46410161513773396
vertex 4.367283686882816 105.26561827949044 -0.8637033051562543
vertex 4.367283686882816 106.23034209908036 -0.4641016151377396
endloop
endfacet
facet normal 1.6653345369377286e-16 -1.0 -9.62399868729869e-16
outer loop
vertex 4.3672836868828275 108.23034209908036 3.0000000000000115
vertex -1.6327163131171736 108.09404540423661 1.9647238195899317
vertex 4.367283686882816 108.09404540423661 1.9647238195899317
endloop
endfacet
facet normal 2.901650522518725e-16 -0.9659258262890682 0.2588190451025213
outer loop
vertex -1.6327163131171736 108.09404540423661 1.9647238195899317
vertex 4.3672836868828275 108.23034209908036 3.0000000000000115
vertex -1.6327163131171736 108.23034209908036 3.000000000000017
endloop
endfacet
facet normal -5.256789210544386e-16 0.258819045102521 -0.9659258262890682
outer loop
vertex 4.3672836868828275 103.19506591867028 6.863703305156289
vertex -1.6327163131171736 102.23034209908035 6.464101615137768
vertex -1.6327163131171736 103.19506591867028 6.863703305156289
endloop
endfacet
facet normal -5.159333312831884e-16 0.4999999999999999 -0.8660254037844386
outer loop
vertex -1.6327163131171736 102.23034209908035 6.464101615137768
vertex 4.3672836868828275 103.19506591867028 6.863703305156289
vertex 4.3672836868828275 102.23034209908035 6.464101615137768
endloop
endfacet
facet normal -3.940223820194273e-16 0.8660254037844389 -0.4999999999999998
outer loop
vertex -1.6327163131171736 100.76624048394258 5.000000000000013
vertex 4.3672836868828275 101.40191497433416 5.828427124746203
vertex 4.3672836868828275 100.76624048394258 5.000000000000008
endloop
endfacet
facet normal -4.710277376051322e-16 0.707106781186548 -0.707106781186547
outer loop
vertex 4.3672836868828275 101.40191497433416 5.828427124746203
vertex -1.6327163131171736 100.76624048394258 5.000000000000013
vertex -1.6327163131171736 101.40191497433416 5.8284271247462085
endloop
endfacet
facet normal 4.394748621291441e-16 0.2588190451025204 0.9659258262890684
outer loop
vertex 4.367283686882816 103.19506591867028 -0.8637033051562599
vertex -1.6327163131171962 104.23034209908035 -0.9999999999999812
vertex -1.6327163131171962 103.19506591867028 -0.8637033051562543
endloop
endfacet
facet normal 4.996003610813206e-16 -1.12279984685151e-15 1.0
outer loop
vertex -1.6327163131171962 104.23034209908035 -0.9999999999999812
vertex 4.367283686882816 103.19506591867028 -0.8637033051562599
vertex 4.367283686882816 104.23034209908035 -0.9999999999999869
endloop
endfacet
facet normal -2.901650522518726e-16 0.9659258262890681 -0.2588190451025214
outer loop
vertex -1.6327163131171736 100.36663879392407 4.0352761804101025
vertex 4.3672836868828275 100.76624048394258 5.000000000000008
vertex 4.3672836868828275 100.36663879392407 4.035276180410091
endloop
endfacet
facet normal -3.940223820194272e-16 0.8660254037844389 -0.4999999999999995
outer loop
vertex 4.3672836868828275 100.76624048394258 5.000000000000008
vertex -1.6327163131171736 100.36663879392407 4.0352761804101025
vertex -1.6327163131171736 100.76624048394258 5.000000000000013
endloop
endfacet
facet normal -1.0557797906189316e-16 -0.8660254037844386 -0.5000000000000002
outer loop
vertex 4.3672836868828275 107.6944437142181 5.000000000000013
vertex -1.6327163131171736 108.09404540423661 4.0352761804101025
vertex 4.3672836868828275 108.09404540423661 4.0352761804101025
endloop
endfacet
facet normal 3.1552875475987986e-17 -0.9659258262890682 -0.25881904510252157
outer loop
vertex -1.6327163131171736 108.09404540423661 4.0352761804101025
vertex 4.3672836868828275 107.6944437142181 5.000000000000013
vertex -1.6327163131171736 107.6944437142181 5.000000000000019
endloop
endfacet
facet normal 4.996003610813203e-16 1.099834733654987e-31 1.0
outer loop
vertex 4.3672836868828275 96.73034209908035 13.00000000000001
vertex -1.6327163131171623 111.73034209908033 13.00000000000001
vertex -1.6327163131171736 96.73034209908035 13.00000000000001
endloop
endfacet
facet normal 4.996003610813203e-16 1.099834733654987e-31 1.0
outer loop
vertex -1.6327163131171623 111.73034209908033 13.00000000000001
vertex 4.3672836868828275 96.73034209908035 13.00000000000001
vertex 4.367283686882839 111.73034209908033 13.00000000000001
endloop
endfacet
facet normal 0.0 -1.0 0.0
outer loop
vertex 4.3672836868828275 96.73034209908035 13.00000000000001
vertex -1.632716313117185 96.73034209908035 -6.999999999999988
vertex 4.367283686882816 96.73034209908035 -6.999999999999988
endloop
endfacet
facet normal 0.0 -1.0 0.0
outer loop
vertex -1.632716313117185 96.73034209908035 -6.999999999999988
vertex 4.3672836868828275 96.73034209908035 13.00000000000001
vertex -1.6327163131171736 96.73034209908035 13.00000000000001
endloop
endfacet
facet normal -1.6653345369377343e-16 1.0 -8.019998906082215e-17
outer loop
vertex -1.6327163131171736 100.23034209908035 3.0000000000000115
vertex 4.3672836868828275 100.36663879392407 1.9647238195899317
vertex -1.6327163131171736 100.36663879392407 1.9647238195899317
endloop
endfacet
facet normal -3.155287547598829e-17 0.9659258262890682 0.25881904510252096
outer loop
vertex 4.3672836868828275 100.36663879392407 1.9647238195899317
vertex -1.6327163131171736 100.23034209908035 3.0000000000000115
vertex 4.3672836868828275 100.23034209908035 3.0000000000000115
endloop
endfacet
facet normal 1.0557797906189305e-16 0.8660254037844387 0.5000000000000001
outer loop
vertex -1.6327163131171736 100.76624048394258 1.000000000000015
vertex 4.367283686882816 101.40191497433416 0.17157287525382556
vertex -1.6327163131171736 101.40191497433416 0.17157287525382556
endloop
endfacet
facet normal 2.3551386880256594e-16 0.7071067811865479 0.7071067811865471
outer loop
vertex 4.367283686882816 101.40191497433416 0.17157287525382556
vertex -1.6327163131171736 100.76624048394258 1.000000000000015
vertex 4.3672836868828275 100.76624048394258 1.000000000000015
endloop
endfacet
facet normal 2.355138688025667e-16 0.707106781186547 0.707106781186548
outer loop
vertex -1.6327163131171736 101.40191497433416 0.17157287525382556
vertex 4.367283686882816 102.23034209908035 -0.4641016151377453
vertex -1.6327163131171962 102.23034209908035 -0.4641016151377396
endloop
endfacet
facet normal 3.493998775894154e-16 0.49999999999999967 0.866025403784439
outer loop
vertex 4.367283686882816 102.23034209908035 -0.4641016151377453
vertex -1.6327163131171736 101.40191497433416 0.17157287525382556
vertex 4.367283686882816 101.40191497433416 0.17157287525382556
endloop
endfacet
facet normal -2.901650522518726e-16 0.9659258262890681 -0.2588190451025214
outer loop
vertex -1.6327163131171736 100.36663879392407 4.0352761804101025
vertex 4.3672836868828275 100.23034209908035 3.0000000000000115
vertex -1.6327163131171736 100.23034209908035 3.0000000000000115
endloop
endfacet
facet normal -1.6653345369377343e-16 1.0 -8.019998906082215e-17
outer loop
vertex 4.3672836868828275 100.23034209908035 3.0000000000000115
vertex -1.6327163131171736 100.36663879392407 4.0352761804101025
vertex 4.3672836868828275 100.36663879392407 4.035276180410091
endloop
endfacet
facet normal 1.0 1.6653345369377343e-16 -4.996003610813203e-16
outer loop
vertex 4.367283686882816 96.73034209908035 -6.999999999999988
vertex 4.3672836868828275 100.36663879392407 1.9647238195899317
vertex 4.3672836868828275 96.73034209908035 13.00000000000001
endloop
endfacet
facet normal 1.0 1.6653345369377343e-16 -4.996003610813203e-16
outer loop
vertex 4.3672836868828275 100.36663879392407 1.9647238195899317
vertex 4.367283686882816 96.73034209908035 -6.999999999999988
vertex 4.3672836868828275 100.76624048394258 1.000000000000015
endloop
endfacet
facet normal 1.0 1.6653345369377343e-16 -4.996003610813203e-16
outer loop
vertex 4.3672836868828275 100.76624048394258 1.000000000000015
vertex 4.367283686882816 96.73034209908035 -6.999999999999988
vertex 4.367283686882816 101.40191497433416 0.17157287525382556
endloop
endfacet
facet normal 1.0 1.6653345369377343e-16 -4.996003610813203e-16
outer loop
vertex 4.367283686882816 101.40191497433416 0.17157287525382556
vertex 4.367283686882816 96.73034209908035 -6.999999999999988
vertex 4.367283686882816 102.23034209908035 -0.4641016151377453
endloop
endfacet
facet normal 1.0 1.6653345369377343e-16 -4.996003610813203e-16
outer loop
vertex 4.367283686882816 102.23034209908035 -0.4641016151377453
vertex 4.367283686882816 96.73034209908035 -6.999999999999988
vertex 4.3672836868828275 111.73034209908033 -6.999999999999988
endloop
endfacet
facet normal 1.0 1.6653345369377343e-16 -4.996003610813203e-16
outer loop
vertex 4.3672836868828275 96.73034209908035 13.00000000000001
vertex 4.3672836868828275 100.36663879392407 1.9647238195899317
vertex 4.3672836868828275 100.23034209908035 3.0000000000000115
endloop
endfacet
facet normal 1.0 1.6653345369377343e-16 -4.996003610813203e-16
outer loop
vertex 4.367283686882816 102.23034209908035 -0.4641016151377453
vertex 4.3672836868828275 111.73034209908033 -6.999999999999988
vertex 4.367283686882816 103.19506591867028 -0.8637033051562599
endloop
endfacet
facet normal 1.0 1.6653345369377343e-16 -4.996003610813203e-16
outer loop
vertex 4.367283686882816 103.19506591867028 -0.8637033051562599
vertex 4.3672836868828275 111.73034209908033 -6.999999999999988
vertex 4.367283686882816 104.23034209908035 -0.9999999999999869
endloop
endfacet
facet normal 1.0 1.6653345369377343e-16 -4.996003610813203e-16
outer loop
vertex 4.367283686882816 104.23034209908035 -0.9999999999999869
vertex 4.3672836868828275 111.73034209908033 -6.999999999999988
vertex 4.367283686882816 105.26561827949044 -0.8637033051562543
endloop
endfacet
facet normal 1.0 1.6653345369377343e-16 -4.996003610813203e-16
outer loop
vertex 4.367283686882816 105.26561827949044 -0.8637033051562543
vertex 4.3672836868828275 111.73034209908033 -6.999999999999988
vertex 4.367283686882816 106.23034209908036 -0.4641016151377396
endloop
endfacet
facet normal 1.0 1.6653345369377343e-16 -4.996003610813203e-16
outer loop
vertex 4.367283686882816 106.23034209908036 -0.4641016151377396
vertex 4.3672836868828275 111.73034209908033 -6.999999999999988
vertex 4.367283686882816 107.05876922382654 0.17157287525382556
endloop
endfacet
facet normal 1.0 1.6653345369377343e-16 -4.996003610813203e-16
outer loop
vertex 4.367283686882816 107.05876922382654 0.17157287525382556
vertex 4.3672836868828275 111.73034209908033 -6.999999999999988
vertex 4.367283686882816 107.6944437142181 1.000000000000015
endloop
endfacet
facet normal 1.0 1.6653345369377343e-16 -4.996003610813203e-16
outer loop
vertex 4.367283686882816 107.6944437142181 1.000000000000015
vertex 4.3672836868828275 111.73034209908033 -6.999999999999988
vertex 4.367283686882816 108.09404540423661 1.9647238195899317
endloop
endfacet
facet normal 1.0 1.6653345369377343e-16 -4.996003610813203e-16
outer loop
vertex 4.367283686882816 108.09404540423661 1.9647238195899317
vertex 4.3672836868828275 111.73034209908033 -6.999999999999988
vertex 4.3672836868828275 108.23034209908036 3.0000000000000115
endloop
endfacet
facet normal 1.0 1.6653345369377343e-16 -4.996003610813203e-16
outer loop
vertex 4.3672836868828275 96.73034209908035 13.00000000000001
vertex 4.3672836868828275 102.23034209908035 6.464101615137768
vertex 4.367283686882839 111.73034209908033 13.00000000000001
endloop
endfacet
facet normal 1.0 1.6653345369377343e-16 -4.996003610813203e-16
outer loop
vertex 4.3672836868828275 102.23034209908035 6.464101615137768
vertex 4.3672836868828275 96.73034209908035 13.00000000000001
vertex 4.3672836868828275 101.40191497433416 5.828427124746203
endloop
endfacet
facet normal 1.0 1.6653345369377343e-16 -4.996003610813203e-16
outer loop
vertex 4.3672836868828275 101.40191497433416 5.828427124746203
vertex 4.3672836868828275 96.73034209908035 13.00000000000001
vertex 4.3672836868828275 100.76624048394258 5.000000000000008
endloop
endfacet
facet normal 1.0 1.6653345369377343e-16 -4.996003610813203e-16
outer loop
vertex 4.3672836868828275 100.76624048394258 5.000000000000008
vertex 4.3672836868828275 96.73034209908035 13.00000000000001
vertex 4.3672836868828275 100.36663879392407 4.035276180410091
endloop
endfacet
facet normal 1.0 1.6653345369377343e-16 -4.996003610813203e-16
outer loop
vertex 4.3672836868828275 100.36663879392407 4.035276180410091
vertex 4.3672836868828275 96.73034209908035 13.00000000000001
vertex 4.3672836868828275 100.23034209908035 3.0000000000000115
endloop
endfacet
facet normal 1.0 1.6653345369377343e-16 -4.996003610813203e-16
outer loop
vertex 4.367283686882839 111.73034209908033 13.00000000000001
vertex 4.3672836868828275 102.23034209908035 6.464101615137768
vertex 4.3672836868828275 103.19506591867028 6.863703305156289
endloop
endfacet
facet normal 1.0 1.6653345369377343e-16 -4.996003610813203e-16
outer loop
vertex 4.367283686882839 111.73034209908033 13.00000000000001
vertex 4.3672836868828275 103.19506591867028 6.863703305156289
vertex 4.3672836868828275 104.23034209908035 7.000000000000015
endloop
endfacet
facet normal 1.0 1.6653345369377343e-16 -4.996003610813203e-16
outer loop
vertex 4.367283686882839 111.73034209908033 13.00000000000001
vertex 4.3672836868828275 104.23034209908035 7.000000000000015
vertex 4.3672836868828275 105.26561827949041 6.863703305156289
endloop
endfacet
facet normal 1.0 1.6653345369377343e-16 -4.996003610813203e-16
outer loop
vertex 4.367283686882839 111.73034209908033 13.00000000000001
vertex 4.3672836868828275 105.26561827949041 6.863703305156289
vertex 4.3672836868828275 106.23034209908035 6.464101615137768
endloop
endfacet
facet normal 1.0 1.6653345369377343e-16 -4.996003610813203e-16
outer loop
vertex 4.367283686882839 111.73034209908033 13.00000000000001
vertex 4.3672836868828275 106.23034209908035 6.464101615137768
vertex 4.3672836868828275 107.05876922382652 5.8284271247462085
endloop
endfacet
facet normal 1.0 1.6653345369377343e-16 -4.996003610813203e-16
outer loop
vertex 4.367283686882839 111.73034209908033 13.00000000000001
vertex 4.3672836868828275 107.05876922382652 5.8284271247462085
vertex 4.3672836868828275 107.6944437142181 5.000000000000013
endloop
endfacet
facet normal 1.0 1.6653345369377343e-16 -4.996003610813203e-16
outer loop
vertex 4.367283686882839 111.73034209908033 13.00000000000001
vertex 4.3672836868828275 107.6944437142181 5.000000000000013
vertex 4.3672836868828275 108.09404540423661 4.0352761804101025
endloop
endfacet
facet normal 1.0 1.6653345369377343e-16 -4.996003610813203e-16
outer loop
vertex 4.367283686882839 111.73034209908033 13.00000000000001
vertex 4.3672836868828275 108.09404540423661 4.0352761804101025
vertex 4.3672836868828275 108.23034209908036 3.0000000000000115
endloop
endfacet
facet normal 1.0 1.6653345369377343e-16 -4.996003610813203e-16
outer loop
vertex 4.367283686882839 111.73034209908033 13.00000000000001
vertex 4.3672836868828275 108.23034209908036 3.0000000000000115
vertex 4.3672836868828275 111.73034209908033 -6.999999999999988
endloop
endfacet
facet normal 3.9402238201942713e-16 -0.8660254037844392 0.49999999999999933
outer loop
vertex 4.367283686882816 107.6944437142181 1.000000000000015
vertex -1.6327163131171962 107.05876922382652 0.17157287525382556
vertex 4.367283686882816 107.05876922382654 0.17157287525382556
endloop
endfacet
facet normal 4.710277376051323e-16 -0.7071067811865477 0.7071067811865474
outer loop
vertex -1.6327163131171962 107.05876922382652 0.17157287525382556
vertex 4.367283686882816 107.6944437142181 1.000000000000015
vertex -1.6327163131171962 107.6944437142181 1.000000000000015
endloop
endfacet
facet normal 5.159333312831885e-16 -0.49999999999999933 0.8660254037844389
outer loop
vertex 4.367283686882816 106.23034209908036 -0.4641016151377396
vertex -1.6327163131171962 107.05876922382652 0.17157287525382556
vertex -1.6327163131171962 106.23034209908036 -0.46410161513773396
endloop
endfacet
facet normal 4.710277376051323e-16 -0.7071067811865477 0.7071067811865474
outer loop
vertex -1.6327163131171962 107.05876922382652 0.17157287525382556
vertex 4.367283686882816 106.23034209908036 -0.4641016151377396
vertex 4.367283686882816 107.05876922382654 0.17157287525382556
endloop
endfacet
facet normal -3.155287547598829e-17 0.9659258262890682 0.25881904510252096
outer loop
vertex -1.6327163131171736 100.36663879392407 1.9647238195899317
vertex 4.3672836868828275 100.76624048394258 1.000000000000015
vertex -1.6327163131171736 100.76624048394258 1.000000000000015
endloop
endfacet
facet normal 1.0557797906189282e-16 0.8660254037844389 0.4999999999999997
outer loop
vertex 4.3672836868828275 100.76624048394258 1.000000000000015
vertex -1.6327163131171736 100.36663879392407 1.9647238195899317
vertex 4.3672836868828275 100.36663879392407 1.9647238195899317
endloop
endfacet
facet normal -3.4939987758941555e-16 -0.49999999999999956 -0.8660254037844392
outer loop
vertex 4.3672836868828275 106.23034209908035 6.464101615137768
vertex -1.6327163131171736 105.26561827949041 6.863703305156289
vertex -1.6327163131171736 106.23034209908035 6.464101615137768
endloop
endfacet
facet normal -4.394748621291444e-16 -0.25881904510252 -0.9659258262890686
outer loop
vertex -1.6327163131171736 105.26561827949041 6.863703305156289
vertex 4.3672836868828275 106.23034209908035 6.464101615137768
vertex 4.3672836868828275 105.26561827949041 6.863703305156289
endloop
endfacet
facet normal -2.3551386880256634e-16 -0.7071067811865477 -0.7071067811865475
outer loop
vertex 4.3672836868828275 107.05876922382652 5.8284271247462085
vertex -1.6327163131171736 106.23034209908035 6.464101615137768
vertex -1.6327163131171736 107.05876922382652 5.8284271247462085
endloop
endfacet
facet normal -3.4939987758941555e-16 -0.49999999999999956 -0.8660254037844392
outer loop
vertex -1.6327163131171736 106.23034209908035 6.464101615137768
vertex 4.3672836868828275 107.05876922382652 5.8284271247462085
vertex 4.3672836868828275 106.23034209908035 6.464101615137768
endloop
endfacet
facet normal 3.1552875475987986e-17 -0.9659258262890682 -0.25881904510252157
outer loop
vertex 4.3672836868828275 108.09404540423661 4.0352761804101025
vertex -1.6327163131171736 108.23034209908036 3.000000000000017
vertex 4.3672836868828275 108.23034209908036 3.0000000000000115
endloop
endfacet
facet normal 1.6653345369377304e-16 -1.0 -6.6833324217351775e-16
outer loop
vertex -1.6327163131171736 108.23034209908036 3.000000000000017
vertex 4.3672836868828275 108.09404540423661 4.0352761804101025
vertex -1.6327163131171736 108.09404540423661 4.0352761804101025
endloop
endfacet
facet normal -5.159333312831884e-16 0.4999999999999999 -0.8660254037844386
outer loop
vertex 4.3672836868828275 102.23034209908035 6.464101615137768
vertex -1.6327163131171736 101.40191497433416 5.8284271247462085
vertex -1.6327163131171736 102.23034209908035 6.464101615137768
endloop
endfacet
facet normal -4.710277376051322e-16 0.707106781186548 -0.7071067811865471
outer loop
vertex -1.6327163131171736 101.40191497433416 5.8284271247462085
vertex 4.3672836868828275 102.23034209908035 6.464101615137768
vertex 4.3672836868828275 101.40191497433416 5.828427124746203
endloop
endfacet
facet normal -2.3551386880256634e-16 -0.7071067811865477 -0.7071067811865475
outer loop
vertex 4.3672836868828275 107.05876922382652 5.8284271247462085
vertex -1.6327163131171736 107.6944437142181 5.000000000000019
vertex 4.3672836868828275 107.6944437142181 5.000000000000013
endloop
endfacet
facet normal -1.0557797906189322e-16 -0.8660254037844386 -0.5000000000000003
outer loop
vertex -1.6327163131171736 107.6944437142181 5.000000000000019
vertex 4.3672836868828275 107.05876922382652 5.8284271247462085
vertex -1.6327163131171736 107.05876922382652 5.8284271247462085
endloop
endfacet
facet normal -1.0 -1.6653345369377343e-16 4.996003610813203e-16
outer loop
vertex -1.6327163131171736 96.73034209908035 13.00000000000001
vertex -1.6327163131171736 100.36663879392407 4.0352761804101025
vertex -1.632716313117185 96.73034209908035 -6.999999999999988
endloop
endfacet
facet normal -1.0 -1.6653345369377343e-16 4.996003610813203e-16
outer loop
vertex -1.6327163131171736 100.36663879392407 4.0352761804101025
vertex -1.6327163131171736 96.73034209908035 13.00000000000001
vertex -1.6327163131171736 100.76624048394258 5.000000000000013
endloop
endfacet
facet normal -1.0 -1.6653345369377343e-16 4.996003610813203e-16
outer loop
vertex -1.6327163131171736 100.76624048394258 5.000000000000013
vertex -1.6327163131171736 96.73034209908035 13.00000000000001
vertex -1.6327163131171736 101.40191497433416 5.8284271247462085
endloop
endfacet
facet normal -1.0 -1.6653345369377343e-16 4.996003610813203e-16
outer loop
vertex -1.6327163131171736 101.40191497433416 5.8284271247462085
vertex -1.6327163131171736 96.73034209908035 13.00000000000001
vertex -1.6327163131171736 102.23034209908035 6.464101615137768
endloop
endfacet
facet normal -1.0 -1.6653345369377343e-16 4.996003610813203e-16
outer loop
vertex -1.6327163131171736 102.23034209908035 6.464101615137768
vertex -1.6327163131171736 96.73034209908035 13.00000000000001
vertex -1.6327163131171623 111.73034209908033 13.00000000000001
endloop
endfacet
facet normal -1.0 -1.6653345369377343e-16 4.996003610813203e-16
outer loop
vertex -1.632716313117185 96.73034209908035 -6.999999999999988
vertex -1.6327163131171736 100.36663879392407 4.0352761804101025
vertex -1.6327163131171736 100.23034209908035 3.0000000000000115
endloop
endfacet
facet normal -1.0 -1.6653345369377343e-16 4.996003610813203e-16
outer loop
vertex -1.6327163131171736 102.23034209908035 6.464101615137768
vertex -1.6327163131171623 111.73034209908033 13.00000000000001
vertex -1.6327163131171736 103.19506591867028 6.863703305156289
endloop
endfacet
facet normal -1.0 -1.6653345369377343e-16 4.996003610813203e-16
outer loop
vertex -1.6327163131171736 103.19506591867028 6.863703305156289
vertex -1.6327163131171623 111.73034209908033 13.00000000000001
vertex -1.6327163131171736 104.23034209908035 7.000000000000015
endloop
endfacet
facet normal -1.0 -1.6653345369377343e-16 4.996003610813203e-16
outer loop
vertex -1.6327163131171736 104.23034209908035 7.000000000000015
vertex -1.6327163131171623 111.73034209908033 13.00000000000001
vertex -1.6327163131171736 105.26561827949041 6.863703305156289
endloop
endfacet
facet normal -1.0 -1.6653345369377343e-16 4.996003610813203e-16
outer loop
vertex -1.6327163131171736 105.26561827949041 6.863703305156289
vertex -1.6327163131171623 111.73034209908033 13.00000000000001
vertex -1.6327163131171736 106.23034209908035 6.464101615137768
endloop
endfacet
facet normal -1.0 -1.6653345369377343e-16 4.996003610813203e-16
outer loop
vertex -1.6327163131171736 106.23034209908035 6.464101615137768
vertex -1.6327163131171623 111.73034209908033 13.00000000000001
vertex -1.6327163131171736 107.05876922382652 5.8284271247462085
endloop
endfacet
facet normal -1.0 -1.6653345369377343e-16 4.996003610813203e-16
outer loop
vertex -1.6327163131171736 107.05876922382652 5.8284271247462085
vertex -1.6327163131171623 111.73034209908033 13.00000000000001
vertex -1.6327163131171736 107.6944437142181 5.000000000000019
endloop
endfacet
facet normal -1.0 -1.6653345369377343e-16 4.996003610813203e-16
outer loop
vertex -1.6327163131171736 107.6944437142181 5.000000000000019
vertex -1.6327163131171623 111.73034209908033 13.00000000000001
vertex -1.6327163131171736 108.09404540423661 4.0352761804101025
endloop
endfacet
facet normal -1.0 -1.6653345369377343e-16 4.996003610813203e-16
outer loop
vertex -1.6327163131171736 108.09404540423661 4.0352761804101025
vertex -1.6327163131171623 111.73034209908033 13.00000000000001
vertex -1.6327163131171736 108.23034209908036 3.000000000000017
endloop
endfacet
facet normal -1.0 -1.6653345369377343e-16 4.996003610813203e-16
outer loop
vertex -1.632716313117185 96.73034209908035 -6.999999999999988
vertex -1.6327163131171962 102.23034209908035 -0.4641016151377396
vertex -1.6327163131171736 111.73034209908033 -6.999999999999988
endloop
endfacet
facet normal -1.0 -1.6653345369377343e-16 4.996003610813203e-16
outer loop
vertex -1.6327163131171962 102.23034209908035 -0.4641016151377396
vertex -1.632716313117185 96.73034209908035 -6.999999999999988
vertex -1.6327163131171736 101.40191497433416 0.17157287525382556
endloop
endfacet
facet normal -1.0 -1.6653345369377343e-16 4.996003610813203e-16
outer loop
vertex -1.6327163131171736 101.40191497433416 0.17157287525382556
vertex -1.632716313117185 96.73034209908035 -6.999999999999988
vertex -1.6327163131171736 100.76624048394258 1.000000000000015
endloop
endfacet
facet normal -1.0 -1.6653345369377343e-16 4.996003610813203e-16
outer loop
vertex -1.6327163131171736 100.76624048394258 1.000000000000015
vertex -1.632716313117185 96.73034209908035 -6.999999999999988
vertex -1.6327163131171736 100.36663879392407 1.9647238195899317
endloop
endfacet
facet normal -1.0 -1.6653345369377343e-16 4.996003610813203e-16
outer loop
vertex -1.6327163131171736 100.36663879392407 1.9647238195899317
vertex -1.632716313117185 96.73034209908035 -6.999999999999988
vertex -1.6327163131171736 100.23034209908035 3.0000000000000115
endloop
endfacet
facet normal -1.0 -1.6653345369377343e-16 4.996003610813203e-16
outer loop
vertex -1.6327163131171736 111.73034209908033 -6.999999999999988
vertex -1.6327163131171962 102.23034209908035 -0.4641016151377396
vertex -1.6327163131171962 103.19506591867028 -0.8637033051562543
endloop
endfacet
facet normal -1.0 -1.6653345369377343e-16 4.996003610813203e-16
outer loop
vertex -1.6327163131171736 111.73034209908033 -6.999999999999988
vertex -1.6327163131171962 103.19506591867028 -0.8637033051562543
vertex -1.6327163131171962 104.23034209908035 -0.9999999999999812
endloop
endfacet
facet normal -1.0 -1.6653345369377343e-16 4.996003610813203e-16
outer loop
vertex -1.6327163131171736 111.73034209908033 -6.999999999999988
vertex -1.6327163131171962 104.23034209908035 -0.9999999999999812
vertex -1.6327163131171962 105.26561827949044 -0.8637033051562543
endloop
endfacet
facet normal -1.0 -1.6653345369377343e-16 4.996003610813203e-16
outer loop
vertex -1.6327163131171736 111.73034209908033 -6.999999999999988
vertex -1.6327163131171962 105.26561827949044 -0.8637033051562543
vertex -1.6327163131171962 106.23034209908036 -0.46410161513773396
endloop
endfacet
facet normal -1.0 -1.6653345369377343e-16 4.996003610813203e-16
outer loop
vertex -1.6327163131171736 111.73034209908033 -6.999999999999988
vertex -1.6327163131171962 106.23034209908036 -0.46410161513773396
vertex -1.6327163131171962 107.05876922382652 0.17157287525382556
endloop
endfacet
facet normal -1.0 -1.6653345369377343e-16 4.996003610813203e-16
outer loop
vertex -1.6327163131171736 111.73034209908033 -6.999999999999988
vertex -1.6327163131171962 107.05876922382652 0.17157287525382556
vertex -1.6327163131171962 107.6944437142181 1.000000000000015
endloop
endfacet
facet normal -1.0 -1.6653345369377343e-16 4.996003610813203e-16
outer loop
vertex -1.6327163131171736 111.73034209908033 -6.999999999999988
vertex -1.6327163131171962 107.6944437142181 1.000000000000015
vertex -1.6327163131171736 108.09404540423661 1.9647238195899317
endloop
endfacet
facet normal -1.0 -1.6653345369377343e-16 4.996003610813203e-16
outer loop
vertex -1.6327163131171736 111.73034209908033 -6.999999999999988
vertex -1.6327163131171736 108.09404540423661 1.9647238195899317
vertex -1.6327163131171736 108.23034209908036 3.000000000000017
endloop
endfacet
facet normal -1.0 -1.6653345369377343e-16 4.996003610813203e-16
outer loop
vertex -1.6327163131171736 111.73034209908033 -6.999999999999988
vertex -1.6327163131171736 108.23034209908036 3.000000000000017
vertex -1.6327163131171623 111.73034209908033 13.00000000000001
endloop
endfacet
facet normal -4.996003610813204e-16 2.316888572868195e-16 -1.0
outer loop
vertex 4.3672836868828275 104.23034209908035 7.000000000000015
vertex -1.6327163131171736 103.19506591867028 6.863703305156289
vertex -1.6327163131171736 104.23034209908035 7.000000000000015
endloop
endfacet
facet normal -5.256789210544386e-16 0.258819045102521 -0.9659258262890682
outer loop
vertex -1.6327163131171736 103.19506591867028 6.863703305156289
vertex 4.3672836868828275 104.23034209908035 7.000000000000015
vertex 4.3672836868828275 103.19506591867028 6.863703305156289
endloop
endfacet
facet normal -4.394748621291444e-16 -0.25881904510252 -0.9659258262890686
outer loop
vertex 4.3672836868828275 105.26561827949041 6.863703305156289
vertex -1.6327163131171736 104.23034209908035 7.000000000000015
vertex -1.6327163131171736 105.26561827949041 6.863703305156289
endloop
endfacet
facet normal -4.996003610813204e-16 2.316888572868195e-16 -1.0
outer loop
vertex -1.6327163131171736 104.23034209908035 7.000000000000015
vertex 4.3672836868828275 105.26561827949041 6.863703305156289
vertex 4.3672836868828275 104.23034209908035 7.000000000000015
endloop
endfacet
facet normal 4.996003610813205e-16 -1.1227998468515102e-15 1.0
outer loop
vertex 4.367283686882816 104.23034209908035 -0.9999999999999869
vertex -1.6327163131171962 105.26561827949044 -0.8637033051562543
vertex -1.6327163131171962 104.23034209908035 -0.9999999999999812
endloop
endfacet
facet normal 5.256789210544387e-16 -0.2588190451025217 0.9659258262890682
outer loop
vertex -1.6327163131171962 105.26561827949044 -0.8637033051562543
vertex 4.367283686882816 104.23034209908035 -0.9999999999999869
vertex 4.367283686882816 105.26561827949044 -0.8637033051562543
endloop
endfacet
facet normal 2.9016505225187193e-16 -0.9659258262890685 0.25881904510251996
outer loop
vertex 4.367283686882816 108.09404540423661 1.9647238195899317
vertex -1.6327163131171962 107.6944437142181 1.000000000000015
vertex 4.367283686882816 107.6944437142181 1.000000000000015
endloop
endfacet
facet normal 3.940223820194274e-16 -0.8660254037844387 0.5
outer loop
vertex -1.6327163131171962 107.6944437142181 1.000000000000015
vertex 4.367283686882816 108.09404540423661 1.9647238195899317
vertex -1.6327163131171736 108.09404540423661 1.9647238195899317
endloop
endfacet
facet normal 3.493998775894154e-16 0.49999999999999967 0.866025403784439
outer loop
vertex 4.367283686882816 102.23034209908035 -0.4641016151377453
vertex -1.6327163131171962 103.19506591867028 -0.8637033051562543
vertex -1.6327163131171962 102.23034209908035 -0.4641016151377396
endloop
endfacet
facet normal 4.394748621291442e-16 0.25881904510252046 0.9659258262890685
outer loop
vertex -1.6327163131171962 103.19506591867028 -0.8637033051562543
vertex 4.367283686882816 102.23034209908035 -0.4641016151377453
vertex 4.367283686882816 103.19506591867028 -0.8637033051562599
endloop
endfacet
facet normal -1.0 5.639932965095801e-16 0.0
outer loop
vertex 4.367283686882841 111.73034209908033 13.000000000000007
vertex 4.367283686882832 96.73034209908035 11.000000000000009
vertex 4.367283686882829 96.73034209908035 13.000000000000007
endloop
endfacet
facet normal -1.0 5.639932965095801e-16 0.0
outer loop
vertex 4.367283686882832 96.73034209908035 11.000000000000009
vertex 4.367283686882841 111.73034209908033 13.000000000000007
vertex 4.367283686882838 111.73034209908033 11.000000000000009
endloop
endfacet
facet normal 0.0 0.0 -1.0
outer loop
vertex 4.367283686882838 111.73034209908033 11.000000000000009
vertex 7.367283686882833 96.73034209908035 11.000000000000009
vertex 4.367283686882832 96.73034209908035 11.000000000000009
endloop
endfacet
facet normal 0.0 0.0 -1.0
outer loop
vertex 7.367283686882833 96.73034209908035 11.000000000000009
vertex 4.367283686882838 111.73034209908033 11.000000000000009
vertex 7.367283686882838 111.73034209908033 11.000000000000009
endloop
endfacet
facet normal 5.639932965095801e-16 1.0 -7.952210962693573e-31
outer loop
vertex 4.367283686882841 111.73034209908033 13.000000000000007
vertex 7.367283686882838 111.73034209908033 11.000000000000009
vertex 4.367283686882838 111.73034209908033 11.000000000000009
endloop
endfacet
facet normal 5.639932965095801e-16 1.0 -7.952210962693573e-31
outer loop
vertex 7.367283686882838 111.73034209908033 11.000000000000009
vertex 4.367283686882841 111.73034209908033 13.000000000000007
vertex 7.367283686882841 111.73034209908033 13.000000000000007
endloop
endfacet
facet normal 0.0 0.0 1.0
outer loop
vertex 7.367283686882829 96.73034209908035 13.000000000000007
vertex 4.367283686882841 111.73034209908033 13.000000000000007
vertex 4.367283686882829 96.73034209908035 13.000000000000007
endloop
endfacet
facet normal 0.0 0.0 1.0
outer loop
vertex 4.367283686882841 111.73034209908033 13.000000000000007
vertex 7.367283686882829 96.73034209908035 13.000000000000007
vertex 7.367283686882841 111.73034209908033 13.000000000000007
endloop
endfacet
facet normal -5.639932965095801e-16 -1.0 -7.952210962693573e-31
outer loop
vertex 7.367283686882829 96.73034209908035 13.000000000000007
vertex 4.367283686882832 96.73034209908035 11.000000000000009
vertex 7.367283686882833 96.73034209908035 11.000000000000009
endloop
endfacet
facet normal -5.639932965095801e-16 -1.0 -7.952210962693573e-31
outer loop
vertex 4.367283686882832 96.73034209908035 11.000000000000009
vertex 7.367283686882829 96.73034209908035 13.000000000000007
vertex 4.367283686882829 96.73034209908035 13.000000000000007
endloop
endfacet
facet normal 1.0 -5.639932965095801e-16 0.0
outer loop
vertex 7.367283686882838 111.73034209908033 11.000000000000009
vertex 7.367283686882829 96.73034209908035 13.000000000000007
vertex 7.367283686882833 96.73034209908035 11.000000000000009
endloop
endfacet
facet normal 1.0 -5.639932965095801e-16 0.0
outer loop
vertex 7.367283686882829 96.73034209908035 13.000000000000007
vertex 7.367283686882838 111.73034209908033 11.000000000000009
vertex 7.367283686882841 111.73034209908033 13.000000000000007
endloop
endfacet
facet normal 0.0 -0.0 -1.0
outer loop
vertex 54.36728368688283 96.73034209908033 9.000000000000012
vertex 57.367283686882836 111.73034209908033 9.000000000000012
vertex 57.367283686882836 96.73034209908033 9.000000000000012
endloop
endfacet
facet normal 0.0 -0.0 -1.0
outer loop
vertex 57.367283686882836 111.73034209908033 9.000000000000012
vertex 54.36728368688283 96.73034209908033 9.000000000000012
vertex 54.36728368688283 111.73034209908033 9.000000000000012
endloop
endfacet
facet normal 0.0 -0.0 -1.0
outer loop
vertex 51.367283686882836 96.73034209908033 11.00000000000001
vertex 54.36728368688283 111.73034209908033 11.00000000000001
vertex 54.36728368688283 96.73034209908033 11.00000000000001
endloop
endfacet
facet normal 0.0 -0.0 -1.0
outer loop
vertex 54.36728368688283 111.73034209908033 11.00000000000001
vertex 51.367283686882836 96.73034209908033 11.00000000000001
vertex 51.36728368688282 111.73034209908033 11.00000000000001
endloop
endfacet
facet normal -1.0 -1.2246467991473532e-16 0.0
outer loop
vertex 51.367283686882836 96.73034209908033 11.00000000000001
vertex 51.36728368688282 111.73034209908033 13.00000000000001
vertex 51.36728368688282 111.73034209908033 11.00000000000001
endloop
endfacet
facet normal -1.0 -1.2246467991473532e-16 0.0
outer loop
vertex 51.36728368688282 111.73034209908033 13.00000000000001
vertex 51.367283686882836 96.73034209908033 11.00000000000001
vertex 51.367283686882836 96.73034209908033 13.00000000000001
endloop
endfacet
facet normal -1.2246467991473532e-16 1.0 0.0
outer loop
vertex 51.36728368688282 111.73034209908033 13.00000000000001
vertex 54.36728368688283 111.73034209908033 11.00000000000001
vertex 51.36728368688282 111.73034209908033 11.00000000000001
endloop
endfacet
facet normal -1.2246467991473532e-16 1.0 0.0
outer loop
vertex 54.36728368688283 111.73034209908033 11.00000000000001
vertex 57.367283686882836 111.73034209908033 9.000000000000012
vertex 54.36728368688283 111.73034209908033 9.000000000000012
endloop
endfacet
facet normal -1.2246467991473532e-16 1.0 0.0
outer loop
vertex 57.367283686882836 111.73034209908033 9.000000000000012
vertex 54.36728368688283 111.73034209908033 11.00000000000001
vertex 57.367283686882836 111.73034209908033 13.00000000000001
endloop
endfacet
facet normal -1.2246467991473532e-16 1.0 0.0
outer loop
vertex 57.367283686882836 111.73034209908033 13.00000000000001
vertex 54.36728368688283 111.73034209908033 11.00000000000001
vertex 51.36728368688282 111.73034209908033 13.00000000000001
endloop
endfacet
facet normal -1.0 -1.2246467991473532e-16 0.0
outer loop
vertex 54.36728368688283 96.73034209908033 9.000000000000012
vertex 54.36728368688283 111.73034209908033 11.00000000000001
vertex 54.36728368688283 111.73034209908033 9.000000000000012
endloop
endfacet
facet normal -1.0 -1.2246467991473532e-16 0.0
outer loop
vertex 54.36728368688283 111.73034209908033 11.00000000000001
vertex 54.36728368688283 96.73034209908033 9.000000000000012
vertex 54.36728368688283 96.73034209908033 11.00000000000001
endloop
endfacet
facet normal 1.2246467991473532e-16 -1.0 0.0
outer loop
vertex 57.367283686882836 96.73034209908033 13.00000000000001
vertex 54.36728368688283 96.73034209908033 9.000000000000012
vertex 57.367283686882836 96.73034209908033 9.000000000000012
endloop
endfacet
facet normal 1.2246467991473532e-16 -1.0 0.0
outer loop
vertex 54.36728368688283 96.73034209908033 9.000000000000012
vertex 57.367283686882836 96.73034209908033 13.00000000000001
vertex 54.36728368688283 96.73034209908033 11.00000000000001
endloop
endfacet
facet normal 1.2246467991473532e-16 -1.0 0.0
outer loop
vertex 54.36728368688283 96.73034209908033 11.00000000000001
vertex 57.367283686882836 96.73034209908033 13.00000000000001
vertex 51.367283686882836 96.73034209908033 11.00000000000001
endloop
endfacet
facet normal 1.2246467991473532e-16 -1.0 0.0
outer loop
vertex 51.367283686882836 96.73034209908033 11.00000000000001
vertex 57.367283686882836 96.73034209908033 13.00000000000001
vertex 51.367283686882836 96.73034209908033 13.00000000000001
endloop
endfacet
facet normal 1.0 1.2246467991473532e-16 0.0
outer loop
vertex 57.367283686882836 96.73034209908033 13.00000000000001
vertex 57.367283686882836 111.73034209908033 9.000000000000012
vertex 57.367283686882836 111.73034209908033 13.00000000000001
endloop
endfacet
facet normal 1.0 1.2246467991473532e-16 0.0
outer loop
vertex 57.367283686882836 111.73034209908033 9.000000000000012
vertex 57.367283686882836 96.73034209908033 13.00000000000001
vertex 57.367283686882836 96.73034209908033 9.000000000000012
endloop
endfacet
facet normal 0.0 0.0 1.0
outer loop
vertex 51.36728368688282 111.73034209908033 13.00000000000001
vertex 57.367283686882836 96.73034209908033 13.00000000000001
vertex 57.367283686882836 111.73034209908033 13.00000000000001
endloop
endfacet
facet normal 0.0 0.0 1.0
outer loop
vertex 57.367283686882836 96.73034209908033 13.00000000000001
vertex 51.36728368688282 111.73034209908033 13.00000000000001
vertex 51.367283686882836 96.73034209908033 13.00000000000001
endloop
endfacet
facet normal 1.0 0.0 0.0
outer loop
vertex 57.367283686882836 111.73034209908033 -6.999999999999988
vertex 57.367283686882836 96.73034209908033 9.00000000000001
vertex 57.367283686882836 96.73034209908033 -6.999999999999988
endloop
endfacet
facet normal 1.0 0.0 0.0
outer loop
vertex 57.367283686882836 96.73034209908033 9.00000000000001
vertex 57.367283686882836 111.73034209908033 -6.999999999999988
vertex 57.367283686882836 111.73034209908033 9.00000000000001
endloop
endfacet
facet normal 0.0 1.0 0.0
outer loop
vertex 4.367283686882828 98.73034209908033 -6.999999999999988
vertex 10.169225566977426 98.73034209908033 -1.3781820997115861
vertex 55.36728368688285 98.73034209908033 -6.999999999999988
endloop
endfacet
facet normal 0.0 1.0 0.0
outer loop
vertex 10.169225566977426 98.73034209908033 -1.3781820997115861
vertex 4.367283686882828 98.73034209908033 -6.999999999999988
vertex 9.94868398128646 98.73034209908033 -1.2969975568274652
endloop
endfacet
facet normal 0.0 1.0 0.0
outer loop
vertex 9.94868398128646 98.73034209908033 -1.2969975568274652
vertex 4.367283686882828 98.73034209908033 -6.999999999999988
vertex 9.756669273763166 98.73034209908033 -1.1614989475462887
endloop
endfacet
facet normal 0.0 1.0 0.0
outer loop
vertex 9.756669273763166 98.73034209908033 -1.1614989475462887
vertex 4.367283686882828 98.73034209908033 -6.999999999999988
vertex 9.606266929405946 98.73034209908033 -0.9809202781685301
endloop
endfacet
facet normal 0.0 1.0 0.0
outer loop
vertex 9.606266929405946 98.73034209908033 -0.9809202781685301
vertex 4.367283686882828 98.73034209908033 -6.999999999999988
vertex 4.367283686882828 98.73034209908033 9.00000000000001
endloop
endfacet
facet normal 0.0 1.0 0.0
outer loop
vertex 55.36728368688285 98.73034209908033 -6.999999999999988
vertex 10.169225566977426 98.73034209908033 -1.3781820997115861
vertex 10.403264486233425 98.73034209908033 -1.3995199837648993
endloop
endfacet
facet normal 0.0 1.0 0.0
outer loop
vertex 9.606266929405946 98.73034209908033 -0.9809202781685301
vertex 4.367283686882828 98.73034209908033 9.00000000000001
vertex 9.507726619431123 98.73034209908033 -0.7675676865919223
endloop
endfacet
facet normal 0.0 1.0 0.0
outer loop
vertex 9.507726619431123 98.73034209908033 -0.7675676865919223
vertex 4.367283686882828 98.73034209908033 9.00000000000001
vertex 9.467763703117916 98.73034209908033 -0.5359807993505833
endloop
endfacet
facet normal 0.0 1.0 0.0
outer loop
vertex 9.467763703117916 98.73034209908033 -0.5359807993505833
vertex 4.367283686882828 98.73034209908033 9.00000000000001
vertex 9.48910158717123 98.73034209908033 -0.30194188009458356
endloop
endfacet
facet normal 0.0 1.0 0.0
outer loop
vertex 9.48910158717123 98.73034209908033 -0.30194188009458356
vertex 4.367283686882828 98.73034209908033 9.00000000000001
vertex 9.57028613005535 98.73034209908033 -0.08140029440361836
endloop
endfacet
facet normal 0.0 1.0 0.0
outer loop
vertex 9.57028613005535 98.73034209908033 -0.08140029440361836
vertex 4.367283686882828 98.73034209908033 9.00000000000001
vertex 9.705784739336528 98.73034209908033 0.11061441311967611
endloop
endfacet
facet normal 0.0 1.0 0.0
outer loop
vertex 9.705784739336528 98.73034209908033 0.11061441311967611
vertex 4.367283686882828 98.73034209908033 9.00000000000001
vertex 9.886363408714287 98.73034209908033 0.261016757476894
endloop
endfacet
facet normal 0.0 1.0 0.0
outer loop
vertex 9.886363408714287 98.73034209908033 0.261016757476894
vertex 4.367283686882828 98.73034209908033 9.00000000000001
vertex 10.099716000290893 98.73034209908033 0.3595570674517177
endloop
endfacet
facet normal 0.0 1.0 0.0
outer loop
vertex 10.099716000290893 98.73034209908033 0.3595570674517177
vertex 4.367283686882828 98.73034209908033 9.00000000000001
vertex 10.331302887532232 98.73034209908033 0.3995199837649245
endloop
endfacet
facet normal 0.0 1.0 0.0
outer loop
vertex 55.36728368688285 98.73034209908033 -6.999999999999988
vertex 10.634851373474765 98.73034209908033 -1.3595570674516926
vertex 55.36728368688285 98.73034209908033 9.00000000000001
endloop
endfacet
facet normal 0.0 1.0 0.0
outer loop
vertex 10.634851373474765 98.73034209908033 -1.3595570674516926
vertex 55.36728368688285 98.73034209908033 -6.999999999999988
vertex 10.403264486233425 98.73034209908033 -1.3995199837648993
endloop
endfacet
facet normal 0.0 1.0 0.0
outer loop
vertex 55.36728368688285 98.73034209908033 9.00000000000001
vertex 10.634851373474765 98.73034209908033 -1.3595570674516926
vertex 10.84820396505137 98.73034209908033 -1.261016757476869
endloop
endfacet
facet normal 0.0 1.0 0.0
outer loop
vertex 55.36728368688285 98.73034209908033 9.00000000000001
vertex 10.84820396505137 98.73034209908033 -1.261016757476869
vertex 11.02878263442913 98.73034209908033 -1.110614413119651
endloop
endfacet
facet normal 0.0 1.0 0.0
outer loop
vertex 55.36728368688285 98.73034209908033 9.00000000000001
vertex 11.02878263442913 98.73034209908033 -1.110614413119651
vertex 11.164281243710308 98.73034209908033 -0.9185997055963562
endloop
endfacet
facet normal 0.0 1.0 0.0
outer loop
vertex 55.36728368688285 98.73034209908033 9.00000000000001
vertex 11.164281243710308 98.73034209908033 -0.9185997055963562
vertex 11.245465786594426 98.73034209908033 -0.6980581199053912
endloop
endfacet
facet normal 0.0 1.0 0.0
outer loop
vertex 55.36728368688285 98.73034209908033 9.00000000000001
vertex 11.245465786594426 98.73034209908033 -0.6980581199053912
vertex 11.26680367064774 98.73034209908033 -0.4640192006493911
endloop
endfacet
facet normal 0.0 1.0 0.0
outer loop
vertex 55.36728368688285 98.73034209908033 9.00000000000001
vertex 11.26680367064774 98.73034209908033 -0.4640192006493911
vertex 11.226840754334534 98.73034209908033 -0.2324323134080523
endloop
endfacet
facet normal 0.0 1.0 0.0
outer loop
vertex 55.36728368688285 98.73034209908033 9.00000000000001
vertex 11.226840754334534 98.73034209908033 -0.2324323134080523
vertex 11.12830044435971 98.73034209908033 -0.019079721831444633
endloop
endfacet
facet normal 0.0 1.0 0.0
outer loop
vertex 55.36728368688285 98.73034209908033 9.00000000000001
vertex 11.12830044435971 98.73034209908033 -0.019079721831444633
vertex 10.977898100002491 98.73034209908033 0.1614989475463138
endloop
endfacet
facet normal 0.0 1.0 0.0
outer loop
vertex 55.36728368688285 98.73034209908033 9.00000000000001
vertex 10.977898100002491 98.73034209908033 0.1614989475463138
vertex 10.785883392479198 98.73034209908033 0.29699755682749
endloop
endfacet
facet normal 0.0 1.0 0.0
outer loop
vertex 55.36728368688285 98.73034209908033 9.00000000000001
vertex 10.785883392479198 98.73034209908033 0.29699755682749
vertex 10.565341806788231 98.73034209908033 0.37818209971161126
endloop
endfacet
facet normal 0.0 1.0 0.0
outer loop
vertex 55.36728368688285 98.73034209908033 9.00000000000001
vertex 10.565341806788231 98.73034209908033 0.37818209971161126
vertex 10.331302887532232 98.73034209908033 0.3995199837649245
endloop
endfacet
facet normal 0.0 1.0 0.0
outer loop
vertex 55.36728368688285 98.73034209908033 9.00000000000001
vertex 10.331302887532232 98.73034209908033 0.3995199837649245
vertex 4.367283686882828 98.73034209908033 9.00000000000001
endloop
endfacet
facet normal 0.0 -1.0 0.0
outer loop
vertex 55.36728368688285 109.73034209908033 9.00000000000001
vertex 4.367283686882828 109.73034209908033 -6.999999999999988
vertex 55.36728368688285 109.73034209908033 -6.999999999999988
endloop
endfacet
facet normal 0.0 -1.0 0.0
outer loop
vertex 4.367283686882828 109.73034209908033 -6.999999999999988
vertex 55.36728368688285 109.73034209908033 9.00000000000001
vertex 4.367283686882828 109.73034209908033 9.00000000000001
endloop
endfacet
facet normal -1.0 -0.0 -0.0
outer loop
vertex 55.36728368688285 109.73034209908033 9.00000000000001
vertex 55.36728368688285 98.73034209908033 -6.999999999999988
vertex 55.36728368688285 98.73034209908033 9.00000000000001
endloop
endfacet
facet normal -1.0 -0.0 -0.0
outer loop
vertex 55.36728368688285 98.73034209908033 -6.999999999999988
vertex 55.36728368688285 109.73034209908033 9.00000000000001
vertex 55.36728368688285 109.73034209908033 -6.999999999999988
endloop
endfacet
facet normal 0.0 0.0 -1.0
outer loop
vertex 4.367283686882831 111.73034209908033 9.00000000000001
vertex 55.36728368688285 109.73034209908033 9.00000000000001
vertex 4.367283686882828 109.73034209908033 9.00000000000001
endloop
endfacet
facet normal 0.0 0.0 -1.0
outer loop
vertex 55.36728368688285 109.73034209908033 9.00000000000001
vertex 4.367283686882831 111.73034209908033 9.00000000000001
vertex 57.367283686882836 111.73034209908033 9.00000000000001
endloop
endfacet
facet normal 0.0 0.0 -1.0
outer loop
vertex 55.36728368688285 109.73034209908033 9.00000000000001
vertex 57.367283686882836 111.73034209908033 9.00000000000001
vertex 55.36728368688285 98.73034209908033 9.00000000000001
endloop
endfacet
facet normal 0.0 0.0 -1.0
outer loop
vertex 55.36728368688285 98.73034209908033 9.00000000000001
vertex 4.367283686882828 96.73034209908033 9.00000000000001
vertex 4.367283686882828 98.73034209908033 9.00000000000001
endloop
endfacet
facet normal 0.0 0.0 -1.0
outer loop
vertex 4.367283686882828 96.73034209908033 9.00000000000001
vertex 55.36728368688285 98.73034209908033 9.00000000000001
vertex 57.367283686882836 96.73034209908033 9.00000000000001
endloop
endfacet
facet normal 0.0 0.0 -1.0
outer loop
vertex 57.367283686882836 96.73034209908033 9.00000000000001
vertex 55.36728368688285 98.73034209908033 9.00000000000001
vertex 57.367283686882836 111.73034209908033 9.00000000000001
endloop
endfacet
facet normal 0.0 -1.0 0.0
outer loop
vertex 57.367283686882836 111.73034209908033 9.00000000000001
vertex 4.367283686882831 111.73034209908033 -6.999999999999988
vertex 57.367283686882836 111.73034209908033 -6.999999999999988
endloop
endfacet
facet normal 0.0 -1.0 0.0
outer loop
vertex 4.367283686882831 111.73034209908033 -6.999999999999988
vertex 57.367283686882836 111.73034209908033 9.00000000000001
vertex 4.367283686882831 111.73034209908033 9.00000000000001
endloop
endfacet
facet normal 1.0 -1.4099832412739515e-15 0.0
outer loop
vertex 4.367283686882831 111.73034209908033 -6.999999999999988
vertex 4.367283686882828 109.73034209908033 9.00000000000001
vertex 4.367283686882828 109.73034209908033 -6.999999999999988
endloop
endfacet
facet normal 1.0 -1.4099832412739515e-15 0.0
outer loop
vertex 4.367283686882828 109.73034209908033 9.00000000000001
vertex 4.367283686882831 111.73034209908033 -6.999999999999988
vertex 4.367283686882831 111.73034209908033 9.00000000000001
endloop
endfacet
facet normal 0.0 0.0 -1.0
outer loop
vertex 4.367283686882831 111.73034209908033 -6.999999999999988
vertex 55.36728368688285 109.73034209908033 -6.999999999999988
vertex 4.367283686882828 109.73034209908033 -6.999999999999988
endloop
endfacet
facet normal 0.0 0.0 -1.0
outer loop
vertex 55.36728368688285 109.73034209908033 -6.999999999999988
vertex 4.367283686882831 111.73034209908033 -6.999999999999988
vertex 57.367283686882836 111.73034209908033 -6.999999999999988
endloop
endfacet
facet normal 0.0 0.0 -1.0
outer loop
vertex 55.36728368688285 109.73034209908033 -6.999999999999988
vertex 57.367283686882836 111.73034209908033 -6.999999999999988
vertex 55.36728368688285 98.73034209908033 -6.999999999999988
endloop
endfacet
facet normal 0.0 0.0 -1.0
outer loop
vertex 55.36728368688285 98.73034209908033 -6.999999999999988
vertex 4.367283686882828 96.73034209908033 -6.999999999999988
vertex 4.367283686882828 98.73034209908033 -6.999999999999988
endloop
endfacet
facet normal 0.0 0.0 -1.0
outer loop
vertex 4.367283686882828 96.73034209908033 -6.999999999999988
vertex 55.36728368688285 98.73034209908033 -6.999999999999988
vertex 57.367283686882836 96.73034209908033 -6.999999999999988
endloop
endfacet
facet normal 0.0 0.0 -1.0
outer loop
vertex 57.367283686882836 96.73034209908033 -6.999999999999988
vertex 55.36728368688285 98.73034209908033 -6.999999999999988
vertex 57.367283686882836 111.73034209908033 -6.999999999999988
endloop
endfacet
facet normal 0.0 -1.0 0.0
outer loop
vertex 57.367283686882836 96.73034209908033 9.00000000000001
vertex 4.367283686882828 96.73034209908033 -6.999999999999988
vertex 57.367283686882836 96.73034209908033 -6.999999999999988
endloop
endfacet
facet normal 0.0 -1.0 0.0
outer loop
vertex 4.367283686882828 96.73034209908033 -6.999999999999988
vertex 57.367283686882836 96.73034209908033 9.00000000000001
vertex 10.634851373474765 96.73034209908033 -1.3595570674516926
endloop
endfacet
facet normal 0.0 -1.0 0.0
outer loop
vertex 4.367283686882828 96.73034209908033 -6.999999999999988
vertex 10.634851373474765 96.73034209908033 -1.3595570674516926
vertex 10.403264486233425 96.73034209908033 -1.3995199837648993
endloop
endfacet
facet normal 0.0 -1.0 0.0
outer loop
vertex 10.634851373474765 96.73034209908033 -1.3595570674516926
vertex 57.367283686882836 96.73034209908033 9.00000000000001
vertex 10.84820396505137 96.73034209908033 -1.261016757476869
endloop
endfacet
facet normal 0.0 -1.0 0.0
outer loop
vertex 10.84820396505137 96.73034209908033 -1.261016757476869
vertex 57.367283686882836 96.73034209908033 9.00000000000001
vertex 11.02878263442913 96.73034209908033 -1.110614413119651
endloop
endfacet
facet normal 0.0 -1.0 0.0
outer loop
vertex 11.02878263442913 96.73034209908033 -1.110614413119651
vertex 57.367283686882836 96.73034209908033 9.00000000000001
vertex 11.164281243710308 96.73034209908033 -0.9185997055963562
endloop
endfacet
facet normal 0.0 -1.0 0.0
outer loop
vertex 11.164281243710308 96.73034209908033 -0.9185997055963562
vertex 57.367283686882836 96.73034209908033 9.00000000000001
vertex 11.245465786594426 96.73034209908033 -0.6980581199053912
endloop
endfacet
facet normal 0.0 -1.0 0.0
outer loop
vertex 11.245465786594426 96.73034209908033 -0.6980581199053912
vertex 57.367283686882836 96.73034209908033 9.00000000000001
vertex 11.26680367064774 96.73034209908033 -0.4640192006493911
endloop
endfacet
facet normal 0.0 -1.0 0.0
outer loop
vertex 11.26680367064774 96.73034209908033 -0.4640192006493911
vertex 57.367283686882836 96.73034209908033 9.00000000000001
vertex 11.226840754334534 96.73034209908033 -0.2324323134080523
endloop
endfacet
facet normal 0.0 -1.0 0.0
outer loop
vertex 11.226840754334534 96.73034209908033 -0.2324323134080523
vertex 57.367283686882836 96.73034209908033 9.00000000000001
vertex 11.12830044435971 96.73034209908033 -0.019079721831444633
endloop
endfacet
facet normal 0.0 -1.0 0.0
outer loop
vertex 11.12830044435971 96.73034209908033 -0.019079721831444633
vertex 57.367283686882836 96.73034209908033 9.00000000000001
vertex 10.977898100002491 96.73034209908033 0.1614989475463138
endloop
endfacet
facet normal 0.0 -1.0 0.0
outer loop
vertex 10.977898100002491 96.73034209908033 0.1614989475463138
vertex 57.367283686882836 96.73034209908033 9.00000000000001
vertex 10.785883392479198 96.73034209908033 0.29699755682749
endloop
endfacet
facet normal 0.0 -1.0 0.0
outer loop
vertex 10.785883392479198 96.73034209908033 0.29699755682749
vertex 57.367283686882836 96.73034209908033 9.00000000000001
vertex 10.565341806788231 96.73034209908033 0.37818209971161126
endloop
endfacet
facet normal 0.0 -1.0 0.0
outer loop
vertex 10.565341806788231 96.73034209908033 0.37818209971161126
vertex 57.367283686882836 96.73034209908033 9.00000000000001
vertex 10.331302887532232 96.73034209908033 0.3995199837649245
endloop
endfacet
facet normal 0.0 -1.0 0.0
outer loop
vertex 4.367283686882828 96.73034209908033 -6.999999999999988
vertex 9.606266929405946 96.73034209908033 -0.9809202781685301
vertex 4.367283686882828 96.73034209908033 9.00000000000001
endloop
endfacet
facet normal 0.0 -1.0 0.0
outer loop
vertex 9.606266929405946 96.73034209908033 -0.9809202781685301
vertex 4.367283686882828 96.73034209908033 -6.999999999999988
vertex 9.756669273763166 96.73034209908033 -1.1614989475462887
endloop
endfacet
facet normal 0.0 -1.0 0.0
outer loop
vertex 9.756669273763166 96.73034209908033 -1.1614989475462887
vertex 4.367283686882828 96.73034209908033 -6.999999999999988
vertex 9.94868398128646 96.73034209908033 -1.2969975568274652
endloop
endfacet
facet normal 0.0 -1.0 0.0
outer loop
vertex 9.94868398128646 96.73034209908033 -1.2969975568274652
vertex 4.367283686882828 96.73034209908033 -6.999999999999988
vertex 10.169225566977426 96.73034209908033 -1.3781820997115861
endloop
endfacet
facet normal 0.0 -1.0 0.0
outer loop
vertex 10.169225566977426 96.73034209908033 -1.3781820997115861
vertex 4.367283686882828 96.73034209908033 -6.999999999999988
vertex 10.403264486233425 96.73034209908033 -1.3995199837648993
endloop
endfacet
facet normal 0.0 -1.0 0.0
outer loop
vertex 4.367283686882828 96.73034209908033 9.00000000000001
vertex 9.606266929405946 96.73034209908033 -0.9809202781685301
vertex 9.507726619431123 96.73034209908033 -0.7675676865919223
endloop
endfacet
facet normal 0.0 -1.0 0.0
outer loop
vertex 4.367283686882828 96.73034209908033 9.00000000000001
vertex 9.507726619431123 96.73034209908033 -0.7675676865919223
vertex 9.467763703117916 96.73034209908033 -0.5359807993505833
endloop
endfacet
facet normal 0.0 -1.0 0.0
outer loop
vertex 4.367283686882828 96.73034209908033 9.00000000000001
vertex 9.467763703117916 96.73034209908033 -0.5359807993505833
vertex 9.48910158717123 96.73034209908033 -0.30194188009458356
endloop
endfacet
facet normal 0.0 -1.0 0.0
outer loop
vertex 4.367283686882828 96.73034209908033 9.00000000000001
vertex 9.48910158717123 96.73034209908033 -0.30194188009458356
vertex 9.57028613005535 96.73034209908033 -0.08140029440361836
endloop
endfacet
facet normal 0.0 -1.0 0.0
outer loop
vertex 4.367283686882828 96.73034209908033 9.00000000000001
vertex 9.57028613005535 96.73034209908033 -0.08140029440361836
vertex 9.705784739336528 96.73034209908033 0.11061441311967611
endloop
endfacet
facet normal 0.0 -1.0 0.0
outer loop
vertex 4.367283686882828 96.73034209908033 9.00000000000001
vertex 9.705784739336528 96.73034209908033 0.11061441311967611
vertex 9.886363408714287 96.73034209908033 0.261016757476894
endloop
endfacet
facet normal 0.0 -1.0 0.0
outer loop
vertex 4.367283686882828 96.73034209908033 9.00000000000001
vertex 9.886363408714287 96.73034209908033 0.261016757476894
vertex 10.099716000290893 96.73034209908033 0.3595570674517177
endloop
endfacet
facet normal 0.0 -1.0 0.0
outer loop
vertex 4.367283686882828 96.73034209908033 9.00000000000001
vertex 10.099716000290893 96.73034209908033 0.3595570674517177
vertex 10.331302887532232 96.73034209908033 0.3995199837649245
endloop
endfacet
facet normal 0.0 -1.0 0.0
outer loop
vertex 4.367283686882828 96.73034209908033 9.00000000000001
vertex 10.331302887532232 96.73034209908033 0.3995199837649245
vertex 57.367283686882836 96.73034209908033 9.00000000000001
endloop
endfacet
facet normal 1.0 0.0 0.0
outer loop
vertex 4.367283686882828 98.73034209908033 -6.999999999999988
vertex 4.367283686882828 96.73034209908033 9.00000000000001
vertex 4.367283686882828 96.73034209908033 -6.999999999999988
endloop
endfacet
facet normal 1.0 0.0 0.0
outer loop
vertex 4.367283686882828 96.73034209908033 9.00000000000001
vertex 4.367283686882828 98.73034209908033 -6.999999999999988
vertex 4.367283686882828 98.73034209908033 9.00000000000001
endloop
endfacet
facet normal -0.8853174329132721 0.0 0.4649871428113405
outer loop
vertex 11.164281243710308 98.73034209908033 -0.9185997055963562
vertex 11.02878263442913 96.73034209908033 -1.110614413119651
vertex 11.164281243710308 96.73034209908033 -0.9185997055963562
endloop
endfacet
facet normal -0.7348034446274877 0.0 0.6782801027330662
outer loop
vertex 11.02878263442913 96.73034209908033 -1.110614413119651
vertex 11.164281243710308 98.73034209908033 -0.9185997055963562
vertex 11.02878263442913 98.73034209908033 -1.110614413119651
endloop
endfacet
facet normal -0.9754985012022498 0.0 0.22000607753460938
outer loop
vertex 11.245465786594426 98.73034209908033 -0.6980581199053912
vertex 11.164281243710308 96.73034209908033 -0.9185997055963562
vertex 11.245465786594426 96.73034209908033 -0.6980581199053912
endloop
endfacet
facet normal -0.8853174329132721 0.0 0.4649871428113405
outer loop
vertex 11.164281243710308 96.73034209908033 -0.9185997055963562
vertex 11.245465786594426 98.73034209908033 -0.6980581199053912
vertex 11.164281243710308 98.73034209908033 -0.9185997055963562
endloop
endfacet
facet normal -0.9992009587217895 0.0 -0.039968038348870964
outer loop
vertex 11.26680367064774 98.73034209908033 -0.4640192006493911
vertex 11.245465786594426 96.73034209908033 -0.6980581199053912
vertex 11.26680367064774 96.73034209908033 -0.4640192006493911
endloop
endfacet
facet normal -0.9754985012022498 0.0 0.22000607753460938
outer loop
vertex 11.245465786594426 96.73034209908033 -0.6980581199053912
vertex 11.26680367064774 98.73034209908033 -0.4640192006493911
vertex 11.245465786594426 98.73034209908033 -0.6980581199053912
endloop
endfacet
facet normal -0.9548095221620982 0.0 -0.2972183984691827
outer loop
vertex 11.226840754334534 98.73034209908033 -0.2324323134080523
vertex 11.26680367064774 96.73034209908033 -0.4640192006493911
vertex 11.226840754334534 96.73034209908033 -0.2324323134080523
endloop
endfacet
facet normal -0.9992009587217895 0.0 -0.039968038348870964
outer loop
vertex 11.26680367064774 96.73034209908033 -0.4640192006493911
vertex 11.226840754334534 98.73034209908033 -0.2324323134080523
vertex 11.26680367064774 98.73034209908033 -0.4640192006493911
endloop
endfacet
facet normal -0.8453493945644005 0.0 -0.5342138159104476
outer loop
vertex 11.12830044435971 98.73034209908033 -0.019079721831444633
vertex 11.226840754334534 96.73034209908033 -0.2324323134080523
vertex 11.12830044435971 96.73034209908033 -0.019079721831444633
endloop
endfacet
facet normal -0.9548095221620982 0.0 -0.2972183984691827
outer loop
vertex 11.226840754334534 96.73034209908033 -0.2324323134080523
vertex 11.12830044435971 98.73034209908033 -0.019079721831444633
vertex 11.226840754334534 98.73034209908033 -0.2324323134080523
endloop
endfacet
facet normal -0.6782801027330652 0.0 -0.7348034446274885
outer loop
vertex 10.977898100002491 98.73034209908033 0.1614989475463138
vertex 11.12830044435971 96.73034209908033 -0.019079721831444633
vertex 10.977898100002491 96.73034209908033 0.1614989475463138
endloop
endfacet
facet normal -0.8453493945644005 0.0 -0.5342138159104476
outer loop
vertex 11.12830044435971 96.73034209908033 -0.019079721831444633
vertex 10.977898100002491 98.73034209908033 0.1614989475463138
vertex 11.12830044435971 98.73034209908033 -0.019079721831444633
endloop
endfacet
facet normal -0.6782801027330652 0.0 -0.7348034446274885
outer loop
vertex 10.977898100002491 98.73034209908033 0.1614989475463138
vertex 10.785883392479198 96.73034209908033 0.29699755682749
vertex 10.785883392479198 98.73034209908033 0.29699755682749
endloop
endfacet
facet normal -0.4649871428113415 0.0 -0.8853174329132718
outer loop
vertex 10.785883392479198 96.73034209908033 0.29699755682749
vertex 10.977898100002491 98.73034209908033 0.1614989475463138
vertex 10.977898100002491 96.73034209908033 0.1614989475463138
endloop
endfacet
facet normal -0.4649871428113415 0.0 -0.8853174329132718
outer loop
vertex 10.785883392479198 98.73034209908033 0.29699755682749
vertex 10.565341806788231 96.73034209908033 0.37818209971161126
vertex 10.565341806788231 98.73034209908033 0.37818209971161126
endloop
endfacet
facet normal -0.22000607753461057 0.0 -0.9754985012022495
outer loop
vertex 10.565341806788231 96.73034209908033 0.37818209971161126
vertex 10.785883392479198 98.73034209908033 0.29699755682749
vertex 10.785883392479198 96.73034209908033 0.29699755682749
endloop
endfacet
facet normal -0.22000607753461057 0.0 -0.9754985012022495
outer loop
vertex 10.565341806788231 98.73034209908033 0.37818209971161126
vertex 10.331302887532232 96.73034209908033 0.3995199837649245
vertex 10.331302887532232 98.73034209908033 0.3995199837649245
endloop
endfacet
facet normal 0.039968038348871464 0.0 -0.9992009587217895
outer loop
vertex 10.331302887532232 96.73034209908033 0.3995199837649245
vertex 10.565341806788231 98.73034209908033 0.37818209971161126
vertex 10.565341806788231 96.73034209908033 0.37818209971161126
endloop
endfacet
facet normal 0.039968038348871464 0.0 -0.9992009587217895
outer loop
vertex 10.331302887532232 98.73034209908033 0.3995199837649245
vertex 10.099716000290893 96.73034209908033 0.3595570674517177
vertex 10.099716000290893 98.73034209908033 0.3595570674517177
endloop
endfacet
facet normal 0.29721839846918324 0.0 -0.9548095221620981
outer loop
vertex 10.099716000290893 96.73034209908033 0.3595570674517177
vertex 10.331302887532232 98.73034209908033 0.3995199837649245
vertex 10.331302887532232 96.73034209908033 0.3995199837649245
endloop
endfacet
facet normal 0.29721839846918324 0.0 -0.9548095221620981
outer loop
vertex 10.099716000290893 98.73034209908033 0.3595570674517177
vertex 9.886363408714287 96.73034209908033 0.261016757476894
vertex 9.886363408714287 98.73034209908033 0.261016757476894
endloop
endfacet
facet normal 0.5342138159104475 0.0 -0.8453493945644005
outer loop
vertex 9.886363408714287 96.73034209908033 0.261016757476894
vertex 10.099716000290893 98.73034209908033 0.3595570674517177
vertex 10.099716000290893 96.73034209908033 0.3595570674517177
endloop
endfacet
facet normal 0.5342138159104475 0.0 -0.8453493945644005
outer loop
vertex 9.886363408714287 98.73034209908033 0.261016757476894
vertex 9.705784739336528 96.73034209908033 0.11061441311967611
vertex 9.705784739336528 98.73034209908033 0.11061441311967611
endloop
endfacet
facet normal 0.7348034446274875 0.0 -0.6782801027330663
outer loop
vertex 9.705784739336528 96.73034209908033 0.11061441311967611
vertex 9.886363408714287 98.73034209908033 0.261016757476894
vertex 9.886363408714287 96.73034209908033 0.261016757476894
endloop
endfacet
facet normal 0.8853174329132714 0.0 -0.46498714281134196
outer loop
vertex 9.57028613005535 98.73034209908033 -0.08140029440361836
vertex 9.705784739336528 96.73034209908033 0.11061441311967611
vertex 9.57028613005535 96.73034209908033 -0.08140029440361836
endloop
endfacet
facet normal 0.7348034446274875 0.0 -0.6782801027330663
outer loop
vertex 9.705784739336528 96.73034209908033 0.11061441311967611
vertex 9.57028613005535 98.73034209908033 -0.08140029440361836
vertex 9.705784739336528 98.73034209908033 0.11061441311967611
endloop
endfacet
facet normal 0.9754985012022492 0.0 -0.22000607753461213
outer loop
vertex 9.48910158717123 98.73034209908033 -0.30194188009458356
vertex 9.57028613005535 96.73034209908033 -0.08140029440361836
vertex 9.48910158717123 96.73034209908033 -0.30194188009458356
endloop
endfacet
facet normal 0.8853174329132714 0.0 -0.46498714281134196
outer loop
vertex 9.57028613005535 96.73034209908033 -0.08140029440361836
vertex 9.48910158717123 98.73034209908033 -0.30194188009458356
vertex 9.57028613005535 98.73034209908033 -0.08140029440361836
endloop
endfacet
facet normal 0.9992009587217896 0.0 0.03996803834887083
outer loop
vertex 9.467763703117916 98.73034209908033 -0.5359807993505833
vertex 9.48910158717123 96.73034209908033 -0.30194188009458356
vertex 9.467763703117916 96.73034209908033 -0.5359807993505833
endloop
endfacet
facet normal 0.9754985012022492 0.0 -0.22000607753461213
outer loop
vertex 9.48910158717123 96.73034209908033 -0.30194188009458356
vertex 9.467763703117916 98.73034209908033 -0.5359807993505833
vertex 9.48910158717123 98.73034209908033 -0.30194188009458356
endloop
endfacet
facet normal 0.9548095221620977 0.0 0.2972183984691841
outer loop
vertex 9.507726619431123 98.73034209908033 -0.7675676865919223
vertex 9.467763703117916 96.73034209908033 -0.5359807993505833
vertex 9.507726619431123 96.73034209908033 -0.7675676865919223
endloop
endfacet
facet normal 0.9992009587217896 0.0 0.03996803834887083
outer loop
vertex 9.467763703117916 96.73034209908033 -0.5359807993505833
vertex 9.507726619431123 98.73034209908033 -0.7675676865919223
vertex 9.467763703117916 98.73034209908033 -0.5359807993505833
endloop
endfacet
facet normal 0.8453493945644007 0.0 0.5342138159104473
outer loop
vertex 9.606266929405946 98.73034209908033 -0.9809202781685301
vertex 9.507726619431123 96.73034209908033 -0.7675676865919223
vertex 9.606266929405946 96.73034209908033 -0.9809202781685301
endloop
endfacet
facet normal 0.9548095221620977 0.0 0.2972183984691841
outer loop
vertex 9.507726619431123 96.73034209908033 -0.7675676865919223
vertex 9.606266929405946 98.73034209908033 -0.9809202781685301
vertex 9.507726619431123 98.73034209908033 -0.7675676865919223
endloop
endfacet
facet normal 0.6782801027330659 0.0 0.7348034446274878
outer loop
vertex 9.756669273763166 98.73034209908033 -1.1614989475462887
vertex 9.606266929405946 96.73034209908033 -0.9809202781685301
vertex 9.756669273763166 96.73034209908033 -1.1614989475462887
endloop
endfacet
facet normal 0.8453493945644007 0.0 0.5342138159104473
outer loop
vertex 9.606266929405946 96.73034209908033 -0.9809202781685301
vertex 9.756669273763166 98.73034209908033 -1.1614989475462887
vertex 9.606266929405946 98.73034209908033 -0.9809202781685301
endloop
endfacet
facet normal 0.46498714281134157 0.0 0.8853174329132716
outer loop
vertex 9.94868398128646 96.73034209908033 -1.2969975568274652
vertex 9.756669273763166 98.73034209908033 -1.1614989475462887
vertex 9.756669273763166 96.73034209908033 -1.1614989475462887
endloop
endfacet
facet normal 0.6782801027330659 0.0 0.7348034446274878
outer loop
vertex 9.756669273763166 98.73034209908033 -1.1614989475462887
vertex 9.94868398128646 96.73034209908033 -1.2969975568274652
vertex 9.94868398128646 98.73034209908033 -1.2969975568274652
endloop
endfacet
facet normal 0.2200060775346099 0.0 0.9754985012022497
outer loop
vertex 10.169225566977426 96.73034209908033 -1.3781820997115861
vertex 9.94868398128646 98.73034209908033 -1.2969975568274652
vertex 9.94868398128646 96.73034209908033 -1.2969975568274652
endloop
endfacet
facet normal 0.46498714281134157 0.0 0.8853174329132716
outer loop
vertex 9.94868398128646 98.73034209908033 -1.2969975568274652
vertex 10.169225566977426 96.73034209908033 -1.3781820997115861
vertex 10.169225566977426 98.73034209908033 -1.3781820997115861
endloop
endfacet
facet normal -0.03996803834887159 0.0 0.9992009587217895
outer loop
vertex 10.403264486233425 96.73034209908033 -1.3995199837648993
vertex 10.169225566977426 98.73034209908033 -1.3781820997115861
vertex 10.169225566977426 96.73034209908033 -1.3781820997115861
endloop
endfacet
facet normal 0.2200060775346099 0.0 0.9754985012022497
outer loop
vertex 10.169225566977426 98.73034209908033 -1.3781820997115861
vertex 10.403264486233425 96.73034209908033 -1.3995199837648993
vertex 10.403264486233425 98.73034209908033 -1.3995199837648993
endloop
endfacet
facet normal -0.2972183984691833 0.0 0.9548095221620979
outer loop
vertex 10.634851373474765 96.73034209908033 -1.3595570674516926
vertex 10.403264486233425 98.73034209908033 -1.3995199837648993
vertex 10.403264486233425 96.73034209908033 -1.3995199837648993
endloop
endfacet
facet normal -0.03996803834887159 0.0 0.9992009587217895
outer loop
vertex 10.403264486233425 98.73034209908033 -1.3995199837648993
vertex 10.634851373474765 96.73034209908033 -1.3595570674516926
vertex 10.634851373474765 98.73034209908033 -1.3595570674516926
endloop
endfacet
facet normal -0.5342138159104477 0.0 0.8453493945644005
outer loop
vertex 10.84820396505137 96.73034209908033 -1.261016757476869
vertex 10.634851373474765 98.73034209908033 -1.3595570674516926
vertex 10.634851373474765 96.73034209908033 -1.3595570674516926
endloop
endfacet
facet normal -0.2972183984691833 0.0 0.9548095221620979
outer loop
vertex 10.634851373474765 98.73034209908033 -1.3595570674516926
vertex 10.84820396505137 96.73034209908033 -1.261016757476869
vertex 10.84820396505137 98.73034209908033 -1.261016757476869
endloop
endfacet
facet normal -0.7348034446274877 0.0 0.6782801027330662
outer loop
vertex 11.02878263442913 96.73034209908033 -1.110614413119651
vertex 10.84820396505137 98.73034209908033 -1.261016757476869
vertex 10.84820396505137 96.73034209908033 -1.261016757476869
endloop
endfacet
facet normal -0.5342138159104477 0.0 0.8453493945644005
outer loop
vertex 10.84820396505137 98.73034209908033 -1.261016757476869
vertex 11.02878263442913 96.73034209908033 -1.110614413119651
vertex 11.02878263442913 98.73034209908033 -1.110614413119651
endloop
endfacet
endsolid SL_Schirm Alu Kunststoff
